<svg width="177" height="60" viewBox="0 0 177 60" fill="none" xmlns="http://www.w3.org/2000/svg">
<g clip-path="url(#clip0)">
<rect width="176.439" height="59.4231" rx="9" fill="#242424"/>
</g>
<path d="M27.1273 22.8276V11.6936H23.3653V10.3636H32.4853V11.6936H28.7233V22.8276H27.1273ZM38.8639 23.0556C38.0786 23.0556 37.3566 22.9036 36.6979 22.5996C36.0519 22.2956 35.4946 21.865 35.0259 21.3076C34.5572 20.7376 34.1899 20.0536 33.9239 19.2556C33.6706 18.445 33.5439 17.5393 33.5439 16.5386C33.5439 15.538 33.6706 14.645 33.9239 13.8596C34.1899 13.0616 34.5572 12.3903 35.0259 11.8456C35.4946 11.2883 36.0519 10.864 36.6979 10.5726C37.3566 10.2813 38.0786 10.1356 38.8639 10.1356C39.6492 10.1356 40.3649 10.2876 41.0109 10.5916C41.6696 10.883 42.2332 11.3073 42.7019 11.8646C43.1832 12.4093 43.5506 13.0806 43.8039 13.8786C44.0699 14.664 44.2029 15.5506 44.2029 16.5386C44.2029 17.5393 44.0699 18.445 43.8039 19.2556C43.5506 20.0536 43.1832 20.7376 42.7019 21.3076C42.2332 21.865 41.6696 22.2956 41.0109 22.5996C40.3649 22.9036 39.6492 23.0556 38.8639 23.0556ZM38.8639 21.6686C39.4212 21.6686 39.9216 21.5483 40.3649 21.3076C40.8209 21.067 41.2072 20.725 41.5239 20.2816C41.8532 19.8256 42.1066 19.2873 42.2839 18.6666C42.4612 18.0333 42.5499 17.324 42.5499 16.5386C42.5499 15.766 42.4612 15.0693 42.2839 14.4486C42.1066 13.828 41.8532 13.3023 41.5239 12.8716C41.2072 12.441 40.8209 12.1116 40.3649 11.8836C39.9216 11.643 39.4212 11.5226 38.8639 11.5226C38.3066 11.5226 37.7999 11.643 37.3439 11.8836C36.9006 12.1116 36.5142 12.441 36.1849 12.8716C35.8682 13.3023 35.6212 13.828 35.4439 14.4486C35.2666 15.0693 35.1779 15.766 35.1779 16.5386C35.1779 17.324 35.2666 18.0333 35.4439 18.6666C35.6212 19.2873 35.8682 19.8256 36.1849 20.2816C36.5142 20.725 36.9006 21.067 37.3439 21.3076C37.7999 21.5483 38.3066 21.6686 38.8639 21.6686ZM46.8831 22.8276V10.3636H50.7781C51.4114 10.3636 51.9941 10.427 52.5261 10.5536C53.0708 10.6676 53.5331 10.864 53.9131 11.1426C54.3058 11.4213 54.6098 11.7823 54.8251 12.2256C55.0404 12.669 55.1481 13.2136 55.1481 13.8596C55.1481 14.835 54.8948 15.614 54.3881 16.1966C53.8814 16.7793 53.1974 17.1783 52.3361 17.3936L55.5091 22.8276H53.7231L50.7211 17.5646H48.4601V22.8276H46.8831ZM48.4601 16.2726H50.5501C51.5254 16.2726 52.2728 16.0763 52.7921 15.6836C53.3114 15.2783 53.5711 14.6703 53.5711 13.8596C53.5711 13.0363 53.3114 12.46 52.7921 12.1306C52.2728 11.8013 51.5254 11.6366 50.5501 11.6366H48.4601V16.2726Z" fill="#DBDD83"/>
<path d="M125.836 20.9502V20.2642C126.508 19.5922 127.105 18.9855 127.628 18.4442C128.15 17.9029 128.589 17.4035 128.944 16.9462C129.298 16.4795 129.569 16.0549 129.756 15.6722C129.942 15.2802 130.036 14.9022 130.036 14.5382C130.036 14.0249 129.896 13.6049 129.616 13.2782C129.336 12.9515 128.911 12.7882 128.342 12.7882C127.968 12.7882 127.623 12.8955 127.306 13.1102C126.988 13.3155 126.699 13.5675 126.438 13.8662L125.78 13.2082C126.153 12.7975 126.55 12.4709 126.97 12.2282C127.39 11.9762 127.894 11.8502 128.482 11.8502C129.312 11.8502 129.966 12.0929 130.442 12.5782C130.918 13.0542 131.156 13.6889 131.156 14.4822C131.156 14.9022 131.062 15.3269 130.876 15.7562C130.698 16.1762 130.446 16.6149 130.12 17.0722C129.802 17.5202 129.42 17.9915 128.972 18.4862C128.533 18.9715 128.048 19.4895 127.516 20.0402C127.758 20.0215 128.01 20.0029 128.272 19.9842C128.533 19.9655 128.78 19.9562 129.014 19.9562H131.604V20.9502H125.836ZM135.721 21.1182C134.815 21.1182 134.111 20.7169 133.607 19.9142C133.103 19.1115 132.851 17.9589 132.851 16.4562C132.851 14.9535 133.103 13.8102 133.607 13.0262C134.111 12.2422 134.815 11.8502 135.721 11.8502C136.617 11.8502 137.317 12.2422 137.821 13.0262C138.325 13.8102 138.577 14.9535 138.577 16.4562C138.577 17.9589 138.325 19.1115 137.821 19.9142C137.317 20.7169 136.617 21.1182 135.721 21.1182ZM135.721 20.1942C135.982 20.1942 136.215 20.1242 136.421 19.9842C136.635 19.8349 136.817 19.6109 136.967 19.3122C137.125 19.0042 137.247 18.6169 137.331 18.1502C137.415 17.6742 137.457 17.1095 137.457 16.4562C137.457 15.8029 137.415 15.2429 137.331 14.7762C137.247 14.3095 137.125 13.9315 136.967 13.6422C136.817 13.3435 136.635 13.1242 136.421 12.9842C136.215 12.8442 135.982 12.7742 135.721 12.7742C135.459 12.7742 135.221 12.8442 135.007 12.9842C134.792 13.1242 134.605 13.3435 134.447 13.6422C134.297 13.9315 134.181 14.3095 134.097 14.7762C134.013 15.2429 133.971 15.8029 133.971 16.4562C133.971 17.7629 134.129 18.7149 134.447 19.3122C134.773 19.9002 135.198 20.1942 135.721 20.1942ZM140.944 16.0642C140.71 16.0642 140.51 15.9849 140.342 15.8262C140.183 15.6582 140.104 15.4482 140.104 15.1962C140.104 14.9255 140.183 14.7109 140.342 14.5522C140.51 14.3842 140.71 14.3002 140.944 14.3002C141.168 14.3002 141.359 14.3842 141.518 14.5522C141.686 14.7109 141.77 14.9255 141.77 15.1962C141.77 15.4482 141.686 15.6582 141.518 15.8262C141.359 15.9849 141.168 16.0642 140.944 16.0642ZM140.944 21.1182C140.71 21.1182 140.51 21.0389 140.342 20.8802C140.183 20.7122 140.104 20.5022 140.104 20.2502C140.104 19.9795 140.183 19.7649 140.342 19.6062C140.51 19.4382 140.71 19.3542 140.944 19.3542C141.168 19.3542 141.359 19.4382 141.518 19.6062C141.686 19.7649 141.77 19.9795 141.77 20.2502C141.77 20.5022 141.686 20.7122 141.518 20.8802C141.359 21.0389 141.168 21.1182 140.944 21.1182ZM143.786 20.9502V19.9982H145.83V13.4182H144.206V12.6762C144.617 12.6015 144.971 12.5129 145.27 12.4102C145.578 12.2982 145.853 12.1675 146.096 12.0182H146.978V19.9982H148.826V20.9502H143.786ZM153.125 21.1182C152.22 21.1182 151.515 20.7169 151.011 19.9142C150.507 19.1115 150.255 17.9589 150.255 16.4562C150.255 14.9535 150.507 13.8102 151.011 13.0262C151.515 12.2422 152.22 11.8502 153.125 11.8502C154.021 11.8502 154.721 12.2422 155.225 13.0262C155.729 13.8102 155.981 14.9535 155.981 16.4562C155.981 17.9589 155.729 19.1115 155.225 19.9142C154.721 20.7169 154.021 21.1182 153.125 21.1182ZM153.125 20.1942C153.386 20.1942 153.62 20.1242 153.825 19.9842C154.04 19.8349 154.222 19.6109 154.371 19.3122C154.53 19.0042 154.651 18.6169 154.735 18.1502C154.819 17.6742 154.861 17.1095 154.861 16.4562C154.861 15.8029 154.819 15.2429 154.735 14.7762C154.651 14.3095 154.53 13.9315 154.371 13.6422C154.222 13.3435 154.04 13.1242 153.825 12.9842C153.62 12.8442 153.386 12.7742 153.125 12.7742C152.864 12.7742 152.626 12.8442 152.411 12.9842C152.196 13.1242 152.01 13.3435 151.851 13.6422C151.702 13.9315 151.585 14.3095 151.501 14.7762C151.417 15.2429 151.375 15.8029 151.375 16.4562C151.375 17.7629 151.534 18.7149 151.851 19.3122C152.178 19.9002 152.602 20.1942 153.125 20.1942Z" fill="white"/>
<path d="M28.0013 45.8969C27.1273 45.8969 26.3166 45.7323 25.5693 45.4029C24.8219 45.0736 24.1759 44.6239 23.6313 44.0539L24.5813 42.9519C25.0246 43.4206 25.5439 43.8006 26.1393 44.0919C26.7473 44.3706 27.3743 44.5099 28.0203 44.5099C28.8436 44.5099 29.4833 44.3263 29.9393 43.9589C30.3953 43.5789 30.6233 43.0849 30.6233 42.4769C30.6233 42.1603 30.5663 41.8943 30.4523 41.6789C30.3509 41.4509 30.2053 41.2609 30.0153 41.1089C29.8379 40.9443 29.6226 40.7986 29.3693 40.6719C29.1159 40.5453 28.8436 40.4123 28.5523 40.2729L26.7663 39.4939C26.4749 39.3673 26.1773 39.2153 25.8733 39.0379C25.5693 38.8606 25.2969 38.6453 25.0563 38.3919C24.8156 38.1386 24.6193 37.8409 24.4673 37.4989C24.3153 37.1443 24.2393 36.7389 24.2393 36.2829C24.2393 35.8143 24.3343 35.3773 24.5243 34.9719C24.7269 34.5666 24.9993 34.2183 25.3413 33.9269C25.6959 33.6229 26.1076 33.3886 26.5763 33.2239C27.0576 33.0593 27.5833 32.9769 28.1533 32.9769C28.9006 32.9769 29.5909 33.1226 30.2243 33.4139C30.8576 33.6926 31.3959 34.0599 31.8393 34.5159L30.9843 35.5419C30.6043 35.1746 30.1799 34.8896 29.7113 34.6869C29.2553 34.4716 28.7359 34.3639 28.1533 34.3639C27.4566 34.3639 26.8929 34.5286 26.4623 34.8579C26.0443 35.1746 25.8353 35.6179 25.8353 36.1879C25.8353 36.4919 25.8923 36.7516 26.0063 36.9669C26.1329 37.1696 26.2976 37.3533 26.5003 37.5179C26.7029 37.6699 26.9246 37.8093 27.1653 37.9359C27.4059 38.0499 27.6529 38.1576 27.9063 38.2589L29.6733 39.0189C30.0279 39.1709 30.3636 39.3483 30.6803 39.5509C30.9969 39.7409 31.2693 39.9689 31.4973 40.2349C31.7253 40.4883 31.9026 40.7923 32.0293 41.1469C32.1686 41.4889 32.2383 41.8879 32.2383 42.3439C32.2383 42.8379 32.1369 43.3003 31.9343 43.7309C31.7443 44.1616 31.4656 44.5416 31.0983 44.8709C30.7309 45.1876 30.2876 45.4409 29.7683 45.6309C29.2489 45.8083 28.6599 45.8969 28.0013 45.8969ZM36.9056 45.6689V34.5349H33.1436V33.2049H42.2636V34.5349H38.5016V45.6689H36.9056ZM44.5081 45.6689V33.2049H46.0851V44.3199H51.5381V45.6689H44.5081Z" fill="white"/>
<path d="M133.195 44.8298V35.6458H135.813C136.327 35.6458 136.793 35.6925 137.213 35.7858C137.643 35.8792 138.007 36.0332 138.305 36.2478C138.604 36.4532 138.837 36.7285 139.005 37.0738C139.173 37.4192 139.257 37.8438 139.257 38.3478C139.257 38.8332 139.173 39.2532 139.005 39.6078C138.847 39.9625 138.618 40.2565 138.319 40.4898C138.021 40.7232 137.661 40.9005 137.241 41.0218C136.831 41.1338 136.373 41.1898 135.869 41.1898H134.357V44.8298H133.195ZM134.357 40.2378H135.729C136.532 40.2378 137.125 40.0885 137.507 39.7898C137.899 39.4818 138.095 39.0012 138.095 38.3478C138.095 37.6852 137.89 37.2278 137.479 36.9758C137.078 36.7145 136.476 36.5838 135.673 36.5838H134.357V40.2378ZM141.125 44.8298V35.6458H142.525L144.289 40.5458C144.401 40.8632 144.508 41.1852 144.611 41.5118C144.723 41.8292 144.835 42.1465 144.947 42.4638H145.003C145.115 42.1465 145.218 41.8292 145.311 41.5118C145.414 41.1852 145.521 40.8632 145.633 40.5458L147.369 35.6458H148.783V44.8298H147.691V39.7758C147.691 39.3652 147.71 38.9125 147.747 38.4178C147.784 37.9232 147.817 37.4705 147.845 37.0598H147.789L147.061 39.1458L145.325 43.9058H144.555L142.819 39.1458L142.091 37.0598H142.035C142.063 37.4705 142.091 37.9232 142.119 38.4178C142.156 38.9125 142.175 39.3652 142.175 39.7758V44.8298H141.125Z" fill="white"/>
<path d="M11.7002 7.04761C10.4867 6.84113 9.26558 6.87542 8.07202 7.15033C6.83626 7.43509 5.69226 7.9645 4.67075 8.72395C2.73263 10.1648 1.47964 12.2622 1.14354 14.631C0.807216 16.9995 1.42861 19.3553 2.89164 21.264C4.28752 23.0857 6.31386 24.3035 8.59693 24.6923C9.8108 24.8988 11.0307 24.8643 12.2244 24.5889C13.4607 24.3054 14.6053 23.7762 15.6258 23.0166C17.5641 21.5765 18.8173 19.4786 19.1535 17.1093C19.4896 14.7408 18.8679 12.3852 17.4054 10.4763C16.0091 8.65457 13.9828 7.43732 11.7001 7.04838" fill="#134A8E"/>
<path d="M18.8227 17.0635C18.4989 19.3452 17.2922 21.3665 15.4252 22.7536C14.4405 23.4858 13.3379 23.9954 12.1474 24.2697C12.0037 24.3028 11.8593 24.3322 11.7152 24.358C10.7039 24.5397 9.676 24.5434 8.65346 24.3694C7.0042 24.0879 5.49439 23.3579 4.27447 22.2703C3.86831 21.9073 3.49412 21.5054 3.15795 21.0667C2.01218 19.5731 1.40268 17.7941 1.3874 15.9558C1.38454 15.5312 1.41277 15.1041 1.47385 14.6766C1.73802 12.8124 2.5914 11.1225 3.91407 9.80916C4.20985 9.51509 4.52993 9.23965 4.87111 8.98586C5.53323 8.49321 6.24912 8.10239 7.00924 7.81502C7.37878 7.67555 7.75887 7.55982 8.14821 7.47065C9.29901 7.20558 10.4746 7.17234 11.6435 7.37127C13.8427 7.74538 15.7942 8.91783 17.1397 10.6732C18.5489 12.5121 19.1475 14.7809 18.8236 17.0636" fill="white"/>
<path d="M18.1411 19.0173C18.3947 18.3895 18.5739 17.728 18.6709 17.0422C18.7698 16.3419 18.7818 15.6435 18.708 14.9581V14.9562C18.7057 14.9425 18.7038 14.9279 18.702 14.9131C18.5326 13.42 17.9593 11.9941 17.0167 10.7637C15.9709 9.39982 14.552 8.39364 12.9349 7.8517C12.5087 7.70818 12.0683 7.59649 11.6169 7.51998C11.5442 7.50785 11.4712 7.49606 11.3979 7.48498C10.9589 7.42201 10.5163 7.3937 10.0771 7.39757C9.83581 7.3995 9.59504 7.41252 9.35445 7.4345C9.25157 7.44417 9.14743 7.45578 9.04563 7.46862C9.00348 7.47407 8.96061 7.47935 8.91846 7.48621C7.49444 7.68918 6.12771 8.24093 4.96349 9.10624C4.36336 9.55246 3.83309 10.0648 3.37972 10.6317C2.44596 11.7962 1.83973 13.1887 1.62557 14.6972C1.52644 15.3978 1.51448 16.0971 1.58967 16.7833C1.67255 17.5527 1.86348 18.3057 2.15694 19.0226C2.43807 19.7105 2.81316 20.3671 3.27951 20.9747C3.81678 21.6756 4.45211 22.2812 5.16212 22.7793C5.42093 22.9605 5.69064 23.1281 5.96819 23.2797C6.80374 23.7361 7.71769 24.0554 8.68004 24.2188V24.2198C8.89903 24.2573 9.11889 24.2851 9.3393 24.3053C9.70259 24.3391 10.067 24.35 10.429 24.3373C10.5229 24.3341 10.616 24.3297 10.7101 24.3231C12.3714 24.214 13.9875 23.6334 15.3322 22.6327C15.4653 22.5329 15.5957 22.4302 15.7229 22.3252C16.8032 21.4224 17.6267 20.2913 18.1407 19.0172" fill="#134A8E"/>
<path d="M15.1317 22.3718C13.2864 23.7437 11.0152 24.2856 8.73612 23.8967C6.65986 23.5432 4.81563 22.4357 3.54568 20.7781C2.21417 19.0412 1.64985 16.8978 1.95483 14.7432C2.26115 12.5877 3.40074 10.6794 5.16392 9.36801C7.00918 7.99702 9.28144 7.45491 11.5603 7.84365C13.4102 8.15849 15.0745 9.07136 16.3134 10.4389C16.3184 10.4441 16.3213 10.4471 16.3239 10.4503C16.4724 10.614 16.6147 10.785 16.7506 10.9621C18.0823 12.6983 18.6471 14.8428 18.3415 16.9974C18.0354 19.1526 16.8956 21.061 15.1324 22.3719" fill="white"/>
<path d="M6.10828 13.7424C5.84537 13.852 5.70997 13.9811 5.51207 14.2899C3.35727 14.641 2.61941 14.9801 2.42491 15.1909C2.39687 15.2295 2.40904 15.2482 2.43601 15.256C3.15242 15.2264 4.15616 15.1908 5.91319 15.2492C6.05841 15.2511 6.20015 15.2546 6.33929 15.257C6.42788 15.1417 6.5877 15.0399 6.89402 15.0399H6.92495H6.9839C7.55331 15.0471 7.65819 15.6225 8.26279 15.6225C8.86132 15.6225 8.96997 15.0572 9.52649 15.0403C9.5456 15.0403 9.56429 15.0399 9.5818 15.0399H11.667L11.6381 14.6993H9.55184C8.97261 14.6993 8.87008 14.1162 8.26187 14.1162C7.66018 14.1162 7.55545 14.6965 6.99118 14.6965H6.98554C6.39148 14.6558 6.15646 14.1612 6.10824 13.7425L6.10828 13.7424ZM2.48233 15.3366C2.41035 15.3357 2.39083 15.3646 2.46996 15.4256C2.81218 15.6699 3.97232 16.1122 5.39606 16.3732C6.08068 16.4988 6.39278 16.6839 6.88416 17.0221C7.95374 17.7584 9.41185 19.8373 10.3012 22.408C11.9876 19.1828 13.9468 17.6387 14.0998 17.5206L13.0971 17.6014L12.6159 17.6399L12.9248 17.2742L13.0924 17.075L12.4445 16.5241C12.0923 17.0544 11.7492 17.629 11.586 18.0724L12.2984 18.0695C11.9324 18.5164 11.2269 19.2549 10.7514 20.0738C10.2773 18.9254 9.16525 17.4485 7.15688 16.6367C6.57515 16.4019 6.02546 16.09 6.09616 15.6364C5.0876 15.4945 3.98188 15.3791 2.7302 15.3399C2.64018 15.3383 2.55706 15.3367 2.48222 15.3364L2.48233 15.3366Z" fill="#1D2D5C"/>
<path d="M8.03162 14.3804C7.90606 14.4634 7.81502 14.6178 7.82002 14.7671H8.02286C8.01304 14.6936 7.99018 14.5489 8.03162 14.3804" fill="white"/>
<path d="M10.3613 8.33179L9.96013 8.35561C9.99085 8.39097 10.0008 8.43536 10.0071 8.50396L10.0451 9.13979L9.08209 8.39861L9.16232 9.73887C9.16536 9.80166 9.16054 9.86598 9.11338 9.91892L9.53694 9.89456C9.49639 9.85305 9.4926 9.80594 9.48563 9.7231V9.72042L9.44979 9.10788L10.4101 9.85031L10.3291 8.49162C10.3264 8.43727 10.3292 8.37807 10.3613 8.33181L10.3613 8.33179ZM11.1049 8.40005L10.9713 8.72898C11.0505 8.69538 11.1115 8.69736 11.1957 8.71196L11.4196 8.75621L11.2089 9.78119C11.1927 9.85981 11.1639 9.90932 11.11 9.93993L11.569 10.0317C11.537 9.98382 11.5191 9.91922 11.5342 9.84606L11.7451 8.82144L11.9933 8.87071C12.0815 8.88847 12.1462 8.9372 12.1885 8.97713L12.1945 8.61738L11.1049 8.40006L11.1049 8.40005ZM7.79723 8.75836C7.5435 8.74817 7.28861 8.85856 7.12552 9.07458C6.86385 9.42177 6.93499 9.91134 7.28489 10.1665C7.63408 10.4219 8.13068 10.348 8.39201 10.001C8.65314 9.65396 8.58199 9.16458 8.23263 8.91004C8.10142 8.81395 7.9495 8.7644 7.79726 8.7583L7.79723 8.75836ZM13.2064 9.03309C12.9526 9.02288 12.6974 9.13293 12.5339 9.34948C12.273 9.69668 12.3443 10.1862 12.6937 10.4412C13.0427 10.6968 13.5402 10.622 13.8014 10.2748C14.0623 9.92902 13.9904 9.43947 13.6418 9.18423C13.5105 9.08853 13.3587 9.03915 13.2064 9.03302L13.2064 9.03309ZM7.78195 9.07591C7.87332 9.07943 7.96405 9.10833 8.04121 9.16459C8.24661 9.31515 8.29073 9.61267 8.13855 9.81476C7.98655 10.0181 7.68333 10.0621 7.47793 9.91151C7.27289 9.76148 7.22787 9.46378 7.38005 9.26117C7.47572 9.13475 7.62967 9.07005 7.78195 9.07592V9.07591ZM13.1896 9.35073C13.2808 9.3543 13.3714 9.38322 13.4485 9.43941C13.6537 9.58909 13.6988 9.88784 13.5464 10.0898C13.3937 10.2918 13.0914 10.3362 12.8854 10.1863C12.6802 10.0356 12.6357 9.73771 12.7881 9.53598C12.8838 9.40934 13.0376 9.34478 13.1896 9.35073H13.1896ZM5.93269 9.74975C5.87024 9.75125 5.80355 9.76533 5.73656 9.79132C5.7187 9.79782 5.63177 9.83541 5.56336 9.88466L5.55844 9.88878L5.14108 10.1874C5.1943 10.1994 5.25503 10.2206 5.29754 10.277V10.2772L6.02366 11.2723C6.0417 11.3097 6.05351 11.3567 6.04476 11.4083L6.41646 11.1428C6.34483 11.1364 6.30479 11.0949 6.25817 11.0387L5.9436 10.6121L6.7594 10.8968L7.10836 10.6465C7.05121 10.6435 6.98155 10.6309 6.90368 10.6099L6.36572 10.4289L6.37579 10.4029C6.44071 10.2402 6.4096 10.1214 6.40271 10.0994C6.38659 10.0461 6.36069 9.99525 6.32483 9.94847C6.27768 9.88375 6.21972 9.8341 6.15381 9.80174L6.14435 9.7969C6.09154 9.7726 6.0444 9.75893 5.99354 9.75242C5.9738 9.75009 5.95341 9.74923 5.93259 9.74973L5.93269 9.74975ZM5.92087 10.0661C5.95166 10.0665 5.98143 10.0752 6.01184 10.0919C6.06685 10.1222 6.08958 10.1912 6.09262 10.2082C6.09476 10.2202 6.10835 10.3291 5.97618 10.4245L5.86356 10.5053L5.6445 10.2111L5.74966 10.1348C5.8153 10.0882 5.86955 10.0656 5.92086 10.0661L5.92087 10.0661ZM14.9004 10.4547C13.3162 12.2644 8.89857 12.2419 7.75494 12.6117C7.00406 12.854 6.61886 13.2565 6.35291 13.6547C6.32665 14.0647 6.629 14.4561 6.98606 14.4561C6.98606 14.4561 6.8924 14.2234 7.01207 13.9869C7.05905 13.8956 7.14522 13.8115 7.26042 13.7425C8.14206 13.1475 10.0311 13.7515 10.0311 13.7515C9.58657 13.7119 9.22104 13.7198 8.91238 13.7604C9.43571 13.9199 9.99527 14.138 10.3744 14.2284C10.8418 14.3404 11.1508 14.398 11.6152 14.4244L11.6005 14.2442L11.8581 14.2873L12.5467 14.4038L12.6479 14.1496L12.7598 13.8701L12.9783 14.0797C12.9831 14.0843 13.3216 14.4085 13.4988 14.5783C13.4677 14.2589 13.3878 13.446 13.3869 13.4373L13.3545 13.1092L13.6649 13.2325L14.004 13.3674L14.5113 12.5485L14.6845 12.2704L14.8577 12.5485L15.2678 13.2088C15.411 12.6358 15.5137 12.029 15.8129 11.747C15.5128 11.7579 15.3019 11.8417 14.9739 12.0674C15.1599 11.5726 15.4346 11.2053 15.8061 10.7853C15.445 10.8393 15.1006 10.9413 14.7624 11.131C14.8915 10.8287 14.9003 10.4547 14.9003 10.4547L14.9004 10.4547ZM4.69182 11.056C4.43787 11.046 4.18237 11.1561 4.01883 11.3726C3.75806 11.7194 3.83047 12.208 4.1793 12.4644C4.52867 12.7196 5.0249 12.6446 5.28605 12.2979C5.54718 11.9509 5.47604 11.4619 5.12721 11.2072C4.99606 11.1115 4.84421 11.062 4.69184 11.056L4.69182 11.056ZM4.67508 11.373C4.76635 11.3765 4.85679 11.4054 4.93362 11.4618C5.13991 11.6124 5.18386 11.9099 5.03186 12.1118C4.8795 12.3148 4.57666 12.3593 4.37161 12.208C4.16602 12.0589 4.12118 11.7603 4.27318 11.558C4.36885 11.4318 4.52297 11.3671 4.67509 11.373L4.67508 11.373ZM3.31152 12.5068L2.89122 13.5189L3.19359 13.7113C3.17573 13.6281 3.18869 13.5694 3.21869 13.4901L3.30457 13.2824L4.28798 13.6784C4.36746 13.7102 4.4075 13.7537 4.42643 13.8077L4.60582 13.377C4.55188 13.3994 4.48461 13.4045 4.41425 13.3759L3.43065 12.9791L3.52708 12.7483C3.56084 12.6667 3.62202 12.6127 3.66918 12.5799L3.31157 12.5068L3.31152 12.5068ZM4.55743 17.6249C4.55743 17.7156 4.51453 17.8026 4.39932 17.8533L3.01024 18.5017C2.88021 18.5601 2.77743 18.5472 2.69348 18.4617L3.03261 19.1669C3.3066 19.7334 3.75812 19.706 3.95995 19.6124V19.6115C4.11535 19.5394 4.22904 19.4164 4.26833 19.2323C4.26833 19.2323 4.41534 19.2999 4.63075 19.1996H4.63166V19.1993C4.94673 19.0517 5.05985 18.6626 4.88856 18.3117L4.55743 17.6248V17.6249ZM4.52941 18.0074L4.7159 18.3936C4.8345 18.6409 4.75755 18.9131 4.5416 19.0142C4.41336 19.0744 4.28225 19.0528 4.14044 18.9494L4.12515 18.9372L4.12734 18.956C4.15431 19.156 4.05739 19.3326 3.86735 19.4215C3.61265 19.5405 3.36605 19.4155 3.20655 19.0857L3.02551 18.7095L4.52946 18.0074L4.52941 18.0074ZM4.48666 18.1245L3.90227 18.3976L4.05019 18.7038C4.15254 18.9166 4.33943 19.0114 4.5034 18.9352C4.67575 18.8549 4.73353 18.633 4.63457 18.4311L4.48666 18.1245V18.1245ZM15.8279 18.1994L15.7803 18.2052C15.579 18.2317 15.3545 18.3897 15.2448 18.5807C15.1627 18.7263 15.1245 18.8695 15.1326 19.0065C15.1428 19.1907 15.2299 19.3463 15.3849 19.4566C15.4067 19.4714 15.4298 19.4864 15.4548 19.5003C15.819 19.702 16.0493 19.4991 16.2344 19.3358L16.2493 19.3222C16.4002 19.1896 16.5066 19.1233 16.6086 19.1801C16.6715 19.2144 16.7015 19.3295 16.6479 19.4319C16.6038 19.5158 16.5395 19.5481 16.5193 19.5573C16.4127 19.6132 16.2425 19.5406 16.2404 19.5406L16.2373 19.5385L16.3115 19.7923H16.3146C16.3823 19.7997 16.4986 19.7721 16.5002 19.7721H16.5009C16.6363 19.7425 16.7413 19.6646 16.8122 19.5395C16.8153 19.5346 16.8175 19.5296 16.8195 19.5261L16.8232 19.5198C16.9337 19.322 16.8887 19.1008 16.7171 19.0044C16.5821 18.9293 16.4632 18.9273 16.3523 18.9994C16.2571 19.0607 16.1409 19.1581 16.14 19.1599C15.9485 19.3257 15.7841 19.4441 15.5576 19.322C15.4486 19.2636 15.3736 19.176 15.3414 19.0687C15.3066 18.9465 15.3285 18.8076 15.4068 18.6765C15.4486 18.6072 15.6054 18.3809 15.8967 18.3877H15.8985L15.8298 18.2003V18.1994H15.828L15.8279 18.1994ZM4.39723 18.3818L4.46036 18.5128C4.50752 18.6111 4.49467 18.7059 4.41215 18.7444C4.31017 18.7917 4.23109 18.6972 4.20001 18.6341L4.13706 18.5026L4.39724 18.3818H4.39723ZM3.82085 18.4348L3.14458 18.7512L3.28777 19.0477C3.36761 19.2145 3.54451 19.4754 3.82885 19.3421C4.1491 19.1928 4.03013 18.8694 3.96421 18.7317L3.82084 18.4348H3.82085ZM15.9297 18.4743C15.8429 18.4724 15.6266 18.4918 15.4796 18.7285C15.3542 18.9303 15.4067 19.1353 15.6066 19.2465C15.7968 19.3516 15.9371 19.2278 16.0613 19.1178L16.068 19.1126L16.124 19.0671C16.1349 19.0583 16.145 19.0496 16.1553 19.0408C16.2702 18.9441 16.3781 18.8526 16.5374 18.858C16.5494 18.858 16.6553 18.8644 16.7544 18.9243C16.8554 18.9838 16.9213 19.0652 16.9493 19.1646C16.9875 19.2977 16.9665 19.4446 16.8907 19.5788C16.8095 19.7199 16.681 19.8163 16.5283 19.8518C16.4631 19.8666 16.4254 19.8702 16.3391 19.8741H16.3373L16.3986 20.084H16.4004C16.7967 20.0654 16.9895 19.7798 17.0385 19.6922C17.0486 19.6753 17.0536 19.6643 17.0536 19.6643C17.1318 19.5265 17.1686 19.3793 17.1611 19.2386C17.1486 19.03 17.0367 18.8512 16.8536 18.75C16.426 18.5126 16.1263 18.7914 15.9821 18.9256L15.9759 18.9313C15.8355 19.0615 15.7689 19.094 15.7027 19.063C15.6878 19.0562 15.6799 19.0507 15.6686 19.0435C15.596 18.993 15.5874 18.9027 15.6508 18.8061C15.6644 18.7852 15.7897 18.607 16.0191 18.7206L16.0229 18.7224L15.9319 18.4743H15.9297L15.9297 18.4743ZM3.75564 18.6791L3.81477 18.8007C3.89283 18.9646 3.86691 19.0571 3.81368 19.1078C3.79296 19.1273 3.75379 19.151 3.72271 19.1542C3.63877 19.1641 3.55828 19.1701 3.46254 18.9652L3.40341 18.8428L3.75564 18.6791L3.75564 18.6791ZM5.3329 19.1689C5.35897 19.2522 5.34268 19.3408 5.24266 19.4317C5.24266 19.4321 5.23888 19.4358 5.23138 19.4417C5.22888 19.4446 4.21117 20.3375 4.09212 20.4416C3.988 20.5272 3.89497 20.5285 3.78101 20.4891L4.64558 21.4451L4.81024 21.3431L4.16909 20.634L5.55705 19.4169L5.33291 19.1688L5.3329 19.1689ZM14.8931 19.3167L14.6429 19.5532L15.0832 20.8539L15.6325 21.4163L15.6343 21.4152L15.8981 21.1653C15.7842 21.2047 15.6992 21.1848 15.6181 21.1176H15.6177L15.2613 20.7568L14.8731 19.6204C14.8629 19.5789 14.8313 19.5095 14.8931 19.3167L14.8931 19.3167ZM5.61608 19.4829L4.2963 20.6416L4.88687 21.2942L5.16669 21.1239C5.16669 21.1239 4.98456 21.1145 4.83775 20.9556L4.83156 20.9485C4.83156 20.9485 4.66855 20.7682 4.57139 20.6615C4.70338 20.545 5.43513 19.9018 5.55675 19.7965C5.5571 19.7965 5.55713 19.7965 5.55802 19.7956C5.56035 19.7938 5.563 19.7914 5.56621 19.7888C5.56621 19.7888 5.73341 19.6663 5.84094 19.7313L5.61788 19.4844L5.61606 19.4829L5.61608 19.4829ZM14.5711 19.6222L14.2589 19.9179C14.338 19.8824 14.3868 19.8878 14.4088 19.8939C14.4247 19.9029 14.455 19.9138 14.4928 20.0172L14.673 20.4981L14.1946 20.3048C14.1202 20.2673 14.0897 20.2195 14.0897 20.2195C14.0598 20.1671 14.0858 20.1108 14.1004 20.0684L13.7926 20.3592L13.7862 20.3658L14.976 20.8077L14.571 19.6221L14.5711 19.6222ZM6.25455 20.2213C6.30866 20.3157 6.31361 20.3837 6.24163 20.4981C6.24073 20.4982 5.60521 21.486 5.60521 21.486C5.39016 21.8251 5.49511 22.1783 5.88448 22.4232C6.26582 22.6629 6.66378 22.6204 6.88186 22.2827L7.51719 21.2952C7.58649 21.1916 7.67176 21.1531 7.76536 21.164L7.48262 20.9877L6.73412 22.1496C6.72359 22.1654 6.70556 22.1929 6.70556 22.1929C6.57481 22.3971 6.25771 22.43 5.99855 22.2675C5.90907 22.2117 5.83844 22.1399 5.78932 22.0612C5.78736 22.0583 5.78512 22.0562 5.78387 22.0528C5.6942 21.906 5.67936 21.7345 5.76312 21.6039C5.76312 21.6039 5.76898 21.5939 5.79023 21.5607L6.53891 20.3987L6.25454 20.2213L6.25455 20.2213ZM13.7155 20.433L13.4713 20.6636C13.6074 20.6191 13.6584 20.6282 13.7706 20.6609L14.9134 21.0871L15.2391 21.4236C15.341 21.5228 15.3369 21.6413 15.3038 21.7289L15.5691 21.4768L15.0198 20.9153L13.7155 20.433L13.7155 20.433ZM6.61393 20.4457L5.85416 21.626C5.73627 21.8086 5.82329 22.0596 6.04155 22.1957C6.25946 22.3317 6.52376 22.3088 6.64486 22.1239L7.40646 20.9406L7.12227 20.7622C7.18532 20.8628 7.17329 20.9405 7.10917 21.0398C7.10917 21.0398 6.70492 21.6677 6.49076 21.9994C6.4236 22.0958 6.26868 22.113 6.14562 22.0363C6.02363 21.9602 5.97334 21.8134 6.03246 21.7128C6.10123 21.6055 6.63582 20.775 6.63867 20.7718C6.64582 20.7595 6.64959 20.7534 6.64959 20.7534C6.70889 20.6626 6.78382 20.6182 6.89921 20.6242L6.61393 20.4457L6.61393 20.4457ZM12.7938 20.7992L12.9092 22.8554C12.9065 23.0512 12.8758 23.1631 12.8231 23.2344L13.1233 23.0788L12.9942 21.1721L14.5182 22.3559L14.8044 22.2069C14.6865 22.2037 14.5735 22.1339 14.4554 22.056L12.7936 20.7993L12.7938 20.7992ZM8.07604 21.2833C8.1482 21.3486 8.19202 21.4451 8.16683 21.5522C7.80769 23.0404 7.81074 23.0274 7.80877 23.036C7.78662 23.115 7.72473 23.2239 7.57862 23.2412L8.93333 23.5581L9.01066 23.3811L7.98561 23.1426L8.37023 21.5465L9.33957 21.7741L9.35285 21.5822L8.07601 21.2834L8.07604 21.2833ZM13.0919 21.3566L13.1545 22.2538L13.8089 21.915L13.0919 21.3566L13.0919 21.3566ZM12.011 21.3634L11.6851 21.4429L12.0224 22.7818C12.0224 22.7818 12.0893 22.9763 11.9855 23.1348C11.9112 23.2472 11.7954 23.332 11.6373 23.3713C11.4897 23.407 11.313 23.3908 11.1812 23.3041C11.1231 23.265 11.0949 23.2412 11.0329 23.1822L10.9177 23.372C11.2617 23.6997 11.6862 23.5565 11.6862 23.5565C11.8434 23.518 11.9797 23.4431 12.0796 23.3394C12.2123 23.202 12.2647 23.0246 12.2386 22.8433C12.2386 22.8396 12.2272 22.784 12.2228 22.7686L11.9355 21.6293C11.9026 21.4891 12.011 21.3634 12.011 21.3634L12.011 21.3634ZM11.5983 21.4648L11.2721 21.5438C11.3429 21.5552 11.4382 21.6301 11.4663 21.7443L11.7504 22.8748C11.7763 22.9807 11.6904 23.0749 11.5841 23.1037C11.4779 23.1336 11.394 23.1008 11.3913 23.1001C11.2732 23.0602 11.215 22.8798 11.215 22.8798L11.0771 23.1093C11.131 23.1703 11.2477 23.2453 11.2477 23.2453C11.4037 23.3394 11.5691 23.3022 11.6209 23.2895C11.8245 23.2399 11.9998 23.0611 11.9446 22.8382C11.9446 22.8363 11.5983 21.4648 11.5983 21.4648L11.5983 21.4648ZM8.43666 21.6531L8.28493 22.2805L9.06453 22.4625L9.13039 22.1909C9.13039 22.1909 9.03967 22.2891 8.87713 22.252L8.51561 22.1671L8.58439 21.8822L9.01958 21.984C9.2566 22.0405 9.31359 22.1662 9.31359 22.1662L9.33469 21.8629L8.43665 21.6531L8.43666 21.6531ZM13.2863 21.7206L13.5006 21.8903L13.3074 21.9899L13.2863 21.7206L13.2863 21.7206ZM13.8828 21.9759L13.1644 22.3486L13.2091 23.0346L13.2155 23.0314L13.5506 22.8572C13.4717 22.8458 13.4016 22.7766 13.3827 22.6687L13.3661 22.428L13.8337 22.1857L14.0378 22.342C14.0895 22.3836 14.1698 22.465 14.0868 22.5792L14.4254 22.4038L14.4323 22.4009L13.8828 21.9759H13.8828ZM8.27312 22.3686L8.1021 23.0787L9.04741 23.2985L9.17895 22.9986C9.10286 23.0431 9.0169 23.0912 8.83417 23.0538C8.83042 23.0538 8.34003 22.9391 8.34003 22.9391L8.42827 22.5724L8.77522 22.6533L8.7805 22.6546C8.94339 22.6986 8.97917 22.8173 8.97917 22.8173L9.04449 22.5489L8.27308 22.3687L8.27312 22.3686Z" fill="#134A8E"/>
<path d="M10.0986 10.5173C8.66605 10.5305 7.24101 11.0978 6.1841 12.2081C5.67059 12.7494 5.2917 13.3674 5.04755 14.0205C5.15829 14.0009 5.27094 13.9811 5.38632 13.9622C5.53153 13.6107 5.7179 13.2712 5.94778 12.9516C5.94778 12.9528 5.94869 12.9543 5.94869 12.9551C5.94976 12.9569 5.9518 12.959 5.95305 12.9612C5.96199 12.9533 5.97124 12.9451 5.98071 12.9367C6.00625 12.9147 6.03103 12.892 6.05603 12.8697C6.05371 12.8655 6.05125 12.8606 6.04875 12.8559C6.04393 12.848 6.04011 12.8398 6.03511 12.8319C6.07619 12.78 6.11703 12.7274 6.15901 12.6766C6.16705 12.6859 6.17295 12.6952 6.17902 12.7049C6.18903 12.72 6.1979 12.7347 6.20522 12.7484C6.24202 12.7197 6.28014 12.6911 6.31712 12.6628C6.30033 12.6283 6.27937 12.5955 6.25508 12.5649C6.27526 12.5414 6.29731 12.5186 6.31839 12.4949C6.34518 12.4657 6.37147 12.435 6.39844 12.4062H6.39899C6.39971 12.4062 6.39972 12.4062 6.39972 12.4055C6.44098 12.4524 6.46791 12.5012 6.48559 12.5436C6.51882 12.522 6.55171 12.5001 6.58476 12.4795C6.59172 12.4747 6.59781 12.4705 6.60513 12.4664C6.58602 12.4224 6.56202 12.3798 6.53308 12.3394C6.52256 12.3265 6.51287 12.3131 6.50234 12.301C6.54789 12.2558 6.59382 12.2121 6.6408 12.169C6.65294 12.1584 6.66358 12.1473 6.67573 12.1364C6.75003 12.208 6.78579 12.285 6.80473 12.3482C6.85099 12.3218 6.89805 12.2972 6.94609 12.2722C6.93181 12.2328 6.91311 12.1944 6.89097 12.1559C6.87275 12.1267 6.85196 12.0993 6.82856 12.0724C6.81767 12.0596 6.80596 12.0459 6.79381 12.0339C6.84793 11.9866 6.90383 11.9412 6.95992 11.8977C6.97778 11.9137 6.99275 11.9292 7.00686 11.9454C7.03919 11.9818 7.06412 12.0181 7.08091 12.0527C7.10199 12.0951 7.11304 12.1345 7.11912 12.169C7.11983 12.1757 7.12113 12.1818 7.12203 12.1887C7.12399 12.1868 7.12625 12.1864 7.12803 12.1857C7.17697 12.1626 7.22722 12.1414 7.27795 12.1215C7.28027 12.1206 7.28217 12.1193 7.28414 12.1183C7.2811 12.1012 7.27731 12.0841 7.27231 12.0662C7.24534 11.9661 7.1883 11.8666 7.10292 11.7904V11.7895C7.13829 11.7647 7.17327 11.7402 7.20881 11.7155C7.24596 11.6893 7.28412 11.6645 7.32234 11.6396C7.3152 11.6547 7.30727 11.6691 7.29924 11.6797C7.45641 11.8218 7.48438 11.9572 7.48027 12.0454C7.54028 12.0251 7.60042 12.0063 7.66257 11.9896C7.66025 11.9323 7.64708 11.8734 7.62618 11.8162C7.6035 11.7569 7.57059 11.6988 7.52629 11.6467C7.51629 11.6349 7.50533 11.623 7.49336 11.6113C7.50015 11.5935 7.50823 11.5697 7.51538 11.5412C7.51734 11.5328 7.52051 11.5247 7.52247 11.5154C7.62143 11.4575 7.72269 11.403 7.8254 11.3522C7.79754 11.4308 7.7655 11.5006 7.73352 11.5353C7.88951 11.7098 7.8936 11.8407 7.87253 11.9253L7.87089 11.9323V11.935C7.93394 11.9208 7.99671 11.9086 8.06065 11.8977C8.07976 11.7658 8.03993 11.6132 7.93384 11.4871C7.93581 11.4841 7.93697 11.48 7.93894 11.4767C7.94108 11.4732 7.94188 11.4702 7.94367 11.466C7.96671 11.4162 7.99522 11.3382 8.01844 11.2601C8.104 11.2219 8.19106 11.1875 8.27715 11.1541C8.30502 11.1428 8.33408 11.1313 8.36212 11.1214C8.32604 11.2249 8.27604 11.341 8.22603 11.4043C8.21907 11.4131 8.21171 11.4217 8.20493 11.428C8.29906 11.5275 8.34108 11.6467 8.35412 11.7422V11.7489V11.7496C8.3593 11.7934 8.35823 11.8312 8.35412 11.8587C8.40931 11.8534 8.46599 11.8507 8.52332 11.8478C8.52904 11.8472 8.53453 11.8472 8.54024 11.8465C8.54917 11.7983 8.5516 11.7452 8.54606 11.6919C8.54231 11.6467 8.53229 11.6012 8.5155 11.5581C8.4921 11.5023 8.45711 11.4516 8.40906 11.4112C8.45211 11.3383 8.521 11.1707 8.55243 11.0557C9.57124 10.7286 10.6768 10.7227 11.7027 11.0414C11.7073 11.0435 11.7117 11.0436 11.7165 11.0458C11.7254 11.049 11.7347 11.0518 11.7436 11.0544C12.0228 11.1441 12.2963 11.2586 12.5601 11.3963C12.6871 11.3567 12.8113 11.3165 12.9344 11.2723C12.0624 10.7587 11.0787 10.5083 10.0985 10.5173L10.0986 10.5173ZM8.96041 11.0509C8.89843 11.1768 8.80037 11.3525 8.72553 11.4043C8.85645 11.5855 8.86138 11.7617 8.82924 11.846C8.88961 11.8486 8.95031 11.8521 9.01336 11.8564C9.05462 11.7188 9.04562 11.5403 8.94149 11.414C8.99436 11.3491 9.0823 11.1805 9.13053 11.0686C9.07337 11.0614 9.01632 11.0554 8.96041 11.0509L8.96041 11.0509ZM9.51459 11.1313C9.43886 11.2418 9.31944 11.3878 9.2446 11.44C9.2596 11.4616 9.2734 11.4832 9.2859 11.5056C9.37163 11.6593 9.37863 11.8181 9.35576 11.9013C9.41471 11.911 9.47365 11.9209 9.5317 11.9312C9.57082 11.7897 9.54588 11.5995 9.43782 11.4753C9.49087 11.41 9.62401 11.2689 9.6858 11.1637C9.6299 11.1532 9.57176 11.1426 9.5146 11.1313L9.51459 11.1313ZM10.0013 11.2327C9.93376 11.3412 9.82691 11.4821 9.75511 11.5403C9.85478 11.6594 9.89702 11.8164 9.90685 11.9325C9.96704 11.9237 10.0292 11.915 10.0911 11.906C10.0838 11.7848 10.0449 11.6574 9.9627 11.5778C10.01 11.5086 10.1111 11.3766 10.1654 11.2723C10.1111 11.2593 10.057 11.2464 10.0013 11.2327V11.2327ZM10.5083 11.363C10.4498 11.4634 10.3504 11.5885 10.2804 11.6525C10.3363 11.7116 10.371 11.7854 10.3941 11.8614C10.4505 11.8522 10.5067 11.8436 10.5633 11.8347C10.5426 11.7865 10.5144 11.7422 10.4783 11.71C10.5214 11.638 10.6186 11.5136 10.6686 11.4083C10.6154 11.3935 10.5623 11.3775 10.5083 11.3629L10.5083 11.363ZM11.0185 11.5167C10.9746 11.5879 10.9083 11.671 10.8455 11.7347C10.8248 11.756 10.8033 11.7757 10.7845 11.7917C10.7845 11.7938 10.7873 11.7957 10.7885 11.7976C10.8777 11.7823 10.9674 11.767 11.0567 11.7508C11.0994 11.6937 11.1455 11.6298 11.1746 11.5679C11.1235 11.5503 11.0707 11.5337 11.0185 11.5167V11.5167ZM14.6844 12.6537L14.2858 13.2954L14.0857 13.6154L13.5882 13.4178C13.59 13.4204 13.6975 14.525 13.7125 14.6708C13.7146 14.6995 13.7145 14.7251 13.7125 14.748C13.7093 14.7851 13.7014 14.8147 13.689 14.8363C13.669 14.8705 13.638 14.8869 13.6021 14.8869C13.5942 14.8869 13.5854 14.8856 13.5773 14.8838C13.5584 14.8808 13.54 14.8729 13.5207 14.8632C13.499 14.8513 13.4782 14.8365 13.4582 14.8173C13.4551 14.8154 13.453 14.8128 13.4492 14.8098C13.351 14.7163 12.8365 14.2234 12.8365 14.2234L12.6747 14.6285L11.8236 14.4845L11.9011 15.4057L11.711 15.47L11.5696 15.5175L13.376 17.0515L13.0807 17.4025L13.1837 17.3935L14.554 17.284L14.6841 17.5297L14.7258 17.451L14.8142 17.284L15.078 17.305L15.3773 17.3294L16.2881 17.4025L15.9922 17.0515L17.7989 15.5175L17.6328 15.4614L17.4678 15.4057H17.4682L17.5444 14.4845L16.6946 14.6285L16.5323 14.2234C16.5323 14.2234 16.017 14.7162 15.919 14.8098C15.9163 14.8128 15.9133 14.8154 15.911 14.8173C15.8635 14.861 15.8112 14.8869 15.7661 14.8869C15.7572 14.8869 15.7489 14.8866 15.7409 14.8838C15.683 14.8699 15.6448 14.8039 15.6568 14.6708C15.6588 14.6455 15.6646 14.5908 15.6717 14.5199C15.7055 14.1771 15.78 13.4204 15.78 13.4177L15.2826 13.6153L14.6845 12.6536L14.6844 12.6537ZM4.76556 16.5875C4.92703 17.764 5.48532 18.897 6.43355 19.7722C7.27302 20.5466 8.29519 21.008 9.35182 21.1609C9.30449 21.0561 9.25463 20.9509 9.20427 20.8436C8.42516 20.701 7.67061 20.3797 7.01081 19.8769C7.03189 19.7638 7.06004 19.6712 7.09487 19.6433C7.10397 19.6346 7.11325 19.6322 7.12325 19.6336C7.02037 19.4779 7.02732 19.2548 7.05429 19.1477C7.04233 19.1424 7.03099 19.1369 7.02027 19.1321C6.98241 19.1149 6.94517 19.0981 6.90838 19.0809C6.86176 19.2182 6.87605 19.4177 6.95732 19.5603C6.91088 19.6342 6.88719 19.6955 6.8729 19.7681C6.85629 19.7539 6.83985 19.7398 6.82396 19.7264C6.76984 19.6819 6.71748 19.6365 6.66585 19.5891C6.65567 19.5802 6.64492 19.5712 6.63492 19.5617C6.63403 19.5614 6.63401 19.5614 6.63401 19.5603C6.63294 19.5596 6.63219 19.5596 6.63201 19.5587C6.6488 19.5154 6.66782 19.4775 6.68604 19.458C6.68765 19.4559 6.6899 19.4547 6.69187 19.4523C6.69329 19.451 6.695 19.449 6.69696 19.448C6.69768 19.4474 6.69844 19.447 6.69987 19.4462C6.70201 19.4449 6.70501 19.4444 6.70715 19.4433C6.71072 19.4424 6.71485 19.4431 6.71788 19.4442C6.7027 19.4147 6.69099 19.3849 6.68277 19.3543C6.64919 19.2442 6.65399 19.1322 6.67167 19.0483C6.6781 19.0177 6.68603 18.9902 6.69496 18.9693C6.64745 18.9427 6.60078 18.9159 6.55578 18.8881C6.48862 19.0183 6.47118 19.1963 6.55887 19.3498C6.55173 19.3613 6.54493 19.3743 6.5385 19.3873C6.53689 19.3903 6.53484 19.3931 6.53395 19.3968C6.52573 19.4115 6.51871 19.4272 6.51157 19.4442C6.47692 19.4098 6.44273 19.3751 6.40968 19.3401C6.37557 19.3055 6.34286 19.27 6.31071 19.2343C6.31392 19.2304 6.3175 19.2274 6.3209 19.2244C6.32893 19.2177 6.33667 19.2136 6.34364 19.2129C6.34739 19.2129 6.35044 19.2136 6.35455 19.2156C6.30079 19.0758 6.31987 18.9298 6.35255 18.8292C6.3597 18.8086 6.3678 18.7886 6.37548 18.7722C6.34565 18.7515 6.31652 18.7301 6.28669 18.7091C6.27222 18.6986 6.25677 18.6885 6.24248 18.6787C6.18943 18.7682 6.15797 18.8786 6.1728 18.9929C6.1778 19.0315 6.18874 19.0691 6.20464 19.1071V19.1074C6.20428 19.1074 6.20355 19.1083 6.20355 19.1085C6.20283 19.1094 6.20281 19.1094 6.20245 19.1105C6.15637 19.0565 6.11124 19.0009 6.06855 18.9455C6.04836 18.92 6.0276 18.8936 6.0076 18.867C6.0067 18.7717 6.0298 18.6787 6.05927 18.602C6.06623 18.585 6.07341 18.568 6.08056 18.5527C6.04055 18.5211 6.0016 18.4882 5.96303 18.4551C5.92337 18.5267 5.89334 18.609 5.88334 18.6934C5.84226 18.6345 5.80314 18.5742 5.76598 18.5132C5.77206 18.4882 5.78016 18.4638 5.78927 18.4402C5.80213 18.4037 5.81649 18.3692 5.83239 18.3379C5.79435 18.3033 5.75822 18.2683 5.72214 18.2331C5.70517 18.263 5.69113 18.2954 5.67738 18.3279C5.67434 18.3358 5.67096 18.3429 5.66828 18.3508C5.65489 18.3276 5.64311 18.3044 5.63007 18.2808C5.61507 18.2544 5.60034 18.2273 5.58623 18.2009C5.59855 18.1784 5.61139 18.1575 5.62425 18.1387C5.59121 18.0993 5.55945 18.0609 5.52819 18.0214C5.52534 18.0247 5.52215 18.0282 5.52001 18.0321C5.51608 18.0383 5.51231 18.043 5.50909 18.049C5.29369 17.6027 5.14799 17.1326 5.07189 16.6529C4.96794 16.6323 4.86571 16.6102 4.7655 16.5875L4.76556 16.5875ZM15.016 17.5014C14.9674 17.64 14.9143 17.7771 14.8534 17.9131C14.7784 18.0816 14.6922 18.2466 14.5972 18.4084C14.5551 18.321 14.5434 18.2345 14.5379 18.1682C14.49 18.17 14.4411 18.1726 14.3922 18.1759C14.4022 18.2529 14.4183 18.3241 14.4446 18.3909C14.4642 18.4401 14.4884 18.4882 14.5192 18.5358C14.3431 18.8144 14.137 19.081 13.9 19.3299C13.2906 19.9704 12.5519 20.4187 11.7613 20.6752C11.6813 20.7953 11.6005 20.9187 11.5192 21.0462C12.4806 20.8008 13.3852 20.2938 14.1141 19.5268C14.6784 18.9348 15.0782 18.2492 15.3173 17.5247L15.016 17.5014L15.016 17.5014ZM14.1831 18.1943C14.1349 18.1996 14.0858 18.2056 14.0368 18.2124C14.0608 18.3574 14.1179 18.4519 14.1899 18.5742C14.1341 18.6706 14.0697 18.8116 14.0276 18.9217C14.0808 18.9121 14.1328 18.9033 14.1848 18.8965C14.233 18.7793 14.294 18.648 14.3441 18.5552C14.2289 18.4233 14.197 18.2851 14.1831 18.1944V18.1943ZM13.7346 18.2698C13.6896 18.3127 13.6413 18.3603 13.5895 18.4126C13.6236 18.5012 13.6782 18.5724 13.7647 18.6421C13.7539 18.6637 13.7424 18.6901 13.7297 18.7189C13.6933 18.8048 13.6515 18.9159 13.6213 19.0086C13.6824 18.9939 13.7436 18.9799 13.8036 18.9662C13.8547 18.8357 13.9157 18.6885 13.9559 18.6059C13.7974 18.5067 13.7525 18.3611 13.7346 18.2698ZM13.3706 18.6381C13.3406 18.6698 13.3096 18.704 13.2772 18.7386C13.2876 18.7446 13.2986 18.7504 13.3096 18.7553C13.2718 18.8596 13.2235 18.9917 13.1915 19.124C13.2485 19.1082 13.3073 19.0914 13.3655 19.0749C13.4073 18.9379 13.4596 18.786 13.5036 18.7033C13.4507 18.6886 13.4074 18.6659 13.3706 18.6381L13.3706 18.6381ZM7.3264 19.2539C7.28353 19.4099 7.29254 19.6434 7.42847 19.7496C7.37238 19.8348 7.35263 19.929 7.34441 20.0929C7.39657 20.1093 7.44929 20.1243 7.50252 20.1377C7.52252 19.9247 7.55174 19.793 7.61568 19.803C7.47672 19.7043 7.47146 19.4334 7.49415 19.308C7.43735 19.2915 7.38177 19.2738 7.3264 19.2539L7.3264 19.2539ZM7.76178 19.3772C7.73766 19.5172 7.7612 19.7175 7.87094 19.8276C7.88684 19.8432 7.90422 19.8568 7.92297 19.869C7.87993 19.9537 7.87241 20.0699 7.88295 20.2206C7.93796 20.2296 7.99497 20.2378 8.05106 20.2434C8.04606 20.0591 8.05898 19.8939 8.12292 19.8957C7.95396 19.7783 7.92702 19.5299 7.93899 19.4116C7.87915 19.4008 7.81965 19.3893 7.76178 19.3772L7.76178 19.3772ZM8.25919 19.4499C8.25687 19.6136 8.32284 19.8462 8.48716 19.9162C8.46019 20.0234 8.46031 20.1459 8.48407 20.2869C8.54033 20.2859 8.59611 20.2847 8.65309 20.2821C8.63327 20.1192 8.62732 19.9152 8.68912 19.9093C8.51104 19.8106 8.44775 19.5794 8.44131 19.4599C8.38023 19.458 8.31921 19.4552 8.25919 19.4499L8.25919 19.4499Z" fill="#E8291C"/>
<path d="M3.61745 45.5328C3.0395 45.6354 2.44207 45.7409 1.93118 45.4919C1.56668 45.3145 1.2737 44.826 1.26433 44.3802C1.25612 43.9763 1.31054 43.5563 1.45879 43.114C1.50077 43.1581 1.55214 43.1831 1.60328 43.2013C1.71727 43.2422 1.88193 43.2404 2.01914 43.1946C2.23166 43.1244 2.4383 43.0556 2.6405 42.9879C2.62877 42.9995 2.61751 43.0101 2.60602 43.0228C2.17513 43.4995 1.9957 44.0631 2.10453 44.5836C2.04237 44.6208 1.95605 44.6674 1.86387 44.7106C1.86387 44.7106 1.62603 44.8222 1.61454 44.8282L1.55004 44.8663V44.9404C1.54981 45.0148 1.54981 45.0148 1.83761 45.185C1.83855 45.1859 1.95724 45.2622 2.02245 45.3961L2.09915 45.5541L2.27695 45.5497C2.43951 45.5458 2.5685 45.459 2.6485 45.3897C2.92339 45.5082 3.21402 45.4804 3.46876 45.3111C3.68431 45.4375 3.90809 45.4624 4.02396 45.4659C3.88697 45.4855 3.75069 45.5095 3.61746 45.5329L3.61745 45.5328ZM13.7501 42.589H13.0227L13.0166 42.6119C12.9214 42.5969 12.8172 42.5989 12.7091 42.6188C12.3059 42.6934 11.9972 42.9336 11.784 43.3339C11.8079 43.1253 11.7835 42.963 11.6834 42.8371C11.5672 42.6911 11.4038 42.6096 11.2102 42.6012C11.1396 42.5982 11.066 42.6059 10.9907 42.6227L10.9961 42.6001H9.91313L9.91383 42.598H9.76934C9.96542 42.5033 10.101 42.3058 10.101 42.0767C10.101 41.7566 9.83642 41.496 9.51132 41.496C9.26315 41.496 9.05088 41.6478 8.96385 41.8619L9.12735 41.2316L7.85861 41.7242L7.65103 42.6188C7.21076 42.5562 6.91334 42.7839 6.72592 43.0117C6.75923 42.9516 6.81177 42.8567 6.80731 42.8636L6.93609 42.6604L5.68541 42.6599L5.72036 42.529H4.71293C4.71293 42.529 4.52435 43.2746 4.43826 43.5393C4.48212 43.3478 4.65991 42.5989 4.65991 42.5989H3.79251C5.64364 41.9677 6.94994 41.4886 7.68581 41.1704C8.02968 41.0216 9.75857 40.4026 10.3373 40.1972C10.7741 40.0425 11.3006 39.863 11.902 39.6637C12.3001 40.2605 13.3195 41.7787 13.9306 42.5912C13.8926 42.5891 13.837 42.5891 13.7502 42.5891L13.7501 42.589ZM9.64495 38.7588L9.72212 38.7916L9.15308 39.3312C8.92555 39.3312 8.84792 39.5546 8.84792 39.5546L8.44073 39.6666C8.4222 39.6483 8.32345 39.64 8.32345 39.64L8.83339 39.2039C9.25138 39.0769 9.64496 38.7588 9.64496 38.7588H9.64495ZM10.1371 38.9436L10.6289 39.1069L9.94636 39.2767C9.94636 39.2767 9.89101 39.2402 9.81736 39.2344L10.1371 38.9436L10.1371 38.9436ZM17.4978 44.4714C17.366 44.4065 17.2253 44.3697 17.0775 44.3612C17.0641 44.1741 17.0024 43.9923 16.9494 43.8401C16.9269 43.774 16.9051 43.7117 16.8912 43.6597C16.8249 43.413 16.807 43.3126 16.8664 43.1525C16.993 42.8116 16.5521 42.6157 16.3778 42.5381C16.3778 42.5381 16.3238 42.5141 16.3241 42.5141C16.2727 42.491 16.2432 42.502 16.165 42.5318C16.1017 42.5561 16.0288 42.6046 15.9326 42.6915C16.0126 42.5621 16.064 42.3995 16.0773 42.2272C16.1289 42.1902 16.177 42.132 16.2159 42.0551C16.3475 41.7971 16.3532 41.3677 15.976 40.9367C15.8231 40.7616 14.7488 39.8453 13.8038 39.048L13.8003 39.045C14.1324 38.9394 14.6409 38.7782 14.6367 38.7794C14.708 38.7604 14.8227 38.7082 14.928 38.802C15.0214 38.8912 15.2039 38.9237 15.3617 38.8142C15.6355 38.6246 15.4837 38.2077 15.4276 38.0522C15.3291 37.779 15.19 37.6762 15.0906 37.6379C14.9944 37.6007 14.8922 37.5986 14.8042 37.6448C14.6672 37.7166 14.6339 37.8323 14.6182 37.9266C14.6006 38.0289 14.4345 38.0529 14.1392 38.1262C14.1392 38.1262 13.1268 38.3982 13.0548 38.4183L13.0494 38.414L12.8043 38.2088C12.7567 38.131 12.6626 37.9922 12.5519 37.9035C12.5325 37.5917 12.2866 37.2205 12.0852 37.069C12.0746 36.8518 11.898 36.5377 11.7096 36.4232C10.864 34.9539 10.1087 34.0109 9.40178 33.5422L9.37855 33.5267C9.25189 33.4431 9.2411 33.4313 9.23641 33.3662C9.19278 32.7874 9.03539 32.2321 8.83555 31.9346C8.91459 31.8096 9.03398 31.5872 9.11632 31.2786C9.11632 31.2786 9.20568 30.9458 9.20568 30.946L9.10342 31.0125C9.12922 30.9287 9.15525 30.8284 9.18035 30.707L9.1827 30.6908C9.1902 30.591 9.12171 30.5536 9.10037 30.5443C9.09169 30.5404 9.08325 30.5386 9.0748 30.5367C9.08231 30.4263 9.07105 30.2933 9.01288 30.1464L8.93453 29.9477L8.78981 30.1062C8.49379 30.4307 8.04344 30.5998 7.6461 30.7492C7.55509 30.7834 7.46901 30.816 7.38739 30.849C6.7393 31.1128 6.33843 31.3953 5.96056 32.1935C5.95165 32.2012 5.94179 32.2092 5.931 32.2183C5.7593 32.3603 5.4016 32.6562 5.19918 33.2424L5.16564 33.3396L5.25337 33.3953C5.46188 33.5265 5.68754 33.6191 5.97229 33.7173C4.9034 36.0702 6.93821 37.4663 8.64089 38.3214C8.54238 38.4999 8.46333 38.6671 8.44246 38.8639L7.67944 39.6557C7.60625 39.6747 7.46763 39.7195 7.38695 39.804C7.3595 39.8327 7.33394 39.8717 7.31025 39.9195C7.28913 39.9241 7.2706 39.9278 7.25442 39.9311C6.77756 40.0253 6.01548 40.1969 3.99315 40.7501C3.70066 40.4859 3.21394 40.3166 2.73496 40.3166C1.97639 40.3166 1.48641 40.718 0.984204 41.3206C0.259179 42.1905 -0.559916 44.572 0.525404 45.8326C0.71094 46.0481 1.40876 46.7436 2.60482 46.6535C2.92475 46.6295 3.16449 46.5773 3.37582 46.5315C3.79334 46.4407 3.98403 46.3994 4.3999 46.6745L4.56597 46.7847L4.72312 46.6623C4.96002 46.4779 5.3623 46.5398 5.68623 46.614L6.31391 46.7581L5.98482 46.2125C5.54573 45.4847 4.92343 45.3803 4.29598 45.4341C4.64922 45.3371 4.88379 45.0281 5.05478 44.662C5.03202 44.9031 5.07424 45.1595 5.30576 45.3214C5.67871 45.5824 6.14618 45.4678 6.49193 45.2572C6.65542 45.3946 6.87496 45.475 7.07715 45.4662C7.25283 45.463 7.40365 45.4288 7.54487 45.3611C7.63845 45.4263 7.74307 45.4651 7.85753 45.4762C8.04705 45.4942 8.2502 45.4339 8.462 45.2976C8.57224 45.4062 8.71673 45.4658 8.88115 45.4665C8.95785 45.4668 9.03783 45.4565 9.11876 45.4367L9.11055 45.4665H10.2524L10.4058 44.9137C10.4194 45.0227 10.4527 45.1274 10.517 45.2188C10.5883 45.32 10.7262 45.4448 10.9802 45.4655C11.2523 45.4877 11.5784 45.387 11.8415 45.205C12.1275 45.4822 12.4882 45.5274 12.917 45.338C13.0017 45.4099 13.1478 45.4946 13.3676 45.4648C13.5182 45.4551 13.6697 45.3918 13.8276 45.2745C13.9575 45.4013 14.125 45.4692 14.3126 45.4665C14.6213 45.4618 14.8807 45.2801 15.0846 45.093C15.309 45.3191 15.6494 45.5496 16.172 45.4628C16.2621 45.4475 16.3359 45.4281 16.4014 45.4108C16.5743 45.3653 16.5963 45.3595 16.7342 45.4743L17.1421 45.8145L17.1846 45.3006C17.1926 45.2747 17.2493 45.1188 17.5261 44.9391L17.9239 44.6809L17.498 44.4714L17.4978 44.4714Z" fill="white"/>
<path d="M9.96967 42.0768C9.96967 41.8289 9.76489 41.6271 9.51322 41.6271C9.26154 41.6271 9.05652 41.8289 9.05652 42.0768C9.05652 42.3246 9.26152 42.5263 9.51322 42.5263C9.76489 42.5263 9.96967 42.3246 9.96967 42.0768V42.0768ZM17.44 44.5886C17.2608 44.5004 17.0859 44.4838 16.9475 44.4919C16.9639 44.2849 16.8891 44.0678 16.825 43.8825C16.8016 43.8142 16.7793 43.7497 16.764 43.6931C16.6984 43.4483 16.6674 43.3113 16.7432 43.1076C16.8271 42.881 16.4809 42.7272 16.3331 42.6611L16.2703 42.6334C16.27 42.6331 16.2147 42.6542 16.2147 42.6542C16.0219 42.7277 15.6281 43.1892 14.922 44.0715C14.8392 44.1752 14.7553 44.2803 14.688 44.363C14.7316 44.1673 14.873 43.5342 14.941 43.2303C15.2131 43.2547 15.4228 43.085 15.4737 42.8295C15.6996 42.8845 15.9501 42.5574 15.9501 42.1414C16.069 42.1493 16.4087 41.6303 15.8769 41.0221C15.7148 40.8369 14.4222 39.74 13.5374 38.995L13.5344 38.992L14.6038 38.6527C14.6699 38.6352 14.7914 38.6072 14.851 38.6121C14.8897 38.6153 14.9723 38.6707 15.0126 38.7144C15.0515 38.7518 15.159 38.7987 15.2849 38.7084C15.4555 38.5862 15.3774 38.3005 15.3037 38.0961C15.2223 37.8697 15.1207 37.772 15.0473 37.7436C14.9873 37.7205 14.9179 37.7138 14.851 37.7477C14.6978 37.8258 14.7687 37.9896 14.6847 38.0519C14.6847 38.0519 14.6603 38.1249 14.1837 38.2393L13.0885 38.5458L13.0242 38.5636L13.0191 38.5592C12.8242 38.3959 12.7031 38.2949 12.7031 38.2949C12.6262 38.1654 12.5176 38.0242 12.4207 37.9713C12.4428 37.6542 12.1158 37.2135 11.9488 37.137C11.9945 36.9977 11.8029 36.6028 11.6143 36.5206C11.0122 35.4703 10.1957 34.2256 9.32899 33.6509C9.1906 33.5592 9.11578 33.5179 9.10522 33.3758C9.05666 32.7272 8.86995 32.1678 8.6755 31.938C8.74704 31.8387 8.89411 31.6008 8.98933 31.2455C8.98933 31.2455 8.87862 31.3176 8.79394 31.3441C8.83944 31.2929 8.95133 31.1672 9.05149 30.681C9.05595 30.6224 9.00528 30.7323 8.88518 30.8004C8.90488 30.7152 9.00692 30.4888 8.89058 30.1941C8.50261 30.6189 7.88149 30.7905 7.43981 30.9702C6.76921 31.243 6.41855 31.5275 6.07021 32.2748C5.94683 32.3842 5.54174 32.6628 5.32666 33.2846C5.54105 33.4197 5.77419 33.5121 6.10492 33.6234C6.10492 33.6234 6.1075 33.7278 6.10938 33.7396C5.10429 35.9022 6.76145 37.2498 8.82582 38.2656C8.69282 38.501 8.58376 38.6883 8.5718 38.9216L7.7506 39.7741C7.7506 39.7741 7.56343 39.812 7.48554 39.8937C7.45129 39.9298 7.42361 39.9894 7.40649 40.0333C7.35817 40.0439 7.31619 40.0529 7.28217 40.0596C6.78209 40.1584 5.97708 40.3432 3.95581 40.8964C3.94901 40.8895 3.94244 40.8816 3.9354 40.8747C3.67175 40.6155 3.20123 40.4476 2.73656 40.4476C2.03006 40.4476 1.56681 40.8299 1.08859 41.4036C0.387483 42.2451 -0.410479 44.541 0.628381 45.7476C0.803593 45.9511 1.46317 46.608 2.59592 46.5228C2.90671 46.4992 3.14151 46.4484 3.34862 46.4033C3.77669 46.3103 4.01243 46.2592 4.47568 46.5657L4.56129 46.6223L4.64221 46.5593C4.92346 46.3403 5.36513 46.4052 5.71791 46.4863L6.0416 46.5604L5.87177 46.2793C5.32033 45.3653 4.4677 45.5162 3.64294 45.6621C3.04387 45.7682 2.4244 45.8776 1.87417 45.6097C1.46228 45.4092 1.14375 44.8817 1.13319 44.383C1.1231 43.8917 1.23592 43.3461 1.40902 42.8768C1.54507 43.0493 1.71818 43.1424 1.87462 43.1017C1.89573 43.0962 1.91497 43.0888 1.93373 43.0805C1.94874 43.0784 1.96399 43.0754 1.97853 43.0706C4.78262 42.1404 6.68552 41.4604 7.63395 41.0505C7.98133 40.9004 9.71427 40.2797 10.2939 40.0741C10.8074 39.8919 11.3898 39.6951 11.9588 39.5071C12.3011 40.0217 13.6507 42.04 14.2372 42.7694C14.1215 43.4401 13.9205 44.2389 13.5795 44.4454C13.5652 44.4544 13.5476 44.4655 13.5323 44.4747C13.6064 44.0832 13.8511 43.0482 13.8896 42.8928L13.932 42.7202L13.1277 42.7199L13.1141 42.7721C13.0097 42.731 12.8807 42.7209 12.7353 42.7477C12.1128 42.8629 11.7349 43.4279 11.6127 44.4268C11.6103 44.4446 11.6082 44.4631 11.6061 44.4776C11.4846 44.6151 11.3892 44.6416 11.3605 44.631C11.3502 44.6273 11.3483 44.6049 11.349 44.592C11.353 44.4739 11.4185 44.2513 11.482 44.0362C11.6429 43.4888 11.737 43.1149 11.5806 42.9178C11.4891 42.8028 11.3596 42.7388 11.2062 42.7324C11.0716 42.7266 10.9332 42.7658 10.8074 42.8277L10.8302 42.7312H9.99587L9.97242 42.8423C9.87766 43.2952 9.6011 44.2543 9.41136 44.4733C9.37383 44.5165 9.29994 44.5433 9.24857 44.5504C9.30088 44.3026 9.53733 43.4441 9.69001 42.9062L9.74021 42.7292H8.89415L8.86929 42.838C8.86647 42.8501 8.59063 44.056 8.37553 44.4255C8.31337 44.5318 8.25567 44.5611 8.23386 44.5544C8.21932 44.55 8.20548 44.5274 8.20759 44.4983C8.2287 44.2158 8.69102 42.3913 8.86717 41.712L8.93566 41.4477L7.97467 41.821L7.75349 42.7754C7.72487 42.7659 7.69297 42.7576 7.65685 42.7518C7.03855 42.6493 6.73737 43.2045 6.62407 43.4136C6.47888 43.681 6.33252 44.1213 6.31891 44.4712C6.22931 44.5752 6.12001 44.6544 6.08318 44.6495C6.05221 44.6456 6.04424 44.6347 6.0372 44.6211C5.92016 44.3945 6.28677 43.5351 6.58467 42.9971L6.69843 42.7909L5.51461 42.7912L5.54956 42.6602H4.82055L4.79522 42.7681C4.64651 43.3968 4.38027 44.2209 4.14619 44.5447C4.11804 44.5835 4.09365 44.6041 4.07699 44.614C4.09154 44.465 4.27802 43.6342 4.45299 42.9013L4.49403 42.7299H3.66087L3.62546 42.8632C3.35548 42.765 3.00177 42.7842 2.70739 43.1101C2.27814 43.5853 2.11676 44.1396 2.25726 44.6426C2.19487 44.6888 2.05742 44.7664 1.92278 44.8292L1.68516 44.9405L1.91082 45.0743C1.91151 45.075 2.06094 45.1674 2.14443 45.3394L2.18408 45.421L2.27555 45.4187C2.42826 45.415 2.54764 45.3113 2.62505 45.2316C2.90465 45.3873 3.21099 45.3579 3.46666 45.1514C3.6977 45.3201 3.96932 45.3351 4.05635 45.3351C4.77105 45.3351 5.04455 44.4033 5.24393 43.7226C5.27067 43.632 5.296 43.5456 5.32063 43.4676H5.59436C5.57747 43.508 5.55988 43.5498 5.54182 43.5927C5.46207 43.781 5.372 43.9946 5.30233 44.2025C5.22516 44.4342 5.04384 44.9763 5.38443 45.2144C5.72008 45.4491 6.17583 45.3244 6.50891 45.0902C6.66724 45.2676 6.89922 45.3426 7.07631 45.335C7.26209 45.3315 7.41665 45.2902 7.56091 45.2045C7.65051 45.2865 7.75465 45.3341 7.87217 45.3454C8.09172 45.3664 8.31173 45.253 8.48837 45.1202C8.57703 45.2572 8.71355 45.3343 8.88336 45.335C9.02386 45.3358 9.17234 45.2964 9.31683 45.2248L9.28634 45.335H10.1526L10.4329 44.3245C10.5952 43.681 10.7575 43.6064 10.7887 43.5976C10.8025 43.5939 10.8138 43.5973 10.8215 43.6017C10.8208 43.6438 10.7852 43.7512 10.7531 43.8477C10.724 43.9351 10.6878 44.0436 10.6508 44.1737L10.64 44.2109C10.5675 44.4633 10.446 44.8858 10.628 45.144C10.6829 45.2221 10.7906 45.3182 10.9928 45.3346C11.2703 45.3574 11.6153 45.2304 11.8588 45.0283C12.2059 45.4473 12.623 45.3429 12.9455 45.1803C13.0346 45.2775 13.1547 45.3616 13.3602 45.3339C13.5408 45.3221 13.7062 45.2147 13.8457 45.0918C13.9567 45.2512 14.1195 45.3378 14.312 45.335C14.6247 45.3306 14.886 45.11 15.0917 44.9047C15.3429 45.1923 15.6554 45.4156 16.1512 45.3332C16.2352 45.3191 16.3063 45.3006 16.3686 45.2842C16.5539 45.2352 16.6306 45.2149 16.8218 45.3741L17.032 45.5494L17.0545 45.2793C17.0542 45.2807 17.088 45.0673 17.4544 44.8294L17.6594 44.6966L17.4401 44.5885L17.44 44.5886ZM9.24363 39.4179C9.14558 39.4369 9.09797 39.4505 9.03136 39.5112C8.98445 39.5537 8.95278 39.6133 8.93566 39.6577C8.75082 39.705 8.56013 39.7531 8.37505 39.7995C8.33283 39.775 8.25191 39.7427 8.12665 39.7515C8.11492 39.7506 8.08185 39.7448 8.08442 39.7106C8.08677 39.6808 8.77568 39.0666 8.77568 39.0666C8.96825 39.0278 9.67381 38.6241 9.67381 38.6241L9.88961 38.7109L9.87366 38.7458L9.84293 38.7996L9.2842 39.3837C9.27224 39.3969 9.26074 39.4147 9.24362 39.4179L9.24363 39.4179ZM9.89006 39.4108C9.84151 39.3754 9.78991 39.3549 9.74229 39.3556C9.56332 39.3586 9.62407 39.2944 9.66489 39.2489L10.1439 38.8084C10.1439 38.8084 10.5215 38.9629 10.9749 39.1195C10.3181 39.2969 9.96158 39.3918 9.89006 39.4108L9.89006 39.4108ZM3.08987 44.5791C3.088 44.5791 3.08542 44.5791 3.07885 44.571C3.06947 44.5592 2.99159 44.4458 3.09316 44.0474C3.16798 43.7536 3.278 43.5565 3.40254 43.4928C3.42647 43.4806 3.46024 43.4679 3.50809 43.4697C3.44406 44.0167 3.26744 44.5791 3.08988 44.5791L3.08987 44.5791ZM7.50273 44.0469C7.46684 44.1876 7.43002 44.3331 7.39694 44.4828C7.39225 44.5045 7.33502 44.5491 7.25574 44.5565C7.22712 44.5594 7.17552 44.5572 7.16426 44.5313C7.09272 44.3687 7.19123 43.8448 7.42275 43.5743C7.49077 43.4947 7.55809 43.454 7.6233 43.4517C7.62588 43.5626 7.55551 43.8388 7.50274 44.0469L7.50273 44.0469ZM12.5151 44.5837C12.5132 44.5837 12.5104 44.5837 12.504 44.5752C12.4947 44.5639 12.417 44.4502 12.5184 44.0518C12.5951 43.7517 12.6966 43.5677 12.8209 43.5046C12.8629 43.4833 12.9108 43.4776 12.9636 43.4838C12.8906 44.0352 12.7037 44.5837 12.5151 44.5837L12.5151 44.5837ZM16.1639 44.6103C16.1311 44.6417 16.0682 44.6627 16.0011 44.6641C15.9178 44.6659 15.8407 44.6396 15.7902 44.5916C15.5327 44.3537 15.5327 44.3537 15.6568 44.195C15.737 44.0927 15.8071 43.9973 15.8754 43.9049C15.9352 43.8231 15.9922 43.7469 16.0487 43.675C16.0684 43.8171 16.1097 43.949 16.1487 44.0726C16.2289 44.3273 16.269 44.4791 16.1639 44.6103" fill="#14264B"/>
<path d="M7.1892 32.8274C7.14534 32.8971 7.06418 32.9413 6.97505 32.9352C6.84769 32.9265 6.75174 32.8177 6.76043 32.6923C6.76958 32.5664 6.88006 32.4719 7.00766 32.4809C7.09187 32.4867 7.16271 32.5364 7.19811 32.6059C7.03884 32.589 7.00413 32.7405 7.00413 32.7405C6.90093 32.616 7.03416 32.5442 7.03416 32.5442C6.94549 32.5327 6.86129 32.5994 6.85401 32.6994C6.84697 32.7999 6.92367 32.8867 7.02547 32.8937C7.09419 32.8985 7.1533 32.8764 7.18919 32.8274" fill="white"/>
<path d="M8.78965 30.4819C8.45116 30.8314 7.91465 30.9454 7.45577 31.1355C6.78339 31.4143 6.43411 31.8447 6.26008 32.2606C6.32536 32.3705 6.73349 32.3807 6.79465 32.3449C6.8988 32.2838 7.04001 32.2532 7.15276 32.3174C7.23512 32.3642 7.27969 32.411 7.31723 32.4357C7.4169 32.4775 7.55605 32.5121 7.65924 32.4881C7.20508 32.9367 7.15276 33.5254 7.19539 33.625C6.66107 33.625 6.12493 34.3373 6.02719 34.5295C5.45581 36.6487 8.71759 38.0453 9.04131 38.1937C8.85299 38.49 8.69373 38.7272 8.70778 38.8374C8.71905 38.9254 8.76955 38.9278 8.87358 38.9071C9.11192 38.7747 9.5324 38.5852 9.68076 38.4158C9.77074 38.3133 9.67749 38.1641 9.63341 38.1155C9.58605 38.0629 9.6133 38.0169 9.7223 38.0825C9.82572 38.1686 9.84437 38.2164 9.87707 38.2919C9.9237 38.4012 9.79024 38.5176 9.79024 38.5176C10.1573 38.6809 11.4124 39.1672 11.801 39.2429L11.3798 38.5712C10.6146 38.2705 9.53858 37.8163 8.92808 37.5179C7.98162 37.0547 6.41498 36.0904 7.19612 34.6131C7.42429 34.2368 7.511 34.2293 7.54334 34.3173C7.54552 34.3263 7.53873 34.3515 7.52917 34.3564C7.51463 34.371 7.41169 34.4685 7.31577 34.669C6.58162 36.0126 8.10079 36.9756 8.99662 37.4033C10.2936 38.0223 11.4941 38.4991 12.2847 38.7604C12.4058 38.8003 12.516 38.8411 12.602 38.8652C12.8418 38.9346 12.533 38.1165 12.2302 38.0324C10.626 37.5681 9.08176 36.8757 8.65413 36.46C8.39751 36.43 7.71252 36.2245 7.6011 35.3107C7.59662 35.286 7.59783 35.2648 7.6292 35.2578C7.65827 35.2513 7.67014 35.2722 7.67268 35.2848C7.86887 36.1143 8.4428 36.3354 8.68538 36.3411C8.81957 36.3442 9.0309 36.2125 8.97555 36.1807C8.55918 35.9428 8.3252 35.4637 8.30873 35.4141C8.29796 35.3818 8.31019 35.373 8.33078 35.3621C8.35003 35.3522 8.37232 35.3601 8.39327 35.3919C8.50069 35.556 8.89586 36.1972 9.48105 36.2147C9.63583 36.2193 9.80611 36.214 9.84062 36.0775C9.84062 36.0775 9.34566 35.8529 9.10283 35.4576C9.09436 35.445 9.08745 35.4209 9.1187 35.4022C9.15055 35.3833 9.17514 35.4157 9.18967 35.429C9.66223 35.9064 10.0417 36.1003 10.2712 36.0764C10.3639 36.0705 10.4288 36.0052 10.4322 35.9591C10.4446 35.7857 10.2664 35.6796 10.2196 35.6482C10.2128 35.6438 10.2092 35.6281 10.2169 35.6179C10.2239 35.608 10.242 35.6029 10.2657 35.6142C10.3584 35.6576 10.5397 35.786 10.5246 35.9882C10.5218 36.0241 10.5171 36.048 10.4896 36.0775C10.7578 36.2164 11.2141 36.395 11.4262 36.4598C10.7757 35.3859 10.0567 34.2568 9.11967 33.6944C9.09448 33.7746 9.17283 33.957 9.07946 33.9129C9.01467 33.8824 8.95811 33.6165 8.95569 33.4967C8.94346 32.8768 8.77088 32.3598 8.54078 32.0624C8.41349 32.1605 8.18242 32.2103 8.18339 32.2117C8.64432 31.8091 8.70354 31.5266 8.70354 31.5266C8.56912 31.6289 8.24636 31.77 8.07839 31.7987C8.07839 31.7987 8.60436 31.4961 8.81545 30.9564C8.81545 30.9518 8.47986 31.2806 7.98901 31.3899C7.98877 31.3892 8.80467 31.0231 8.78965 30.4819V30.4819ZM9.9478 36.1159C9.9386 36.1743 9.92067 36.2299 9.82718 36.2714C10.6821 36.7718 11.5947 37.0448 11.7949 37.1018C11.8361 37.0727 11.7317 36.6882 11.4453 36.5883C11.0179 36.4386 10.6619 36.2901 10.4092 36.134C10.3201 36.1823 10.1877 36.2108 9.9478 36.1159V36.1159ZM9.10405 36.2452C9.09412 36.316 8.90555 36.4207 8.82065 36.4354C9.4354 36.9501 11.6007 37.744 12.2193 37.8868C12.3186 37.9097 12.1745 37.4711 11.902 37.2914C11.7029 37.1593 10.4517 36.8744 9.65896 36.3124C9.52526 36.3339 9.35874 36.3389 9.10405 36.2452ZM12.7921 38.547C12.8176 38.6015 12.8309 38.6721 12.843 38.7377C12.952 39.2458 12.562 38.9644 11.5664 38.6343C12.3646 39.8755 13.5805 41.7086 14.2684 42.5658C14.3072 42.313 14.335 42.0912 14.352 41.9469L14.3665 41.824L14.5106 41.7692L12.6359 39.4018H12.803C12.803 39.4018 13.8712 40.7612 14.6463 41.7173L15.1828 41.5106C14.3968 40.6918 13.0888 39.3615 13.0888 39.3615L13.2596 39.3659C13.2584 39.3524 15.7932 41.9445 15.7932 41.9445C15.9324 42.0983 16.1686 41.5773 15.7883 41.1604C15.5776 40.8291 12.7921 38.547 12.7921 38.547ZM2.73477 40.5873C2.12802 40.5873 1.69894 40.8894 1.19634 41.4927C0.473174 42.3607 -0.223521 44.5455 0.734838 45.6582C1.05595 46.0315 1.70451 46.4501 2.58342 46.3845C3.54441 46.3117 3.80527 45.9563 4.55263 46.4501C4.90444 46.177 5.44083 46.2807 5.74832 46.3511C4.86944 44.8937 3.18775 46.4059 1.80967 45.7357C1.33214 45.5031 1.00113 44.92 0.989866 44.3869C0.978373 43.8478 1.11027 43.248 1.31107 42.7352C1.26723 42.6553 1.23089 42.5658 1.2051 42.4704C1.09913 42.0745 1.23247 41.6778 1.46839 41.5884C1.48122 41.5824 1.49503 41.5772 1.51005 41.5734C1.74851 41.5054 1.97643 41.4474 2.19527 41.386C2.27193 41.3189 2.34944 41.2615 2.42683 41.2167C2.70247 41.0581 3.22941 41.0514 3.53714 41.2721C3.39423 41.4375 3.27107 41.6627 3.47332 41.8479C3.63136 41.9982 3.89162 41.9361 3.99868 41.7577C4.16351 41.4815 4.02896 41.171 3.83373 40.9737C3.59915 40.743 3.1657 40.5873 2.7348 40.5873H2.73477ZM15.2912 41.6238L15.1386 42.3178C15.2972 42.5038 15.4038 42.6231 15.4292 42.6338C15.6739 42.7411 15.8495 42.2641 15.755 42.1282C15.7235 42.0816 15.5431 41.8884 15.2912 41.6238V41.6238ZM8.72752 41.6778L8.09365 41.9242L7.83799 43.0274C7.83799 43.0274 7.83569 42.9236 7.63078 42.889C7.18013 42.8151 6.93017 43.1407 6.74657 43.4793C6.60936 43.7322 6.45676 44.1889 6.45676 44.5228C6.45676 44.5228 6.23465 44.8103 6.06244 44.7888C5.47119 44.7125 6.45773 42.9308 6.45773 42.9308H5.32828L5.36352 42.7996H4.93044C4.81079 43.3064 4.53685 44.2414 4.2589 44.6266C4.10825 44.8353 3.93712 44.7769 3.93228 44.6326C3.92731 44.4847 4.3128 42.8699 4.3128 42.8699H3.76781L3.71622 43.0643C3.56339 42.9677 3.1647 42.8115 2.81082 43.2039C2.34807 43.7155 2.27105 44.2593 2.40984 44.6683C2.42909 44.7459 1.981 44.9558 1.981 44.9558C1.981 44.9558 2.1652 45.0643 2.2696 45.2801C2.44133 45.2754 2.58605 45.0428 2.60458 45.0547C2.86908 45.2515 3.19292 45.2491 3.46153 44.9653C3.62527 45.1346 3.86991 45.1967 4.05399 45.1967C4.78826 45.1967 5.00929 43.9242 5.21517 43.3291H5.79951C5.71413 43.5592 5.54591 43.9134 5.43425 44.2474C5.31714 44.5968 5.24593 44.9486 5.4638 45.1012C5.7983 45.335 6.27074 45.1215 6.53669 44.889C6.64835 45.1012 6.88112 45.2038 7.06775 45.1967C7.27351 45.1931 7.42865 45.1406 7.58124 45.0213C7.86584 45.4077 8.30026 45.1132 8.53956 44.8937C8.58123 45.0559 8.68453 45.1955 8.88157 45.1967C9.1147 45.1978 9.36116 45.0702 9.5536 44.889L9.46906 45.1967H10.0418L10.2937 44.2891C10.5711 43.1884 10.9141 43.4805 10.9414 43.5247C11.0048 43.6213 10.8999 43.8061 10.7848 44.2116C10.7047 44.4942 10.4915 45.1549 11.0022 45.1967C11.2946 45.2205 11.6779 45.0428 11.8753 44.8162C12.1666 45.2777 12.5166 45.2646 12.978 45.0035C13.0785 45.1311 13.1536 45.2217 13.3401 45.1967C13.5545 45.1871 13.7664 44.9796 13.8827 44.8603C13.9481 45.044 14.0837 45.2002 14.3078 45.1967C14.619 45.1919 14.8952 44.9057 15.0986 44.6958C15.3723 45.0452 15.6497 45.2754 16.1256 45.1967C16.4587 45.1406 16.5882 44.9999 16.9104 45.2682C16.9104 45.2682 16.9334 44.9999 17.3742 44.7137C17.132 44.5944 16.8874 44.6254 16.7505 44.6671C16.9043 44.3893 16.6984 44.0017 16.6246 43.7298C16.5592 43.4841 16.5156 43.31 16.6076 43.0607C16.6488 42.9498 16.3182 42.8091 16.2637 42.7853C15.9815 42.8926 14.7728 44.5169 14.6469 44.6206C14.5888 44.6695 14.4507 44.7482 14.5343 44.3905C14.5343 44.3905 15.141 41.6807 15.1374 41.6778L14.4967 41.9242C14.424 42.5229 14.2339 44.2116 13.6514 44.5646C13.5981 44.5968 13.4213 44.7256 13.3692 44.6242C13.3401 44.5694 13.7458 42.8783 13.7495 42.8604H13.2348L13.1948 43.0142C13.11 42.8604 12.8957 42.8604 12.7588 42.8854C11.7831 43.0655 11.7676 44.493 11.7349 44.5419C11.4521 44.8854 11.1975 44.7983 11.205 44.5872C11.218 44.2235 11.6632 43.2528 11.4665 43.0047C11.2499 42.7316 10.8039 42.9272 10.5806 43.1633L10.6494 42.8711H10.1088C10.031 43.2408 9.74931 44.2963 9.51642 44.5646C9.39373 44.7053 9.08152 44.747 9.09508 44.5968C9.11059 44.4227 9.55142 42.8687 9.55142 42.8687H9.00498C9.00498 42.8687 8.72425 44.1031 8.49572 44.4954C8.30014 44.8317 8.04932 44.6838 8.06385 44.4883C8.09086 44.1317 8.72752 41.6778 8.72752 41.6778V41.6778ZM9.51072 41.7668C9.33669 41.7668 9.19572 41.9063 9.19572 42.0769C9.19572 42.2486 9.33669 42.3869 9.51072 42.3869C9.68451 42.3869 9.82585 42.2486 9.82585 42.0769C9.82585 41.9063 9.68451 41.7668 9.51072 41.7668ZM15.0974 42.511L14.9727 43.0763C15.1773 43.0703 15.3832 42.895 15.2815 42.7447L15.0974 42.511ZM16.2019 43.2957C16.0566 43.8717 16.5737 44.3332 16.2673 44.7041C16.145 44.8293 15.8543 44.8472 15.6896 44.6922C15.3554 44.3833 15.3614 44.3392 15.5419 44.1102C15.801 43.7787 15.9694 43.5008 16.2019 43.2957V43.2957ZM7.60922 43.3112C7.63804 43.31 7.66759 43.3124 7.69763 43.3195C7.86512 43.3601 7.66093 43.9278 7.53231 44.5121C7.49247 44.6946 7.11716 44.7816 7.03154 44.5861C6.89723 44.2808 7.17711 43.3338 7.60922 43.3112ZM3.5147 43.3303C3.55951 43.3327 3.60735 43.3434 3.65833 43.3625C3.65833 43.3625 3.54122 44.7184 3.08683 44.7184C2.94441 44.7184 2.82136 44.53 2.95325 44.0136C3.03608 43.6869 3.20127 43.3148 3.5147 43.3303V43.3303ZM12.9587 43.3422C13.0071 43.3458 13.0592 43.3577 13.1161 43.3792C13.1161 43.3792 12.978 44.7232 12.5118 44.7232C12.3701 44.7232 12.2465 44.5348 12.3785 44.0184C12.4609 43.6916 12.6183 43.3148 12.9587 43.3422V43.3422Z" fill="#B72126"/>
<path d="M6.12219 32.4636C5.68051 32.7304 5.4819 33.2251 5.4819 33.2251C5.87053 33.1433 5.93145 33.0336 6.22719 33.0587C6.33268 33.0678 6.38257 33.1151 6.4665 33.1761C6.33801 33.1474 6.23882 33.1411 6.13067 33.1386C5.98038 33.1352 5.68306 33.2392 5.53204 33.2539C5.53204 33.2539 6.02737 33.464 6.1796 33.4861C6.1796 33.4861 6.49932 33.6099 6.59173 33.2112C6.64186 32.9949 6.47607 32.6819 6.26292 32.7694C6.26074 32.7704 6.30107 32.5415 6.12219 32.4636V32.4636ZM14.9672 37.8332C14.9563 37.8326 14.9454 37.8334 14.9357 37.8353C14.8327 37.8543 14.8291 37.9697 14.8291 37.9697C14.8291 37.9697 14.846 38.0724 14.7286 38.1586C14.6704 38.2023 14.4936 38.2789 14.209 38.3344L13.1142 38.641L13.4473 38.9165L14.5711 38.5597C14.5711 38.5597 14.9865 38.4575 14.9865 38.2648C14.9865 37.9681 15.144 38.5328 15.0798 38.6447C15.0798 38.6447 15.1331 38.6949 15.2251 38.6294C15.3159 38.5638 15.299 38.3836 15.2082 38.1298C15.127 37.9074 15.0422 37.8372 14.9672 37.8332V37.8332ZM11.15 39.18L10.0039 39.4884C9.99581 39.4911 9.98661 39.494 9.9768 39.4972C10.1058 39.6532 10.1721 39.9041 9.99896 40.0705C10.1041 40.0333 10.2421 39.9838 10.2421 39.9838C10.7021 39.8207 11.257 39.6317 11.8915 39.4216C11.8915 39.4216 11.8944 39.4207 11.8984 39.4197C11.8846 39.3989 11.8766 39.3869 11.8766 39.3869C11.6532 39.3379 11.3965 39.2611 11.15 39.18V39.18ZM9.72623 39.5709C9.68263 39.5815 9.64593 39.5885 9.62438 39.5883C9.55535 39.6058 8.67841 39.8298 8.48379 39.8797C8.68713 40.055 8.72116 40.4134 8.48112 40.6183C8.9733 40.4377 9.53185 40.2373 9.83789 40.1279L9.89965 40.1059C9.97002 39.9792 9.96626 39.7272 9.83631 39.6228C9.80725 39.5994 9.76595 39.5828 9.72623 39.5709V39.5709ZM8.14287 39.97C8.13585 39.9704 8.12822 39.9705 8.1195 39.9705C8.03157 39.9925 7.96 40.0099 7.96 40.0099C7.63495 40.0895 7.40811 40.1421 7.28616 40.1662C6.62309 40.2974 5.61681 40.5502 4.02716 40.9852C4.19598 41.2096 4.29904 41.5292 4.12029 41.829C4.04314 41.9578 3.90617 42.0473 3.75394 42.0675C3.61297 42.0866 3.47491 42.0437 3.37693 41.9507C3.26454 41.8481 3.12527 41.6368 3.32861 41.3161C3.24722 41.2818 3.15664 41.2614 3.06399 41.2511L1.52387 41.6837C1.51611 41.686 1.50836 41.6877 1.50073 41.6897C1.30321 41.7599 1.21407 42.1069 1.30248 42.4372C1.39343 42.7771 1.62596 43.0371 1.83681 42.9823C2.04717 42.9274 2.12892 42.5863 2.03785 42.2476C2.00297 42.1164 1.97439 42.0282 1.90681 41.934C1.90681 41.934 2.05117 42.052 2.11923 42.3418C2.17736 42.5899 2.16828 42.7891 2.09767 42.9238C4.80612 42.0234 6.64937 41.3633 7.57572 40.963C7.68448 40.9159 7.93105 40.8212 8.30842 40.6819C8.30842 40.6819 8.34633 40.6681 8.3754 40.6574C8.46175 40.5098 8.4787 40.1554 8.29995 40.0311C8.25816 40.0018 8.19519 39.9823 8.14287 39.97V39.97Z" fill="#FEE60E"/>
<defs>
<clipPath id="clip0">
<rect width="176.439" height="59.4231" rx="9" fill="white"/>
</clipPath>
</defs>
</svg>
