<svg width="177" height="61" viewBox="0 0 177 61" fill="none" xmlns="http://www.w3.org/2000/svg">
<g clip-path="url(#clip0)">
<rect width="176.439" height="60.4476" rx="9" fill="#242424"/>
</g>
<path d="M27.1273 23.0776V11.9436H23.3653V10.6136H32.4853V11.9436H28.7233V23.0776H27.1273ZM38.8639 23.3056C38.0786 23.3056 37.3566 23.1536 36.6979 22.8496C36.0519 22.5456 35.4946 22.115 35.0259 21.5576C34.5572 20.9876 34.1899 20.3036 33.9239 19.5056C33.6706 18.695 33.5439 17.7893 33.5439 16.7886C33.5439 15.788 33.6706 14.895 33.9239 14.1096C34.1899 13.3116 34.5572 12.6403 35.0259 12.0956C35.4946 11.5383 36.0519 11.114 36.6979 10.8226C37.3566 10.5313 38.0786 10.3856 38.8639 10.3856C39.6492 10.3856 40.3649 10.5376 41.0109 10.8416C41.6696 11.133 42.2332 11.5573 42.7019 12.1146C43.1832 12.6593 43.5506 13.3306 43.8039 14.1286C44.0699 14.914 44.2029 15.8006 44.2029 16.7886C44.2029 17.7893 44.0699 18.695 43.8039 19.5056C43.5506 20.3036 43.1832 20.9876 42.7019 21.5576C42.2332 22.115 41.6696 22.5456 41.0109 22.8496C40.3649 23.1536 39.6492 23.3056 38.8639 23.3056ZM38.8639 21.9186C39.4212 21.9186 39.9216 21.7983 40.3649 21.5576C40.8209 21.317 41.2072 20.975 41.5239 20.5316C41.8532 20.0756 42.1066 19.5373 42.2839 18.9166C42.4612 18.2833 42.5499 17.574 42.5499 16.7886C42.5499 16.016 42.4612 15.3193 42.2839 14.6986C42.1066 14.078 41.8532 13.5523 41.5239 13.1216C41.2072 12.691 40.8209 12.3616 40.3649 12.1336C39.9216 11.893 39.4212 11.7726 38.8639 11.7726C38.3066 11.7726 37.7999 11.893 37.3439 12.1336C36.9006 12.3616 36.5142 12.691 36.1849 13.1216C35.8682 13.5523 35.6212 14.078 35.4439 14.6986C35.2666 15.3193 35.1779 16.016 35.1779 16.7886C35.1779 17.574 35.2666 18.2833 35.4439 18.9166C35.6212 19.5373 35.8682 20.0756 36.1849 20.5316C36.5142 20.975 36.9006 21.317 37.3439 21.5576C37.7999 21.7983 38.3066 21.9186 38.8639 21.9186ZM46.8831 23.0776V10.6136H50.7781C51.4114 10.6136 51.9941 10.677 52.5261 10.8036C53.0708 10.9176 53.5331 11.114 53.9131 11.3926C54.3058 11.6713 54.6098 12.0323 54.8251 12.4756C55.0404 12.919 55.1481 13.4636 55.1481 14.1096C55.1481 15.085 54.8948 15.864 54.3881 16.4466C53.8814 17.0293 53.1974 17.4283 52.3361 17.6436L55.5091 23.0776H53.7231L50.7211 17.8146H48.4601V23.0776H46.8831ZM48.4601 16.5226H50.5501C51.5254 16.5226 52.2728 16.3263 52.7921 15.9336C53.3114 15.5283 53.5711 14.9203 53.5711 14.1096C53.5711 13.2863 53.3114 12.71 52.7921 12.3806C52.2728 12.0513 51.5254 11.8866 50.5501 11.8866H48.4601V16.5226Z" fill="#DBDD83"/>
<path d="M126.382 21.2004V20.2484H128.426V13.6684H126.802V12.9264C127.212 12.8518 127.567 12.7631 127.866 12.6604C128.174 12.5484 128.449 12.4178 128.692 12.2684H129.574V20.2484H131.422V21.2004H126.382ZM135.525 16.8604C135.823 16.8604 136.136 16.7671 136.463 16.5804C136.799 16.3938 137.111 16.0904 137.401 15.6704C137.326 14.7931 137.121 14.1304 136.785 13.6824C136.449 13.2344 135.996 13.0104 135.427 13.0104C135.212 13.0104 135.007 13.0571 134.811 13.1504C134.624 13.2438 134.461 13.3791 134.321 13.5564C134.181 13.7244 134.069 13.9298 133.985 14.1724C133.91 14.4151 133.873 14.6811 133.873 14.9704C133.873 15.5584 134.008 16.0204 134.279 16.3564C134.549 16.6924 134.965 16.8604 135.525 16.8604ZM135.105 21.3684C134.629 21.3684 134.209 21.2798 133.845 21.1024C133.49 20.9251 133.191 20.7011 132.949 20.4304L133.593 19.7024C133.779 19.9171 133.999 20.0898 134.251 20.2204C134.512 20.3511 134.783 20.4164 135.063 20.4164C135.38 20.4164 135.679 20.3511 135.959 20.2204C136.239 20.0898 136.486 19.8751 136.701 19.5764C136.915 19.2684 137.088 18.8718 137.219 18.3864C137.349 17.9011 137.419 17.2991 137.429 16.5804C137.149 16.9351 136.822 17.2151 136.449 17.4204C136.075 17.6258 135.702 17.7284 135.329 17.7284C134.554 17.7284 133.938 17.4998 133.481 17.0424C133.023 16.5851 132.795 15.8944 132.795 14.9704C132.795 14.5411 132.865 14.1538 133.005 13.8084C133.145 13.4538 133.331 13.1504 133.565 12.8984C133.807 12.6464 134.087 12.4504 134.405 12.3104C134.731 12.1704 135.072 12.1004 135.427 12.1004C135.865 12.1004 136.271 12.1891 136.645 12.3664C137.027 12.5438 137.354 12.8144 137.625 13.1784C137.905 13.5331 138.119 13.9811 138.269 14.5224C138.427 15.0544 138.507 15.6798 138.507 16.3984C138.507 17.2944 138.413 18.0598 138.227 18.6944C138.04 19.3198 137.788 19.8331 137.471 20.2344C137.153 20.6264 136.789 20.9158 136.379 21.1024C135.977 21.2798 135.553 21.3684 135.105 21.3684ZM140.944 16.3144C140.71 16.3144 140.51 16.2351 140.342 16.0764C140.183 15.9084 140.104 15.6984 140.104 15.4464C140.104 15.1758 140.183 14.9611 140.342 14.8024C140.51 14.6344 140.71 14.5504 140.944 14.5504C141.168 14.5504 141.359 14.6344 141.518 14.8024C141.686 14.9611 141.77 15.1758 141.77 15.4464C141.77 15.6984 141.686 15.9084 141.518 16.0764C141.359 16.2351 141.168 16.3144 140.944 16.3144ZM140.944 21.3684C140.71 21.3684 140.51 21.2891 140.342 21.1304C140.183 20.9624 140.104 20.7524 140.104 20.5004C140.104 20.2298 140.183 20.0151 140.342 19.8564C140.51 19.6884 140.71 19.6044 140.944 19.6044C141.168 19.6044 141.359 19.6884 141.518 19.8564C141.686 20.0151 141.77 20.2298 141.77 20.5004C141.77 20.7524 141.686 20.9624 141.518 21.1304C141.359 21.2891 141.168 21.3684 140.944 21.3684ZM143.786 21.2004V20.2484H145.83V13.6684H144.206V12.9264C144.617 12.8518 144.971 12.7631 145.27 12.6604C145.578 12.5484 145.853 12.4178 146.096 12.2684H146.978V20.2484H148.826V21.2004H143.786ZM153.125 21.3684C152.22 21.3684 151.515 20.9671 151.011 20.1644C150.507 19.3618 150.255 18.2091 150.255 16.7064C150.255 15.2038 150.507 14.0604 151.011 13.2764C151.515 12.4924 152.22 12.1004 153.125 12.1004C154.021 12.1004 154.721 12.4924 155.225 13.2764C155.729 14.0604 155.981 15.2038 155.981 16.7064C155.981 18.2091 155.729 19.3618 155.225 20.1644C154.721 20.9671 154.021 21.3684 153.125 21.3684ZM153.125 20.4444C153.386 20.4444 153.62 20.3744 153.825 20.2344C154.04 20.0851 154.222 19.8611 154.371 19.5624C154.53 19.2544 154.651 18.8671 154.735 18.4004C154.819 17.9244 154.861 17.3598 154.861 16.7064C154.861 16.0531 154.819 15.4931 154.735 15.0264C154.651 14.5598 154.53 14.1818 154.371 13.8924C154.222 13.5938 154.04 13.3744 153.825 13.2344C153.62 13.0944 153.386 13.0244 153.125 13.0244C152.864 13.0244 152.626 13.0944 152.411 13.2344C152.196 13.3744 152.01 13.5938 151.851 13.8924C151.702 14.1818 151.585 14.5598 151.501 15.0264C151.417 15.4931 151.375 16.0531 151.375 16.7064C151.375 18.0131 151.534 18.9651 151.851 19.5624C152.178 20.1504 152.602 20.4444 153.125 20.4444Z" fill="white"/>
<path d="M28.0013 46.1469C27.1273 46.1469 26.3166 45.9823 25.5693 45.6529C24.8219 45.3236 24.1759 44.8739 23.6313 44.3039L24.5813 43.2019C25.0246 43.6706 25.5439 44.0506 26.1393 44.3419C26.7473 44.6206 27.3743 44.7599 28.0203 44.7599C28.8436 44.7599 29.4833 44.5763 29.9393 44.2089C30.3953 43.8289 30.6233 43.3349 30.6233 42.7269C30.6233 42.4103 30.5663 42.1443 30.4523 41.9289C30.3509 41.7009 30.2053 41.5109 30.0153 41.3589C29.8379 41.1943 29.6226 41.0486 29.3693 40.9219C29.1159 40.7953 28.8436 40.6623 28.5523 40.5229L26.7663 39.7439C26.4749 39.6173 26.1773 39.4653 25.8733 39.2879C25.5693 39.1106 25.2969 38.8953 25.0563 38.6419C24.8156 38.3886 24.6193 38.0909 24.4673 37.7489C24.3153 37.3943 24.2393 36.9889 24.2393 36.5329C24.2393 36.0643 24.3343 35.6273 24.5243 35.2219C24.7269 34.8166 24.9993 34.4683 25.3413 34.1769C25.6959 33.8729 26.1076 33.6386 26.5763 33.4739C27.0576 33.3093 27.5833 33.2269 28.1533 33.2269C28.9006 33.2269 29.5909 33.3726 30.2243 33.6639C30.8576 33.9426 31.3959 34.3099 31.8393 34.7659L30.9843 35.7919C30.6043 35.4246 30.1799 35.1396 29.7113 34.9369C29.2553 34.7216 28.7359 34.6139 28.1533 34.6139C27.4566 34.6139 26.8929 34.7786 26.4623 35.1079C26.0443 35.4246 25.8353 35.8679 25.8353 36.4379C25.8353 36.7419 25.8923 37.0016 26.0063 37.2169C26.1329 37.4196 26.2976 37.6033 26.5003 37.7679C26.7029 37.9199 26.9246 38.0593 27.1653 38.1859C27.4059 38.2999 27.6529 38.4076 27.9063 38.5089L29.6733 39.2689C30.0279 39.4209 30.3636 39.5983 30.6803 39.8009C30.9969 39.9909 31.2693 40.2189 31.4973 40.4849C31.7253 40.7383 31.9026 41.0423 32.0293 41.3969C32.1686 41.7389 32.2383 42.1379 32.2383 42.5939C32.2383 43.0879 32.1369 43.5503 31.9343 43.9809C31.7443 44.4116 31.4656 44.7916 31.0983 45.1209C30.7309 45.4376 30.2876 45.6909 29.7683 45.8809C29.2489 46.0583 28.6599 46.1469 28.0013 46.1469ZM36.9056 45.9189V34.7849H33.1436V33.4549H42.2636V34.7849H38.5016V45.9189H36.9056ZM44.5081 45.9189V33.4549H46.0851V44.5699H51.5381V45.9189H44.5081Z" fill="white"/>
<path d="M133.146 45.0801V35.8961H135.764C136.277 35.8961 136.744 35.9427 137.164 36.0361C137.593 36.1294 137.957 36.2834 138.256 36.4981C138.555 36.7034 138.788 36.9787 138.956 37.3241C139.124 37.6694 139.208 38.0941 139.208 38.5981C139.208 39.0834 139.124 39.5034 138.956 39.8581C138.797 40.2127 138.569 40.5067 138.27 40.7401C137.971 40.9734 137.612 41.1507 137.192 41.2721C136.781 41.3841 136.324 41.4401 135.82 41.4401H134.308V45.0801H133.146ZM134.308 40.4881H135.68C136.483 40.4881 137.075 40.3387 137.458 40.0401C137.85 39.7321 138.046 39.2514 138.046 38.5981C138.046 37.9354 137.841 37.4781 137.43 37.2261C137.029 36.9647 136.427 36.8341 135.624 36.8341H134.308V40.4881ZM141.076 45.0801V35.8961H142.476L144.24 40.7961C144.352 41.1134 144.459 41.4354 144.562 41.7621C144.674 42.0794 144.786 42.3967 144.898 42.7141H144.954C145.066 42.3967 145.168 42.0794 145.262 41.7621C145.364 41.4354 145.472 41.1134 145.584 40.7961L147.32 35.8961H148.734V45.0801H147.642V40.0261C147.642 39.6154 147.66 39.1627 147.698 38.6681C147.735 38.1734 147.768 37.7207 147.796 37.3101H147.74L147.012 39.3961L145.276 44.1561H144.506L142.77 39.3961L142.042 37.3101H141.986C142.014 37.7207 142.042 38.1734 142.07 38.6681C142.107 39.1627 142.126 39.6154 142.126 40.0261V45.0801H141.076Z" fill="white"/>
<path d="M11.7002 7.29786C10.4867 7.09138 9.26558 7.12567 8.07202 7.40058C6.83626 7.68533 5.69226 8.21474 4.67075 8.97419C2.73263 10.4151 1.47964 12.5125 1.14354 14.8813C0.807216 17.2497 1.42861 19.6055 2.89164 21.5142C4.28752 23.3359 6.31386 24.5537 8.59693 24.9425C9.8108 25.149 11.0307 25.1145 12.2244 24.8391C13.4607 24.5556 14.6053 24.0264 15.6258 23.2668C17.5641 21.8267 18.8173 19.7289 19.1535 17.3595C19.4896 14.991 18.8679 12.6354 17.4054 10.7266C16.0091 8.90481 13.9828 7.68756 11.7001 7.29863" fill="#134A8E"/>
<path d="M18.8227 17.3137C18.4989 19.5955 17.2922 21.6167 15.4252 23.0039C14.4405 23.7361 13.3379 24.2456 12.1474 24.52C12.0037 24.553 11.8593 24.5824 11.7152 24.6082C10.7039 24.7899 9.676 24.7936 8.65346 24.6197C7.0042 24.3381 5.49439 23.6082 4.27447 22.5205C3.86831 22.1575 3.49412 21.7556 3.15795 21.317C2.01218 19.8233 1.40268 18.0443 1.3874 16.206C1.38454 15.7814 1.41277 15.3544 1.47385 14.9268C1.73802 13.0626 2.5914 11.3728 3.91407 10.0594C4.20985 9.76533 4.52993 9.4899 4.87111 9.2361C5.53323 8.74345 6.24912 8.35264 7.00924 8.06527C7.37878 7.92579 7.75887 7.81006 8.14821 7.72089C9.29901 7.45583 10.4746 7.42258 11.6435 7.62152C13.8427 7.99563 15.7942 9.16807 17.1397 10.9234C18.5489 12.7623 19.1475 15.0311 18.8236 17.3138" fill="white"/>
<path d="M18.1411 19.2675C18.3947 18.6398 18.5739 17.9782 18.6709 17.2925C18.7698 16.5921 18.7818 15.8937 18.708 15.2084V15.2064C18.7057 15.1927 18.7038 15.1781 18.702 15.1634C18.5326 13.6703 17.9593 12.2443 17.0167 11.0139C15.9709 9.65006 14.552 8.64388 12.9349 8.10194C12.5087 7.95842 12.0683 7.84674 11.6169 7.77023C11.5442 7.75809 11.4712 7.7463 11.3979 7.73522C10.9589 7.67226 10.5163 7.64394 10.0771 7.64781C9.83581 7.64974 9.59504 7.66276 9.35445 7.68474C9.25157 7.69442 9.14743 7.70603 9.04563 7.71887C9.00348 7.72431 8.96061 7.72959 8.91846 7.73645C7.49444 7.93942 6.12771 8.49118 4.96349 9.35648C4.36336 9.8027 3.83309 10.3151 3.37972 10.8819C2.44596 12.0464 1.83973 13.4389 1.62557 14.9475C1.52644 15.648 1.51448 16.3474 1.58967 17.0335C1.67255 17.803 1.86348 18.5559 2.15694 19.2729C2.43807 19.9607 2.81316 20.6173 3.27951 21.225C3.81678 21.9259 4.45211 22.5315 5.16212 23.0296C5.42093 23.2107 5.69064 23.3783 5.96819 23.5299C6.80374 23.9864 7.71769 24.3056 8.68004 24.469V24.47C8.89903 24.5075 9.11889 24.5353 9.3393 24.5555C9.70259 24.5893 10.067 24.6002 10.429 24.5875C10.5229 24.5844 10.616 24.58 10.7101 24.5733C12.3714 24.4642 13.9875 23.8836 15.3322 22.8829C15.4653 22.7832 15.5957 22.6804 15.7229 22.5754C16.8032 21.6726 17.6267 20.5415 18.1407 19.2674" fill="#134A8E"/>
<path d="M15.1317 22.6221C13.2864 23.994 11.0152 24.5358 8.73612 24.147C6.65986 23.7935 4.81563 22.6859 3.54568 21.0284C2.21417 19.2915 1.64985 17.148 1.95483 14.9934C2.26115 12.838 3.40074 10.9296 5.16392 9.61825C7.00918 8.24727 9.28144 7.70515 11.5603 8.0939C13.4102 8.40873 15.0745 9.3216 16.3134 10.6891C16.3184 10.6944 16.3213 10.6974 16.3239 10.7005C16.4724 10.8643 16.6147 11.0352 16.7506 11.2124C18.0823 12.9485 18.6471 15.0931 18.3415 17.2476C18.0354 19.4029 16.8956 21.3112 15.1324 22.6221" fill="white"/>
<path d="M6.10828 13.9927C5.84537 14.1023 5.70997 14.2313 5.51207 14.5402C3.35727 14.8913 2.61941 15.2303 2.42491 15.4412C2.39687 15.4797 2.40904 15.4985 2.43601 15.5062C3.15242 15.4767 4.15616 15.441 5.91319 15.4994C6.05841 15.5013 6.20015 15.5048 6.33929 15.5073C6.42788 15.3919 6.5877 15.2901 6.89402 15.2901H6.92495H6.9839C7.55331 15.2974 7.65819 15.8728 8.26279 15.8728C8.86132 15.8728 8.96997 15.3074 9.52649 15.2905C9.5456 15.2905 9.56429 15.2901 9.5818 15.2901H11.667L11.6381 14.9496H9.55184C8.97261 14.9496 8.87008 14.3664 8.26187 14.3664C7.66018 14.3664 7.55545 14.9467 6.99118 14.9467H6.98554C6.39148 14.9061 6.15646 14.4115 6.10824 13.9927L6.10828 13.9927ZM2.48233 15.5868C2.41035 15.5859 2.39083 15.6148 2.46996 15.6759C2.81218 15.9202 3.97232 16.3624 5.39606 16.6234C6.08068 16.749 6.39278 16.9341 6.88416 17.2723C7.95374 18.0086 9.41185 20.0875 10.3012 22.6582C11.9876 19.433 13.9468 17.889 14.0998 17.7708L13.0971 17.8516L12.6159 17.8901L12.9248 17.5245L13.0924 17.3252L12.4445 16.7743C12.0923 17.3046 11.7492 17.8792 11.586 18.3226L12.2984 18.3198C11.9324 18.7667 11.2269 19.5051 10.7514 20.324C10.2773 19.1756 9.16525 17.6987 7.15688 16.8869C6.57515 16.6521 6.02546 16.3402 6.09616 15.8866C5.0876 15.7447 3.98188 15.6293 2.7302 15.5902C2.64018 15.5886 2.55706 15.5869 2.48222 15.5866L2.48233 15.5868Z" fill="#1D2D5C"/>
<path d="M8.03162 14.6306C7.90606 14.7136 7.81502 14.8681 7.82002 15.0174H8.02286C8.01304 14.9439 7.99018 14.7991 8.03162 14.6306" fill="white"/>
<path d="M10.3613 8.58203L9.96013 8.60586C9.99085 8.64121 10.0008 8.68561 10.0071 8.7542L10.0451 9.39003L9.08209 8.64885L9.16232 9.98911C9.16536 10.0519 9.16054 10.1162 9.11338 10.1692L9.53694 10.1448C9.49639 10.1033 9.4926 10.0562 9.48563 9.97335V9.97066L9.44979 9.35812L10.4101 10.1006L10.3291 8.74186C10.3264 8.68752 10.3292 8.62831 10.3613 8.58205L10.3613 8.58203ZM11.1049 8.65029L10.9713 8.97922C11.0505 8.94563 11.1115 8.9476 11.1957 8.9622L11.4196 9.00645L11.2089 10.0314C11.1927 10.1101 11.1639 10.1596 11.11 10.1902L11.569 10.2819C11.537 10.2341 11.5191 10.1695 11.5342 10.0963L11.7451 9.07168L11.9933 9.12095C12.0815 9.13871 12.1462 9.18745 12.1885 9.22738L12.1945 8.86762L11.1049 8.65031L11.1049 8.65029ZM7.79723 9.0086C7.5435 8.99842 7.28861 9.10881 7.12552 9.32482C6.86385 9.67202 6.93499 10.1616 7.28489 10.4168C7.63408 10.6721 8.13068 10.5982 8.39201 10.2512C8.65314 9.9042 8.58199 9.41483 8.23263 9.16029C8.10142 9.06419 7.9495 9.01465 7.79726 9.00854L7.79723 9.0086ZM13.2064 9.28333C12.9526 9.27312 12.6974 9.38317 12.5339 9.59972C12.273 9.94692 12.3443 10.4365 12.6937 10.6915C13.0427 10.947 13.5402 10.8722 13.8014 10.525C14.0623 10.1793 13.9904 9.68971 13.6418 9.43447C13.5105 9.33877 13.3587 9.28939 13.2064 9.28327L13.2064 9.28333ZM7.78195 9.32615C7.87332 9.32967 7.96405 9.35857 8.04121 9.41483C8.24661 9.56539 8.29073 9.86291 8.13855 10.065C7.98655 10.2683 7.68333 10.3123 7.47793 10.1617C7.27289 10.0117 7.22787 9.71402 7.38005 9.51141C7.47572 9.385 7.62967 9.32029 7.78195 9.32616V9.32615ZM13.1896 9.60097C13.2808 9.60454 13.3714 9.63346 13.4485 9.68966C13.6537 9.83933 13.6988 10.1381 13.5464 10.34C13.3937 10.5421 13.0914 10.5864 12.8854 10.4366C12.6802 10.2858 12.6357 9.98795 12.7881 9.78622C12.8838 9.65959 13.0376 9.59502 13.1896 9.60097H13.1896ZM5.93269 9.99999C5.87024 10.0015 5.80355 10.0156 5.73656 10.0416C5.7187 10.0481 5.63177 10.0857 5.56336 10.1349L5.55844 10.139L5.14108 10.4377C5.1943 10.4496 5.25503 10.4708 5.29754 10.5273V10.5274L6.02366 11.5225C6.0417 11.56 6.05351 11.607 6.04476 11.6585L6.41646 11.393C6.34483 11.3867 6.30479 11.3452 6.25817 11.2889L5.9436 10.8623L6.7594 11.147L7.10836 10.8967C7.05121 10.8937 6.98155 10.8811 6.90368 10.8602L6.36572 10.6791L6.37579 10.6531C6.44071 10.4904 6.4096 10.3716 6.40271 10.3496C6.38659 10.2963 6.36069 10.2455 6.32483 10.1987C6.27768 10.134 6.21972 10.0843 6.15381 10.052L6.14435 10.0471C6.09154 10.0228 6.0444 10.0092 5.99354 10.0027C5.9738 10.0003 5.95341 9.99947 5.93259 9.99997L5.93269 9.99999ZM5.92087 10.3164C5.95166 10.3167 5.98143 10.3254 6.01184 10.3422C6.06685 10.3724 6.08958 10.4414 6.09262 10.4585C6.09476 10.4704 6.10835 10.5794 5.97618 10.6747L5.86356 10.7555L5.6445 10.4613L5.74966 10.385C5.8153 10.3384 5.86955 10.3158 5.92086 10.3164L5.92087 10.3164ZM14.9004 10.705C13.3162 12.5146 8.89857 12.4921 7.75494 12.8619C7.00406 13.1043 6.61886 13.5068 6.35291 13.9049C6.32665 14.3149 6.629 14.7063 6.98606 14.7063C6.98606 14.7063 6.8924 14.4737 7.01207 14.2371C7.05905 14.1458 7.14522 14.0617 7.26042 13.9927C8.14206 13.3977 10.0311 14.0017 10.0311 14.0017C9.58657 13.9621 9.22104 13.97 8.91238 14.0106C9.43571 14.1702 9.99527 14.3882 10.3744 14.4786C10.8418 14.5907 11.1508 14.6482 11.6152 14.6746L11.6005 14.4944L11.8581 14.5376L12.5467 14.654L12.6479 14.3998L12.7598 14.1203L12.9783 14.3299C12.9831 14.3345 13.3216 14.6588 13.4988 14.8285C13.4677 14.5091 13.3878 13.6962 13.3869 13.6875L13.3545 13.3594L13.6649 13.4827L14.004 13.6176L14.5113 12.7987L14.6845 12.5206L14.8577 12.7987L15.2678 13.4591C15.411 12.886 15.5137 12.2792 15.8129 11.9973C15.5128 12.0082 15.3019 12.0919 14.9739 12.3176C15.1599 11.8228 15.4346 11.4556 15.8061 11.0355C15.445 11.0895 15.1006 11.1915 14.7624 11.3813C14.8915 11.0789 14.9003 10.705 14.9003 10.705L14.9004 10.705ZM4.69182 11.3063C4.43787 11.2962 4.18237 11.4064 4.01883 11.6228C3.75806 11.9697 3.83047 12.4582 4.1793 12.7146C4.52867 12.9698 5.0249 12.8948 5.28605 12.5482C5.54718 12.2011 5.47604 11.7121 5.12721 11.4574C4.99606 11.3617 4.84421 11.3122 4.69184 11.3062L4.69182 11.3063ZM4.67508 11.6232C4.76635 11.6267 4.85679 11.6557 4.93362 11.7121C5.13991 11.8626 5.18386 12.1601 5.03186 12.362C4.8795 12.565 4.57666 12.6095 4.37161 12.4582C4.16602 12.3091 4.12118 12.0105 4.27318 11.8083C4.36885 11.6821 4.52297 11.6173 4.67509 11.6232L4.67508 11.6232ZM3.31152 12.7571L2.89122 13.7691L3.19359 13.9616C3.17573 13.8784 3.18869 13.8196 3.21869 13.7403L3.30457 13.5326L4.28798 13.9286C4.36746 13.9604 4.4075 14.0039 4.42643 14.0579L4.60582 13.6272C4.55188 13.6496 4.48461 13.6547 4.41425 13.6262L3.43065 13.2293L3.52708 12.9986C3.56084 12.917 3.62202 12.8629 3.66918 12.8302L3.31157 12.7571L3.31152 12.7571ZM4.55743 17.8751C4.55743 17.9658 4.51453 18.0529 4.39932 18.1035L3.01024 18.7519C2.88021 18.8103 2.77743 18.7974 2.69348 18.7119L3.03261 19.4171C3.3066 19.9836 3.75812 19.9562 3.95995 19.8627V19.8618C4.11535 19.7896 4.22904 19.6666 4.26833 19.4825C4.26833 19.4825 4.41534 19.5501 4.63075 19.4499H4.63166V19.4495C4.94673 19.3019 5.05985 18.9128 4.88856 18.5619L4.55743 17.875V17.8751ZM4.52941 18.2576L4.7159 18.6438C4.8345 18.8911 4.75755 19.1633 4.5416 19.2645C4.41336 19.3246 4.28225 19.303 4.14044 19.1996L4.12515 19.1874L4.12734 19.2062C4.15431 19.4062 4.05739 19.5829 3.86735 19.6717C3.61265 19.7908 3.36605 19.6657 3.20655 19.3359L3.02551 18.9597L4.52946 18.2576L4.52941 18.2576ZM4.48666 18.3748L3.90227 18.6478L4.05019 18.954C4.15254 19.1668 4.33943 19.2616 4.5034 19.1855C4.67575 19.1051 4.73353 18.8832 4.63457 18.6813L4.48666 18.3748V18.3748ZM15.8279 18.4496L15.7803 18.4554C15.579 18.4819 15.3545 18.6399 15.2448 18.8309C15.1627 18.9765 15.1245 19.1197 15.1326 19.2568C15.1428 19.4409 15.2299 19.5965 15.3849 19.7068C15.4067 19.7216 15.4298 19.7366 15.4548 19.7505C15.819 19.9523 16.0493 19.7493 16.2344 19.5861L16.2493 19.5724C16.4002 19.4398 16.5066 19.3735 16.6086 19.4304C16.6715 19.4647 16.7015 19.5797 16.6479 19.6821C16.6038 19.766 16.5395 19.7983 16.5193 19.8075C16.4127 19.8634 16.2425 19.7908 16.2404 19.7908L16.2373 19.7887L16.3115 20.0426H16.3146C16.3823 20.0499 16.4986 20.0223 16.5002 20.0223H16.5009C16.6363 19.9928 16.7413 19.9148 16.8122 19.7898C16.8153 19.7848 16.8175 19.7798 16.8195 19.7763L16.8232 19.77C16.9337 19.5722 16.8887 19.351 16.7171 19.2546C16.5821 19.1795 16.4632 19.1775 16.3523 19.2496C16.2571 19.311 16.1409 19.4083 16.14 19.4101C15.9485 19.576 15.7841 19.6943 15.5576 19.5722C15.4486 19.5139 15.3736 19.4262 15.3414 19.3189C15.3066 19.1967 15.3285 19.0578 15.4068 18.9267C15.4486 18.8574 15.6054 18.6311 15.8967 18.6379H15.8985L15.8298 18.4505V18.4496H15.828L15.8279 18.4496ZM4.39723 18.632L4.46036 18.763C4.50752 18.8613 4.49467 18.9561 4.41215 18.9946C4.31017 19.042 4.23109 18.9474 4.20001 18.8843L4.13706 18.7528L4.39724 18.632H4.39723ZM3.82085 18.6851L3.14458 19.0015L3.28777 19.298C3.36761 19.4647 3.54451 19.7256 3.82885 19.5923C4.1491 19.443 4.03013 19.1196 3.96421 18.9819L3.82084 18.6851H3.82085ZM15.9297 18.7245C15.8429 18.7226 15.6266 18.742 15.4796 18.9787C15.3542 19.1805 15.4067 19.3855 15.6066 19.4967C15.7968 19.6019 15.9371 19.478 16.0613 19.368L16.068 19.3629L16.124 19.3173C16.1349 19.3085 16.145 19.2998 16.1553 19.291C16.2702 19.1943 16.3781 19.1028 16.5374 19.1083C16.5494 19.1083 16.6553 19.1146 16.7544 19.1746C16.8554 19.234 16.9213 19.3154 16.9493 19.4148C16.9875 19.5479 16.9665 19.6948 16.8907 19.829C16.8095 19.9701 16.681 20.0665 16.5283 20.1021C16.4631 20.1168 16.4254 20.1204 16.3391 20.1243H16.3373L16.3986 20.3342H16.4004C16.7967 20.3156 16.9895 20.03 17.0385 19.9424C17.0486 19.9255 17.0536 19.9145 17.0536 19.9145C17.1318 19.7768 17.1686 19.6295 17.1611 19.4888C17.1486 19.2802 17.0367 19.1014 16.8536 19.0002C16.426 18.7628 16.1263 19.0416 15.9821 19.1758L15.9759 19.1815C15.8355 19.3117 15.7689 19.3442 15.7027 19.3132C15.6878 19.3064 15.6799 19.3009 15.6686 19.2937C15.596 19.2432 15.5874 19.1529 15.6508 19.0563C15.6644 19.0354 15.7897 18.8572 16.0191 18.9709L16.0229 18.9726L15.9319 18.7245H15.9297L15.9297 18.7245ZM3.75564 18.9293L3.81477 19.0509C3.89283 19.2149 3.86691 19.3074 3.81368 19.358C3.79296 19.3775 3.75379 19.4013 3.72271 19.4044C3.63877 19.4143 3.55828 19.4203 3.46254 19.2154L3.40341 19.093L3.75564 18.9293L3.75564 18.9293ZM5.3329 19.4191C5.35897 19.5025 5.34268 19.591 5.24266 19.6819C5.24266 19.6823 5.23888 19.686 5.23138 19.692C5.22888 19.6948 4.21117 20.5877 4.09212 20.6918C3.988 20.7775 3.89497 20.7787 3.78101 20.7393L4.64558 21.6953L4.81024 21.5933L4.16909 20.8842L5.55705 19.6672L5.33291 19.419L5.3329 19.4191ZM14.8931 19.5669L14.6429 19.8034L15.0832 21.1041L15.6325 21.6665L15.6343 21.6654L15.8981 21.4155C15.7842 21.4549 15.6992 21.435 15.6181 21.3678H15.6177L15.2613 21.007L14.8731 19.8706C14.8629 19.8291 14.8313 19.7597 14.8931 19.5669L14.8931 19.5669ZM5.61608 19.7332L4.2963 20.8918L4.88687 21.5445L5.16669 21.3741C5.16669 21.3741 4.98456 21.3647 4.83775 21.2059L4.83156 21.1987C4.83156 21.1987 4.66855 21.0184 4.57139 20.9117C4.70338 20.7952 5.43513 20.1521 5.55675 20.0467C5.5571 20.0467 5.55713 20.0467 5.55802 20.0458C5.56035 20.044 5.563 20.0416 5.56621 20.039C5.56621 20.039 5.73341 19.9166 5.84094 19.9815L5.61788 19.7346L5.61606 19.7332L5.61608 19.7332ZM14.5711 19.8724L14.2589 20.1682C14.338 20.1326 14.3868 20.138 14.4088 20.1442C14.4247 20.1531 14.455 20.164 14.4928 20.2674L14.673 20.7483L14.1946 20.555C14.1202 20.5175 14.0897 20.4697 14.0897 20.4697C14.0598 20.4173 14.0858 20.361 14.1004 20.3187L13.7926 20.6094L13.7862 20.6161L14.976 21.0579L14.571 19.8724L14.5711 19.8724ZM6.25455 20.4715C6.30866 20.5659 6.31361 20.634 6.24163 20.7483C6.24073 20.7485 5.60521 21.7362 5.60521 21.7362C5.39016 22.0753 5.49511 22.4285 5.88448 22.6734C6.26582 22.9131 6.66378 22.8706 6.88186 22.5329L7.51719 21.5454C7.58649 21.4418 7.67176 21.4033 7.76536 21.4142L7.48262 21.2379L6.73412 22.3998C6.72359 22.4156 6.70556 22.4431 6.70556 22.4431C6.57481 22.6473 6.25771 22.6802 5.99855 22.5177C5.90907 22.4619 5.83844 22.3901 5.78932 22.3115C5.78736 22.3085 5.78512 22.3064 5.78387 22.303C5.6942 22.1562 5.67936 21.9848 5.76312 21.8541C5.76312 21.8541 5.76898 21.8441 5.79023 21.8109L6.53891 20.6489L6.25454 20.4715L6.25455 20.4715ZM13.7155 20.6832L13.4713 20.9138C13.6074 20.8693 13.6584 20.8784 13.7706 20.9111L14.9134 21.3373L15.2391 21.6738C15.341 21.773 15.3369 21.8915 15.3038 21.9791L15.5691 21.727L15.0198 21.1655L13.7155 20.6832L13.7155 20.6832ZM6.61393 20.696L5.85416 21.8762C5.73627 22.0588 5.82329 22.3098 6.04155 22.446C6.25946 22.5819 6.52376 22.559 6.64486 22.3741L7.40646 21.1908L7.12227 21.0124C7.18532 21.113 7.17329 21.1907 7.10917 21.2901C7.10917 21.2901 6.70492 21.9179 6.49076 22.2496C6.4236 22.346 6.26868 22.3632 6.14562 22.2865C6.02363 22.2104 5.97334 22.0636 6.03246 21.963C6.10123 21.8557 6.63582 21.0252 6.63867 21.022C6.64582 21.0097 6.64959 21.0036 6.64959 21.0036C6.70889 20.9128 6.78382 20.8684 6.89921 20.8744L6.61393 20.696L6.61393 20.696ZM12.7938 21.0494L12.9092 23.1056C12.9065 23.3014 12.8758 23.4133 12.8231 23.4846L13.1233 23.3291L12.9942 21.4223L14.5182 22.6061L14.8044 22.4571C14.6865 22.4539 14.5735 22.3841 14.4554 22.3062L12.7936 21.0495L12.7938 21.0494ZM8.07604 21.5335C8.1482 21.5988 8.19202 21.6953 8.16683 21.8024C7.80769 23.2906 7.81074 23.2776 7.80877 23.2863C7.78662 23.3652 7.72473 23.4741 7.57862 23.4914L8.93333 23.8083L9.01066 23.6313L7.98561 23.3929L8.37023 21.7968L9.33957 22.0243L9.35285 21.8324L8.07601 21.5336L8.07604 21.5335ZM13.0919 21.6068L13.1545 22.504L13.8089 22.1652L13.0919 21.6068L13.0919 21.6068ZM12.011 21.6136L11.6851 21.6932L12.0224 23.032C12.0224 23.032 12.0893 23.2265 11.9855 23.385C11.9112 23.4974 11.7954 23.5823 11.6373 23.6215C11.4897 23.6572 11.313 23.641 11.1812 23.5543C11.1231 23.5152 11.0949 23.4914 11.0329 23.4325L10.9177 23.6222C11.2617 23.9499 11.6862 23.8067 11.6862 23.8067C11.8434 23.7682 11.9797 23.6934 12.0796 23.5896C12.2123 23.4522 12.2647 23.2748 12.2386 23.0935C12.2386 23.0898 12.2272 23.0343 12.2228 23.0188L11.9355 21.8795C11.9026 21.7393 12.011 21.6136 12.011 21.6136L12.011 21.6136ZM11.5983 21.715L11.2721 21.794C11.3429 21.8055 11.4382 21.8804 11.4663 21.9945L11.7504 23.125C11.7763 23.2309 11.6904 23.3251 11.5841 23.3539C11.4779 23.3838 11.394 23.3511 11.3913 23.3504C11.2732 23.3104 11.215 23.13 11.215 23.13L11.0771 23.3595C11.131 23.4205 11.2477 23.4955 11.2477 23.4955C11.4037 23.5896 11.5691 23.5524 11.6209 23.5397C11.8245 23.4901 11.9998 23.3113 11.9446 23.0884C11.9446 23.0865 11.5983 21.715 11.5983 21.715L11.5983 21.715ZM8.43666 21.9033L8.28493 22.5307L9.06453 22.7127L9.13039 22.4411C9.13039 22.4411 9.03967 22.5393 8.87713 22.5022L8.51561 22.4173L8.58439 22.1325L9.01958 22.2342C9.2566 22.2907 9.31359 22.4164 9.31359 22.4164L9.33469 22.1131L8.43665 21.9033L8.43666 21.9033ZM13.2863 21.9709L13.5006 22.1405L13.3074 22.2401L13.2863 21.9708L13.2863 21.9709ZM13.8828 22.2262L13.1644 22.5988L13.2091 23.2848L13.2155 23.2816L13.5506 23.1074C13.4717 23.096 13.4016 23.0268 13.3827 22.919L13.3661 22.6782L13.8337 22.4359L14.0378 22.5922C14.0895 22.6339 14.1698 22.7152 14.0868 22.8294L14.4254 22.654L14.4323 22.6511L13.8828 22.2262H13.8828ZM8.27312 22.6189L8.1021 23.3289L9.04741 23.5487L9.17895 23.2488C9.10286 23.2933 9.0169 23.3414 8.83417 23.304C8.83042 23.304 8.34003 23.1893 8.34003 23.1893L8.42827 22.8226L8.77522 22.9036L8.7805 22.9048C8.94339 22.9488 8.97917 23.0675 8.97917 23.0675L9.04449 22.7991L8.27308 22.6189L8.27312 22.6189Z" fill="#134A8E"/>
<path d="M10.0986 10.7676C8.66605 10.7807 7.24101 11.3481 6.1841 12.4583C5.67059 12.9997 5.2917 13.6176 5.04755 14.2707C5.15829 14.2512 5.27094 14.2313 5.38632 14.2125C5.53153 13.8609 5.7179 13.5214 5.94778 13.2018C5.94778 13.203 5.94869 13.2045 5.94869 13.2054C5.94976 13.2072 5.9518 13.2092 5.95305 13.2115C5.96199 13.2036 5.97124 13.1954 5.98071 13.1869C6.00625 13.165 6.03103 13.1423 6.05603 13.1199C6.05371 13.1157 6.05125 13.1109 6.04875 13.1061C6.04393 13.0982 6.04011 13.0901 6.03511 13.0821C6.07619 13.0303 6.11703 12.9776 6.15901 12.9268C6.16705 12.9361 6.17295 12.9454 6.17902 12.9551C6.18903 12.9702 6.1979 12.9849 6.20522 12.9986C6.24202 12.97 6.28014 12.9413 6.31712 12.913C6.30033 12.8785 6.27937 12.8458 6.25508 12.8152C6.27526 12.7916 6.29731 12.7689 6.31839 12.7451C6.34518 12.7159 6.37147 12.6853 6.39844 12.6565H6.39899C6.39971 12.6565 6.39972 12.6565 6.39972 12.6557C6.44098 12.7027 6.46791 12.7515 6.48559 12.7939C6.51882 12.7722 6.55171 12.7503 6.58476 12.7297C6.59172 12.725 6.59781 12.7207 6.60513 12.7167C6.58602 12.6727 6.56202 12.6301 6.53308 12.5896C6.52256 12.5768 6.51287 12.5634 6.50234 12.5513C6.54789 12.5061 6.59382 12.4623 6.6408 12.4192C6.65294 12.4087 6.66358 12.3975 6.67573 12.3866C6.75003 12.4582 6.78579 12.5353 6.80473 12.5984C6.85099 12.572 6.89805 12.5474 6.94609 12.5224C6.93181 12.483 6.91311 12.4447 6.89097 12.4062C6.87275 12.377 6.85196 12.3496 6.82856 12.3227C6.81767 12.3098 6.80596 12.2961 6.79381 12.2842C6.84793 12.2368 6.90383 12.1914 6.95992 12.148C6.97778 12.164 6.99275 12.1795 7.00686 12.1956C7.03919 12.2321 7.06412 12.2683 7.08091 12.303C7.10199 12.3453 7.11304 12.3848 7.11912 12.4192C7.11983 12.4259 7.12113 12.4321 7.12203 12.4389C7.12399 12.437 7.12625 12.4366 7.12803 12.4359C7.17697 12.4129 7.22722 12.3916 7.27795 12.3718C7.28027 12.3708 7.28217 12.3696 7.28414 12.3685C7.2811 12.3515 7.27731 12.3343 7.27231 12.3164C7.24534 12.2163 7.1883 12.1168 7.10292 12.0407V12.0398C7.13829 12.015 7.17327 11.9904 7.20881 11.9658C7.24596 11.9396 7.28412 11.9148 7.32234 11.8898C7.3152 11.9049 7.30727 11.9194 7.29924 11.9299C7.45641 12.0721 7.48438 12.2075 7.48027 12.2956C7.54028 12.2754 7.60042 12.2566 7.66257 12.2399C7.66025 12.1825 7.64708 12.1236 7.62618 12.0665C7.6035 12.0072 7.57059 11.949 7.52629 11.897C7.51629 11.8852 7.50533 11.8733 7.49336 11.8615C7.50015 11.8437 7.50823 11.8199 7.51538 11.7915C7.51734 11.783 7.52051 11.775 7.52247 11.7657C7.62143 11.7078 7.72269 11.6533 7.8254 11.6024C7.79754 11.6811 7.7655 11.7509 7.73352 11.7855C7.88951 11.96 7.8936 12.091 7.87253 12.1756L7.87089 12.1826V12.1852C7.93394 12.171 7.99671 12.1589 8.06065 12.148C8.07976 12.0161 8.03993 11.8635 7.93384 11.7373C7.93581 11.7344 7.93697 11.7303 7.93894 11.727C7.94108 11.7234 7.94188 11.7204 7.94367 11.7162C7.96671 11.6664 7.99522 11.5884 8.01844 11.5104C8.104 11.4722 8.19106 11.4377 8.27715 11.4043C8.30502 11.393 8.33408 11.3815 8.36212 11.3717C8.32604 11.4751 8.27604 11.5913 8.22603 11.6546C8.21907 11.6634 8.21171 11.6719 8.20493 11.6782C8.29906 11.7778 8.34108 11.897 8.35412 11.9925V11.9991V11.9998C8.3593 12.0436 8.35823 12.0815 8.35412 12.1089C8.40931 12.1037 8.46599 12.101 8.52332 12.098C8.52904 12.0975 8.53453 12.0974 8.54024 12.0968C8.54917 12.0486 8.5516 11.9954 8.54606 11.9421C8.54231 11.8969 8.53229 11.8514 8.5155 11.8083C8.4921 11.7526 8.45711 11.7018 8.40906 11.6614C8.45211 11.5886 8.521 11.421 8.55243 11.3059C9.57124 10.9788 10.6768 10.9729 11.7027 11.2916C11.7073 11.2937 11.7117 11.2938 11.7165 11.2961C11.7254 11.2993 11.7347 11.302 11.7436 11.3047C12.0228 11.3944 12.2963 11.5088 12.5601 11.6465C12.6871 11.607 12.8113 11.5667 12.9344 11.5225C12.0624 11.0089 11.0787 10.7586 10.0985 10.7676L10.0986 10.7676ZM8.96041 11.3011C8.89843 11.427 8.80037 11.6027 8.72553 11.6546C8.85645 11.8358 8.86138 12.012 8.82924 12.0962C8.88961 12.0989 8.95031 12.1024 9.01336 12.1066C9.05462 11.9691 9.04562 11.7905 8.94149 11.6643C8.99436 11.5994 9.0823 11.4307 9.13053 11.3188C9.07337 11.3116 9.01632 11.3057 8.96041 11.3011L8.96041 11.3011ZM9.51459 11.3815C9.43886 11.492 9.31944 11.638 9.2446 11.6902C9.2596 11.7119 9.2734 11.7335 9.2859 11.7558C9.37163 11.9095 9.37863 12.0684 9.35576 12.1516C9.41471 12.1612 9.47365 12.1711 9.5317 12.1815C9.57082 12.0399 9.54588 11.8497 9.43782 11.7255C9.49087 11.6603 9.62401 11.5192 9.6858 11.414C9.6299 11.4034 9.57176 11.3928 9.5146 11.3815L9.51459 11.3815ZM10.0013 11.483C9.93376 11.5915 9.82691 11.7323 9.75511 11.7906C9.85478 11.9096 9.89702 12.0667 9.90685 12.1827C9.96704 12.174 10.0292 12.1652 10.0911 12.1562C10.0838 12.0351 10.0449 11.9077 9.9627 11.828C10.01 11.7589 10.1111 11.6269 10.1654 11.5225C10.1111 11.5095 10.057 11.4967 10.0013 11.483V11.483ZM10.5083 11.6132C10.4498 11.7136 10.3504 11.8387 10.2804 11.9027C10.3363 11.9618 10.371 12.0356 10.3941 12.1116C10.4505 12.1025 10.5067 12.0939 10.5633 12.0849C10.5426 12.0367 10.5144 11.9924 10.4783 11.9602C10.5214 11.8883 10.6186 11.7639 10.6686 11.6585C10.6154 11.6437 10.5623 11.6278 10.5083 11.6132L10.5083 11.6132ZM11.0185 11.7669C10.9746 11.8382 10.9083 11.9213 10.8455 11.985C10.8248 12.0062 10.8033 12.0259 10.7845 12.0419C10.7845 12.044 10.7873 12.0459 10.7885 12.0478C10.8777 12.0325 10.9674 12.0173 11.0567 12.0011C11.0994 11.9439 11.1455 11.8801 11.1746 11.8182C11.1235 11.8006 11.0707 11.784 11.0185 11.7669V11.7669ZM14.6844 12.9039L14.2858 13.5457L14.0857 13.8656L13.5882 13.668C13.59 13.6707 13.6975 14.7753 13.7125 14.921C13.7146 14.9497 13.7145 14.9754 13.7125 14.9983C13.7093 15.0354 13.7014 15.065 13.689 15.0866C13.669 15.1207 13.638 15.1371 13.6021 15.1371C13.5942 15.1371 13.5854 15.1358 13.5773 15.1341C13.5584 15.1311 13.54 15.1231 13.5207 15.1135C13.499 15.1015 13.4782 15.0868 13.4582 15.0676C13.4551 15.0657 13.453 15.0631 13.4492 15.0601C13.351 14.9665 12.8365 14.4737 12.8365 14.4737L12.6747 14.8788L11.8236 14.7347L11.9011 15.656L11.711 15.7203L11.5696 15.7678L13.376 17.3017L13.0807 17.6527L13.1837 17.6438L14.554 17.5343L14.6841 17.7799L14.7258 17.7013L14.8142 17.5343L15.078 17.5553L15.3773 17.5796L16.2881 17.6527L15.9922 17.3017L17.7989 15.7677L17.6328 15.7117L17.4678 15.656H17.4682L17.5444 14.7347L16.6946 14.8788L16.5323 14.4737C16.5323 14.4737 16.017 14.9665 15.919 15.0601C15.9163 15.0631 15.9133 15.0657 15.911 15.0676C15.8635 15.1112 15.8112 15.1371 15.7661 15.1371C15.7572 15.1371 15.7489 15.1369 15.7409 15.1341C15.683 15.1202 15.6448 15.0542 15.6568 14.921C15.6588 14.8957 15.6646 14.8411 15.6717 14.7702C15.7055 14.4274 15.78 13.6706 15.78 13.668L15.2826 13.8656L14.6845 12.9039L14.6844 12.9039ZM4.76556 16.8377C4.92703 18.0143 5.48532 19.1473 6.43355 20.0225C7.27302 20.7969 8.29519 21.2583 9.35182 21.4112C9.30449 21.3064 9.25463 21.2012 9.20427 21.0939C8.42516 20.9512 7.67061 20.63 7.01081 20.1271C7.03189 20.0141 7.06004 19.9215 7.09487 19.8935C7.10397 19.8849 7.11325 19.8824 7.12325 19.8838C7.02037 19.7282 7.02732 19.5051 7.05429 19.398C7.04233 19.3927 7.03099 19.3871 7.02027 19.3824C6.98241 19.3651 6.94517 19.3484 6.90838 19.3311C6.86176 19.4685 6.87605 19.6679 6.95732 19.8106C6.91088 19.8844 6.88719 19.9458 6.8729 20.0184C6.85629 20.0041 6.83985 19.99 6.82396 19.9767C6.76984 19.9322 6.71748 19.8867 6.66585 19.8394C6.65567 19.8304 6.64492 19.8215 6.63492 19.812C6.63403 19.8116 6.63401 19.8116 6.63401 19.8106C6.63294 19.8098 6.63219 19.8098 6.63201 19.809C6.6488 19.7657 6.66782 19.7278 6.68604 19.7083C6.68765 19.7062 6.6899 19.705 6.69187 19.7025C6.69329 19.7013 6.695 19.6993 6.69696 19.6982C6.69768 19.6977 6.69844 19.6973 6.69987 19.6964C6.70201 19.6952 6.70501 19.6946 6.70715 19.6936C6.71072 19.6927 6.71485 19.6934 6.71788 19.6945C6.7027 19.6649 6.69099 19.6352 6.68277 19.6046C6.64919 19.4945 6.65399 19.3825 6.67167 19.2986C6.6781 19.268 6.68603 19.2405 6.69496 19.2196C6.64745 19.193 6.60078 19.1662 6.55578 19.1384C6.48862 19.2685 6.47118 19.4465 6.55887 19.6001C6.55173 19.6115 6.54493 19.6245 6.5385 19.6375C6.53689 19.6405 6.53484 19.6433 6.53395 19.647C6.52573 19.6618 6.51871 19.6774 6.51157 19.6945C6.47692 19.66 6.44273 19.6254 6.40968 19.5904C6.37557 19.5558 6.34286 19.5202 6.31071 19.4845C6.31392 19.4807 6.3175 19.4777 6.3209 19.4747C6.32893 19.468 6.33667 19.4639 6.34364 19.4632C6.34739 19.4632 6.35044 19.4638 6.35455 19.4659C6.30079 19.3261 6.31987 19.1801 6.35255 19.0794C6.3597 19.0589 6.3678 19.0388 6.37548 19.0225C6.34565 19.0017 6.31652 18.9803 6.28669 18.9594C6.27222 18.9489 6.25677 18.9388 6.24248 18.929C6.18943 19.0185 6.15797 19.1289 6.1728 19.2432C6.1778 19.2817 6.18874 19.3193 6.20464 19.3573V19.3577C6.20428 19.3577 6.20355 19.3586 6.20355 19.3588C6.20283 19.3597 6.20281 19.3597 6.20245 19.3607C6.15637 19.3067 6.11124 19.2511 6.06855 19.1957C6.04836 19.1702 6.0276 19.1438 6.0076 19.1173C6.0067 19.0219 6.0298 18.929 6.05927 18.8523C6.06623 18.8352 6.07341 18.8183 6.08056 18.803C6.04055 18.7713 6.0016 18.7384 5.96303 18.7054C5.92337 18.777 5.89334 18.8592 5.88334 18.9436C5.84226 18.8847 5.80314 18.8244 5.76598 18.7634C5.77206 18.7384 5.78016 18.7141 5.78927 18.6905C5.80213 18.6539 5.81649 18.6195 5.83239 18.5882C5.79435 18.5536 5.75822 18.5186 5.72214 18.4834C5.70517 18.5133 5.69113 18.5456 5.67738 18.5782C5.67434 18.5861 5.67096 18.5932 5.66828 18.6011C5.65489 18.5779 5.64311 18.5546 5.63007 18.531C5.61507 18.5047 5.60034 18.4775 5.58623 18.4511C5.59855 18.4286 5.61139 18.4078 5.62425 18.389C5.59121 18.3496 5.55945 18.3112 5.52819 18.2716C5.52534 18.275 5.52215 18.2785 5.52001 18.2824C5.51608 18.2885 5.51231 18.2932 5.50909 18.2992C5.29369 17.853 5.14799 17.3828 5.07189 16.9032C4.96794 16.8826 4.86571 16.8605 4.7655 16.8378L4.76556 16.8377ZM15.016 17.7516C14.9674 17.8902 14.9143 18.0274 14.8534 18.1633C14.7784 18.3318 14.6922 18.4969 14.5972 18.6587C14.5551 18.5713 14.5434 18.4848 14.5379 18.4185C14.49 18.4202 14.4411 18.4228 14.3922 18.4262C14.4022 18.5032 14.4183 18.5743 14.4446 18.6412C14.4642 18.6904 14.4884 18.7384 14.5192 18.7861C14.3431 19.0647 14.137 19.3313 13.9 19.5801C13.2906 20.2207 12.5519 20.669 11.7613 20.9254C11.6813 21.0456 11.6005 21.169 11.5192 21.2965C12.4806 21.0511 13.3852 20.5441 14.1141 19.7771C14.6784 19.185 15.0782 18.4995 15.3173 17.775L15.016 17.7517L15.016 17.7516ZM14.1831 18.4446C14.1349 18.4499 14.0858 18.4558 14.0368 18.4627C14.0608 18.6076 14.1179 18.7022 14.1899 18.8244C14.1341 18.9208 14.0697 19.0619 14.0276 19.172C14.0808 19.1623 14.1328 19.1536 14.1848 19.1467C14.233 19.0296 14.294 18.8983 14.3441 18.8054C14.2289 18.6735 14.197 18.5354 14.1831 18.4446V18.4446ZM13.7346 18.52C13.6896 18.563 13.6413 18.6106 13.5895 18.6628C13.6236 18.7515 13.6782 18.8227 13.7647 18.8923C13.7539 18.914 13.7424 18.9403 13.7297 18.9692C13.6933 19.055 13.6515 19.1662 13.6213 19.2589C13.6824 19.2441 13.7436 19.2301 13.8036 19.2164C13.8547 19.0859 13.9157 18.9388 13.9559 18.8561C13.7974 18.7569 13.7525 18.6113 13.7346 18.52ZM13.3706 18.8884C13.3406 18.92 13.3096 18.9542 13.2772 18.9889C13.2876 18.9949 13.2986 19.0006 13.3096 19.0056C13.2718 19.1099 13.2235 19.242 13.1915 19.3743C13.2485 19.3584 13.3073 19.3417 13.3655 19.3252C13.4073 19.1882 13.4596 19.0363 13.5036 18.9536C13.4507 18.9388 13.4074 18.9162 13.3706 18.8884L13.3706 18.8884ZM7.3264 19.5042C7.28353 19.6602 7.29254 19.8937 7.42847 19.9999C7.37238 20.085 7.35263 20.1792 7.34441 20.3432C7.39657 20.3595 7.44929 20.3746 7.50252 20.3879C7.52252 20.175 7.55174 20.0433 7.61568 20.0533C7.47672 19.9546 7.47146 19.6837 7.49415 19.5583C7.43735 19.5417 7.38177 19.524 7.3264 19.5042L7.3264 19.5042ZM7.76178 19.6274C7.73766 19.7674 7.7612 19.9677 7.87094 20.0778C7.88684 20.0935 7.90422 20.1071 7.92297 20.1192C7.87993 20.204 7.87241 20.3202 7.88295 20.4709C7.93796 20.4799 7.99497 20.488 8.05106 20.4937C8.04606 20.3093 8.05898 20.1442 8.12292 20.1459C7.95396 20.0286 7.92702 19.7802 7.93899 19.6618C7.87915 19.6511 7.81965 19.6396 7.76178 19.6274L7.76178 19.6274ZM8.25919 19.7002C8.25687 19.8639 8.32284 20.0965 8.48716 20.1665C8.46019 20.2736 8.46031 20.3961 8.48407 20.5372C8.54033 20.5361 8.59611 20.535 8.65309 20.5324C8.63327 20.3695 8.62732 20.1655 8.68912 20.1595C8.51104 20.0609 8.44775 19.8296 8.44131 19.7102C8.38023 19.7083 8.31921 19.7054 8.25919 19.7002L8.25919 19.7002Z" fill="#E8291C"/>
<path d="M3.61745 45.5914C3.0395 45.694 2.44207 45.7995 1.93118 45.5505C1.56668 45.3731 1.2737 44.8846 1.26433 44.4388C1.25612 44.0348 1.31054 43.6149 1.45879 43.1726C1.50077 43.2167 1.55214 43.2417 1.60328 43.2599C1.71727 43.3008 1.88193 43.299 2.01914 43.2532C2.23166 43.183 2.4383 43.1142 2.6405 43.0465C2.62877 43.0581 2.61751 43.0687 2.60602 43.0814C2.17513 43.5581 1.9957 44.1217 2.10453 44.6422C2.04237 44.6793 1.95605 44.726 1.86387 44.7692C1.86387 44.7692 1.62603 44.8808 1.61454 44.8868L1.55004 44.9249V44.999C1.54981 45.0734 1.54981 45.0734 1.83761 45.2436C1.83855 45.2445 1.95724 45.3208 2.02245 45.4547L2.09915 45.6127L2.27695 45.6083C2.43951 45.6044 2.5685 45.5176 2.6485 45.4483C2.92339 45.5668 3.21402 45.539 3.46876 45.3697C3.68431 45.4961 3.90809 45.521 4.02396 45.5245C3.88697 45.5441 3.75069 45.5681 3.61746 45.5915L3.61745 45.5914ZM13.7501 42.6476H13.0227L13.0166 42.6705C12.9214 42.6554 12.8172 42.6575 12.7091 42.6774C12.3059 42.752 11.9972 42.9922 11.784 43.3925C11.8079 43.1839 11.7835 43.0216 11.6834 42.8957C11.5672 42.7497 11.4038 42.6682 11.2102 42.6598C11.1396 42.6568 11.066 42.6645 10.9907 42.6813L10.9961 42.6587H9.91313L9.91383 42.6566H9.76934C9.96542 42.5619 10.101 42.3644 10.101 42.1353C10.101 41.8152 9.83642 41.5546 9.51132 41.5546C9.26315 41.5546 9.05088 41.7064 8.96385 41.9205L9.12735 41.2902L7.85861 41.7828L7.65103 42.6774C7.21076 42.6148 6.91334 42.8425 6.72592 43.0703C6.75923 43.0102 6.81177 42.9153 6.80731 42.9222L6.93609 42.719L5.68541 42.7185L5.72036 42.5876H4.71293C4.71293 42.5876 4.52435 43.3332 4.43826 43.5979C4.48212 43.4064 4.65991 42.6575 4.65991 42.6575H3.79251C5.64364 42.0263 6.94994 41.5472 7.68581 41.229C8.02968 41.0802 9.75857 40.4612 10.3373 40.2558C10.7741 40.1011 11.3006 39.9216 11.902 39.7223C12.3001 40.3191 13.3195 41.8373 13.9306 42.6498C13.8926 42.6477 13.837 42.6477 13.7502 42.6477L13.7501 42.6476ZM9.64495 38.8174L9.72212 38.8502L9.15308 39.3898C8.92555 39.3898 8.84792 39.6132 8.84792 39.6132L8.44073 39.7252C8.4222 39.7069 8.32345 39.6986 8.32345 39.6986L8.83339 39.2625C9.25138 39.1355 9.64496 38.8174 9.64496 38.8174H9.64495ZM10.1371 39.0022L10.6289 39.1655L9.94636 39.3353C9.94636 39.3353 9.89101 39.2988 9.81736 39.293L10.1371 39.0022L10.1371 39.0022ZM17.4978 44.53C17.366 44.4651 17.2253 44.4283 17.0775 44.4198C17.0641 44.2327 17.0024 44.0509 16.9494 43.8987C16.9269 43.8326 16.9051 43.7703 16.8912 43.7183C16.8249 43.4716 16.807 43.3712 16.8664 43.2111C16.993 42.8702 16.5521 42.6743 16.3778 42.5967C16.3778 42.5967 16.3238 42.5727 16.3241 42.5727C16.2727 42.5496 16.2432 42.5606 16.165 42.5904C16.1017 42.6147 16.0288 42.6632 15.9326 42.7501C16.0126 42.6207 16.064 42.4581 16.0773 42.2858C16.1289 42.2488 16.177 42.1906 16.2159 42.1137C16.3475 41.8557 16.3532 41.4263 15.976 40.9953C15.8231 40.8202 14.7488 39.9039 13.8038 39.1066L13.8003 39.1036C14.1324 38.998 14.6409 38.8368 14.6367 38.838C14.708 38.819 14.8227 38.7668 14.928 38.8606C15.0214 38.9498 15.2039 38.9823 15.3617 38.8728C15.6355 38.6832 15.4837 38.2663 15.4276 38.1108C15.3291 37.8376 15.19 37.7348 15.0906 37.6965C14.9944 37.6593 14.8922 37.6572 14.8042 37.7034C14.6672 37.7752 14.6339 37.8909 14.6182 37.9852C14.6006 38.0875 14.4345 38.1115 14.1392 38.1848C14.1392 38.1848 13.1268 38.4568 13.0548 38.4769L13.0494 38.4726L12.8043 38.2674C12.7567 38.1896 12.6626 38.0508 12.5519 37.9621C12.5325 37.6503 12.2866 37.2791 12.0852 37.1276C12.0746 36.9104 11.898 36.5963 11.7096 36.4818C10.864 35.0125 10.1087 34.0695 9.40178 33.6008L9.37855 33.5853C9.25189 33.5017 9.2411 33.4899 9.23641 33.4248C9.19278 32.846 9.03539 32.2907 8.83555 31.9932C8.91459 31.8682 9.03398 31.6458 9.11632 31.3372C9.11632 31.3372 9.20568 31.0044 9.20568 31.0046L9.10342 31.0711C9.12922 30.9873 9.15525 30.887 9.18035 30.7656L9.1827 30.7494C9.1902 30.6496 9.12171 30.6122 9.10037 30.6029C9.09169 30.599 9.08325 30.5972 9.0748 30.5953C9.08231 30.4849 9.07105 30.3519 9.01288 30.205L8.93453 30.0063L8.78981 30.1648C8.49379 30.4893 8.04344 30.6584 7.6461 30.8078C7.55509 30.842 7.46901 30.8746 7.38739 30.9076C6.7393 31.1714 6.33843 31.4539 5.96056 32.2521C5.95165 32.2598 5.94179 32.2678 5.931 32.2769C5.7593 32.4189 5.4016 32.7148 5.19918 33.301L5.16564 33.3982L5.25337 33.4539C5.46188 33.5851 5.68754 33.6777 5.97229 33.7759C4.9034 36.1288 6.93821 37.5249 8.64089 38.38C8.54238 38.5585 8.46333 38.7257 8.44246 38.9225L7.67944 39.7143C7.60625 39.7333 7.46763 39.7781 7.38695 39.8626C7.3595 39.8913 7.33394 39.9303 7.31025 39.9781C7.28913 39.9827 7.2706 39.9864 7.25442 39.9897C6.77756 40.0839 6.01548 40.2555 3.99315 40.8087C3.70066 40.5445 3.21394 40.3752 2.73496 40.3752C1.97639 40.3752 1.48641 40.7766 0.984204 41.3792C0.259179 42.2491 -0.559916 44.6306 0.525404 45.8912C0.71094 46.1067 1.40876 46.8022 2.60482 46.7121C2.92475 46.688 3.16449 46.6358 3.37582 46.5901C3.79334 46.4993 3.98403 46.458 4.3999 46.7331L4.56597 46.8433L4.72312 46.7208C4.96002 46.5365 5.3623 46.5984 5.68623 46.6726L6.31391 46.8167L5.98482 46.2711C5.54573 45.5433 4.92343 45.4389 4.29598 45.4927C4.64922 45.3957 4.88379 45.0867 5.05478 44.7206C5.03202 44.9617 5.07424 45.2181 5.30576 45.38C5.67871 45.641 6.14618 45.5264 6.49193 45.3158C6.65542 45.4532 6.87496 45.5336 7.07715 45.5248C7.25283 45.5216 7.40365 45.4874 7.54487 45.4197C7.63845 45.4849 7.74307 45.5237 7.85753 45.5348C8.04705 45.5528 8.2502 45.4925 8.462 45.3562C8.57224 45.4648 8.71673 45.5244 8.88115 45.525C8.95785 45.5253 9.03783 45.5151 9.11876 45.4953L9.11055 45.525H10.2524L10.4058 44.9723C10.4194 45.0813 10.4527 45.186 10.517 45.2774C10.5883 45.3786 10.7262 45.5033 10.9802 45.5241C11.2523 45.5463 11.5784 45.4456 11.8415 45.2636C12.1275 45.5407 12.4882 45.586 12.917 45.3966C13.0017 45.4685 13.1478 45.5532 13.3676 45.5234C13.5182 45.5137 13.6697 45.4504 13.8276 45.3331C13.9575 45.4599 14.125 45.5278 14.3126 45.5251C14.6213 45.5204 14.8807 45.3387 15.0846 45.1516C15.309 45.3777 15.6494 45.6082 16.172 45.5214C16.2621 45.5061 16.3359 45.4867 16.4014 45.4694C16.5743 45.4239 16.5963 45.4181 16.7342 45.5329L17.1421 45.8731L17.1846 45.3592C17.1926 45.3333 17.2493 45.1774 17.5261 44.9977L17.9239 44.7395L17.498 44.53L17.4978 44.53Z" fill="white"/>
<path d="M9.96967 42.1354C9.96967 41.8875 9.76489 41.6857 9.51322 41.6857C9.26154 41.6857 9.05652 41.8875 9.05652 42.1354C9.05652 42.3832 9.26152 42.5849 9.51322 42.5849C9.76489 42.5849 9.96967 42.3832 9.96967 42.1354V42.1354ZM17.44 44.6472C17.2608 44.559 17.0859 44.5424 16.9475 44.5505C16.9639 44.3435 16.8891 44.1264 16.825 43.9411C16.8016 43.8728 16.7793 43.8083 16.764 43.7517C16.6984 43.5069 16.6674 43.3699 16.7432 43.1662C16.8271 42.9396 16.4809 42.7858 16.3331 42.7197L16.2703 42.692C16.27 42.6917 16.2147 42.7128 16.2147 42.7128C16.0219 42.7863 15.6281 43.2478 14.922 44.1301C14.8392 44.2338 14.7553 44.3389 14.688 44.4216C14.7316 44.2259 14.873 43.5928 14.941 43.2889C15.2131 43.3133 15.4228 43.1436 15.4737 42.8881C15.6996 42.9431 15.9501 42.616 15.9501 42.2C16.069 42.2079 16.4087 41.6889 15.8769 41.0807C15.7148 40.8955 14.4222 39.7986 13.5374 39.0536L13.5344 39.0506L14.6038 38.7113C14.6699 38.6938 14.7914 38.6658 14.851 38.6707C14.8897 38.6739 14.9723 38.7293 15.0126 38.773C15.0515 38.8104 15.159 38.8573 15.2849 38.767C15.4555 38.6448 15.3774 38.3591 15.3037 38.1547C15.2223 37.9283 15.1207 37.8306 15.0473 37.8022C14.9873 37.7791 14.9179 37.7724 14.851 37.8063C14.6978 37.8844 14.7687 38.0482 14.6847 38.1105C14.6847 38.1105 14.6603 38.1835 14.1837 38.2979L13.0885 38.6044L13.0242 38.6222L13.0191 38.6178C12.8242 38.4545 12.7031 38.3535 12.7031 38.3535C12.6262 38.224 12.5176 38.0828 12.4207 38.0299C12.4428 37.7128 12.1158 37.2721 11.9488 37.1956C11.9945 37.0564 11.8029 36.6614 11.6143 36.5792C11.0122 35.5289 10.1957 34.2842 9.32899 33.7095C9.1906 33.6178 9.11578 33.5765 9.10522 33.4344C9.05666 32.7859 8.86995 32.2264 8.6755 31.9966C8.74704 31.8973 8.89411 31.6594 8.98933 31.3041C8.98933 31.3041 8.87862 31.3762 8.79394 31.4028C8.83944 31.3515 8.95133 31.2258 9.05149 30.7396C9.05595 30.681 9.00528 30.7909 8.88518 30.859C8.90488 30.7738 9.00692 30.5475 8.89058 30.2527C8.50261 30.6775 7.88149 30.8491 7.43981 31.0288C6.76921 31.3016 6.41855 31.5862 6.07021 32.3334C5.94683 32.4429 5.54174 32.7214 5.32666 33.3432C5.54105 33.4783 5.77419 33.5707 6.10492 33.682C6.10492 33.682 6.1075 33.7864 6.10938 33.7982C5.10429 35.9608 6.76145 37.3084 8.82582 38.3242C8.69282 38.5596 8.58376 38.7469 8.5718 38.9802L7.7506 39.8327C7.7506 39.8327 7.56343 39.8706 7.48554 39.9523C7.45129 39.9884 7.42361 40.048 7.40649 40.0919C7.35817 40.1025 7.31619 40.1115 7.28217 40.1182C6.78209 40.217 5.97708 40.4018 3.95581 40.955C3.94901 40.9481 3.94244 40.9402 3.9354 40.9333C3.67175 40.6741 3.20123 40.5062 2.73656 40.5062C2.03006 40.5062 1.56681 40.8885 1.08859 41.4622C0.387483 42.3037 -0.410479 44.5996 0.628381 45.8062C0.803593 46.0097 1.46317 46.6666 2.59592 46.5814C2.90671 46.5578 3.14151 46.507 3.34862 46.4619C3.77669 46.3689 4.01243 46.3178 4.47568 46.6243L4.56129 46.6809L4.64221 46.6179C4.92346 46.3989 5.36513 46.4638 5.71791 46.5449L6.0416 46.619L5.87177 46.3379C5.32033 45.4239 4.4677 45.5748 3.64294 45.7207C3.04387 45.8267 2.4244 45.9362 1.87417 45.6683C1.46228 45.4678 1.14375 44.9403 1.13319 44.4416C1.1231 43.9503 1.23592 43.4047 1.40902 42.9354C1.54507 43.1079 1.71818 43.201 1.87462 43.1603C1.89573 43.1548 1.91497 43.1474 1.93373 43.1391C1.94874 43.137 1.96399 43.134 1.97853 43.1292C4.78262 42.199 6.68552 41.519 7.63395 41.1091C7.98133 40.959 9.71427 40.3383 10.2939 40.1328C10.8074 39.9505 11.3898 39.7537 11.9588 39.5657C12.3011 40.0803 13.6507 42.0986 14.2372 42.828C14.1215 43.4987 13.9205 44.2975 13.5795 44.504C13.5652 44.513 13.5476 44.5241 13.5323 44.5333C13.6064 44.1418 13.8511 43.1068 13.8896 42.9514L13.932 42.7788L13.1277 42.7785L13.1141 42.8307C13.0097 42.7896 12.8807 42.7795 12.7353 42.8063C12.1128 42.9215 11.7349 43.4865 11.6127 44.4854C11.6103 44.5032 11.6082 44.5217 11.6061 44.5362C11.4846 44.6737 11.3892 44.7002 11.3605 44.6896C11.3502 44.6859 11.3483 44.6635 11.349 44.6505C11.353 44.5325 11.4185 44.3099 11.482 44.0948C11.6429 43.5474 11.737 43.1735 11.5806 42.9764C11.4891 42.8614 11.3596 42.7974 11.2062 42.791C11.0716 42.7852 10.9332 42.8244 10.8074 42.8863L10.8302 42.7898H9.99587L9.97242 42.9009C9.87766 43.3538 9.6011 44.3129 9.41136 44.5319C9.37383 44.5751 9.29994 44.6019 9.24857 44.609C9.30088 44.3612 9.53733 43.5027 9.69001 42.9648L9.74021 42.7878H8.89415L8.86929 42.8966C8.86647 42.9086 8.59063 44.1146 8.37553 44.4841C8.31337 44.5903 8.25567 44.6197 8.23386 44.613C8.21932 44.6086 8.20548 44.586 8.20759 44.5569C8.2287 44.2744 8.69102 42.4499 8.86717 41.7706L8.93566 41.5063L7.97467 41.8796L7.75349 42.834C7.72487 42.8245 7.69297 42.8162 7.65685 42.8104C7.03855 42.7079 6.73737 43.2631 6.62407 43.4722C6.47888 43.7396 6.33252 44.1799 6.31891 44.5298C6.22931 44.6337 6.12001 44.713 6.08318 44.7081C6.05221 44.7042 6.04424 44.6933 6.0372 44.6797C5.92016 44.4531 6.28677 43.5937 6.58467 43.0557L6.69843 42.8495L5.51461 42.8498L5.54956 42.7188H4.82055L4.79522 42.8267C4.64651 43.4554 4.38027 44.2795 4.14619 44.6033C4.11804 44.6421 4.09365 44.6627 4.07699 44.6726C4.09154 44.5236 4.27802 43.6928 4.45299 42.9599L4.49403 42.7885H3.66087L3.62546 42.9218C3.35548 42.8236 3.00177 42.8428 2.70739 43.1687C2.27814 43.6439 2.11676 44.1982 2.25726 44.7012C2.19487 44.7474 2.05742 44.825 1.92278 44.8878L1.68516 44.9991L1.91082 45.1329C1.91151 45.1336 2.06094 45.226 2.14443 45.398L2.18408 45.4796L2.27555 45.4773C2.42826 45.4736 2.54764 45.3699 2.62505 45.2902C2.90465 45.4459 3.21099 45.4165 3.46666 45.21C3.6977 45.3786 3.96932 45.3937 4.05635 45.3937C4.77105 45.3937 5.04455 44.4619 5.24393 43.7812C5.27067 43.6906 5.296 43.6042 5.32063 43.5261H5.59436C5.57747 43.5666 5.55988 43.6084 5.54182 43.6513C5.46207 43.8396 5.372 44.0532 5.30233 44.2611C5.22516 44.4928 5.04384 45.0349 5.38443 45.273C5.72008 45.5077 6.17583 45.383 6.50891 45.1488C6.66724 45.3262 6.89922 45.4012 7.07631 45.3936C7.26209 45.3901 7.41665 45.3488 7.56091 45.2631C7.65051 45.3451 7.75465 45.3927 7.87217 45.404C8.09172 45.425 8.31173 45.3116 8.48837 45.1788C8.57703 45.3158 8.71355 45.3929 8.88336 45.3936C9.02386 45.3943 9.17234 45.355 9.31683 45.2834L9.28634 45.3936H10.1526L10.4329 44.3831C10.5952 43.7396 10.7575 43.665 10.7887 43.6562C10.8025 43.6525 10.8138 43.6559 10.8215 43.6603C10.8208 43.7024 10.7852 43.8098 10.7531 43.9063C10.724 43.9937 10.6878 44.1022 10.6508 44.2323L10.64 44.2694C10.5675 44.5219 10.446 44.9444 10.628 45.2026C10.6829 45.2807 10.7906 45.3768 10.9928 45.3931C11.2703 45.416 11.6153 45.289 11.8588 45.0869C12.2059 45.5059 12.623 45.4015 12.9455 45.2388C13.0346 45.3361 13.1547 45.4202 13.3602 45.3924C13.5408 45.3807 13.7062 45.2733 13.8457 45.1504C13.9567 45.3098 14.1195 45.3964 14.312 45.3936C14.6247 45.3892 14.886 45.1686 15.0917 44.9633C15.3429 45.2509 15.6554 45.4742 16.1512 45.3918C16.2352 45.3777 16.3063 45.3592 16.3686 45.3428C16.5539 45.2938 16.6306 45.2735 16.8218 45.4326L17.032 45.608L17.0545 45.3379C17.0542 45.3393 17.088 45.1259 17.4544 44.888L17.6594 44.7552L17.4401 44.6471L17.44 44.6472ZM9.24363 39.4765C9.14558 39.4955 9.09797 39.5091 9.03136 39.5698C8.98445 39.6123 8.95278 39.6719 8.93566 39.7163C8.75082 39.7636 8.56013 39.8117 8.37505 39.8581C8.33283 39.8336 8.25191 39.8013 8.12665 39.8101C8.11492 39.8092 8.08185 39.8034 8.08442 39.7692C8.08677 39.7394 8.77568 39.1252 8.77568 39.1252C8.96825 39.0864 9.67381 38.6827 9.67381 38.6827L9.88961 38.7695L9.87366 38.8044L9.84293 38.8582L9.2842 39.4424C9.27224 39.4555 9.26074 39.4733 9.24362 39.4765L9.24363 39.4765ZM9.89006 39.4694C9.84151 39.434 9.78991 39.4135 9.74229 39.4142C9.56332 39.4172 9.62407 39.353 9.66489 39.3075L10.1439 38.867C10.1439 38.867 10.5215 39.0215 10.9749 39.1781C10.3181 39.3555 9.96158 39.4504 9.89006 39.4694L9.89006 39.4694ZM3.08987 44.6377C3.088 44.6377 3.08542 44.6377 3.07885 44.6296C3.06947 44.6178 2.99159 44.5044 3.09316 44.106C3.16798 43.8122 3.278 43.6151 3.40254 43.5514C3.42647 43.5392 3.46024 43.5265 3.50809 43.5283C3.44406 44.0753 3.26744 44.6377 3.08988 44.6377L3.08987 44.6377ZM7.50273 44.1055C7.46684 44.2462 7.43002 44.3917 7.39694 44.5414C7.39225 44.5631 7.33502 44.6077 7.25574 44.615C7.22712 44.618 7.17552 44.6158 7.16426 44.5899C7.09272 44.4273 7.19123 43.9034 7.42275 43.6329C7.49077 43.5533 7.55809 43.5126 7.6233 43.5103C7.62588 43.6212 7.55551 43.8974 7.50274 44.1055L7.50273 44.1055ZM12.5151 44.6423C12.5132 44.6423 12.5104 44.6423 12.504 44.6338C12.4947 44.6225 12.417 44.5088 12.5184 44.1104C12.5951 43.8103 12.6966 43.6263 12.8209 43.5632C12.8629 43.5419 12.9108 43.5362 12.9636 43.5424C12.8906 44.0937 12.7037 44.6423 12.5151 44.6423L12.5151 44.6423ZM16.1639 44.6689C16.1311 44.7003 16.0682 44.7213 16.0011 44.7227C15.9178 44.7245 15.8407 44.6982 15.7902 44.6502C15.5327 44.4123 15.5327 44.4123 15.6568 44.2536C15.737 44.1513 15.8071 44.0559 15.8754 43.9635C15.9352 43.8817 15.9922 43.8055 16.0487 43.7336C16.0684 43.8757 16.1097 44.0076 16.1487 44.1312C16.2289 44.3859 16.269 44.5377 16.1639 44.6689" fill="#14264B"/>
<path d="M7.1892 32.886C7.14534 32.9557 7.06418 32.9998 6.97505 32.9938C6.84769 32.9851 6.75174 32.8763 6.76043 32.7508C6.76958 32.625 6.88006 32.5305 7.00766 32.5395C7.09187 32.5453 7.16271 32.5949 7.19811 32.6645C7.03884 32.6476 7.00413 32.7991 7.00413 32.7991C6.90093 32.6746 7.03416 32.6028 7.03416 32.6028C6.94549 32.5912 6.86129 32.658 6.85401 32.758C6.84697 32.8585 6.92367 32.9453 7.02547 32.9523C7.09419 32.9571 7.1533 32.9349 7.18919 32.886" fill="white"/>
<path d="M8.78965 30.5405C8.45116 30.89 7.91465 31.004 7.45577 31.1941C6.78339 31.4729 6.43411 31.9033 6.26008 32.3192C6.32536 32.4291 6.73349 32.4393 6.79465 32.4035C6.8988 32.3424 7.04001 32.3118 7.15276 32.3759C7.23512 32.4228 7.27969 32.4696 7.31723 32.4942C7.4169 32.5361 7.55605 32.5707 7.65924 32.5467C7.20508 32.9952 7.15276 33.584 7.19539 33.6836C6.66107 33.6836 6.12493 34.3959 6.02719 34.588C5.45581 36.7073 8.71759 38.1039 9.04131 38.2522C8.85299 38.5486 8.69373 38.7858 8.70778 38.896C8.71905 38.984 8.76955 38.9864 8.87358 38.9656C9.11192 38.8333 9.5324 38.6438 9.68076 38.4744C9.77074 38.3718 9.67749 38.2227 9.63341 38.1741C9.58605 38.1215 9.6133 38.0755 9.7223 38.1411C9.82572 38.2272 9.84437 38.275 9.87707 38.3505C9.9237 38.4597 9.79024 38.5761 9.79024 38.5761C10.1573 38.7395 11.4124 39.2257 11.801 39.3015L11.3798 38.6298C10.6146 38.329 9.53858 37.8749 8.92808 37.5765C7.98162 37.1133 6.41498 36.149 7.19612 34.6716C7.42429 34.2954 7.511 34.2879 7.54334 34.3759C7.54552 34.3848 7.53873 34.4101 7.52917 34.415C7.51463 34.4296 7.41169 34.5271 7.31577 34.7276C6.58162 36.0711 8.10079 37.0341 8.99662 37.4619C10.2936 38.0809 11.4941 38.5576 12.2847 38.8189C12.4058 38.8589 12.516 38.8997 12.602 38.9238C12.8418 38.9932 12.533 38.1751 12.2302 38.091C10.626 37.6267 9.08176 36.9343 8.65413 36.5186C8.39751 36.4885 7.71252 36.2831 7.6011 35.3693C7.59662 35.3446 7.59783 35.3234 7.6292 35.3164C7.65827 35.3099 7.67014 35.3308 7.67268 35.3434C7.86887 36.1729 8.4428 36.394 8.68538 36.3997C8.81957 36.4028 9.0309 36.2711 8.97555 36.2393C8.55918 36.0014 8.3252 35.5223 8.30873 35.4727C8.29796 35.4404 8.31019 35.4316 8.33078 35.4207C8.35003 35.4108 8.37232 35.4187 8.39327 35.4505C8.50069 35.6146 8.89586 36.2557 9.48105 36.2733C9.63583 36.2779 9.80611 36.2726 9.84062 36.1361C9.84062 36.1361 9.34566 35.9114 9.10283 35.5162C9.09436 35.5036 9.08745 35.4795 9.1187 35.4608C9.15055 35.4419 9.17514 35.4743 9.18967 35.4876C9.66223 35.965 10.0417 36.1589 10.2712 36.1349C10.3639 36.1291 10.4288 36.0637 10.4322 36.0177C10.4446 35.8443 10.2664 35.7382 10.2196 35.7068C10.2128 35.7024 10.2092 35.6866 10.2169 35.6765C10.2239 35.6666 10.242 35.6615 10.2657 35.6728C10.3584 35.7162 10.5397 35.8445 10.5246 36.0468C10.5218 36.0827 10.5171 36.1066 10.4896 36.1361C10.7578 36.2749 11.2141 36.4536 11.4262 36.5183C10.7757 35.4444 10.0567 34.3154 9.11967 33.753C9.09448 33.8332 9.17283 34.0156 9.07946 33.9715C9.01467 33.941 8.95811 33.6751 8.95569 33.5553C8.94346 32.9354 8.77088 32.4184 8.54078 32.121C8.41349 32.2191 8.18242 32.2689 8.18339 32.2703C8.64432 31.8677 8.70354 31.5851 8.70354 31.5851C8.56912 31.6875 8.24636 31.8286 8.07839 31.8573C8.07839 31.8573 8.60436 31.5547 8.81545 31.015C8.81545 31.0104 8.47986 31.3392 7.98901 31.4485C7.98877 31.4478 8.80467 31.0817 8.78965 30.5405V30.5405ZM9.9478 36.1745C9.9386 36.2329 9.92067 36.2885 9.82718 36.33C10.6821 36.8304 11.5947 37.1034 11.7949 37.1604C11.8361 37.1313 11.7317 36.7468 11.4453 36.6469C11.0179 36.4972 10.6619 36.3487 10.4092 36.1926C10.3201 36.2409 10.1877 36.2694 9.9478 36.1745V36.1745ZM9.10405 36.3038C9.09412 36.3746 8.90555 36.4793 8.82065 36.494C9.4354 37.0087 11.6007 37.8026 12.2193 37.9453C12.3186 37.9682 12.1745 37.5297 11.902 37.35C11.7029 37.2179 10.4517 36.933 9.65896 36.371C9.52526 36.3925 9.35874 36.3975 9.10405 36.3038ZM12.7921 38.6055C12.8176 38.66 12.8309 38.7306 12.843 38.7962C12.952 39.3044 12.562 39.0229 11.5664 38.6928C12.3646 39.9341 13.5805 41.7672 14.2684 42.6244C14.3072 42.3716 14.335 42.1498 14.352 42.0054L14.3665 41.8826L14.5106 41.8278L12.6359 39.4604H12.803C12.803 39.4604 13.8712 40.8198 14.6463 41.7759L15.1828 41.5692C14.3968 40.7504 13.0888 39.4201 13.0888 39.4201L13.2596 39.4245C13.2584 39.411 15.7932 42.0031 15.7932 42.0031C15.9324 42.1569 16.1686 41.6359 15.7883 41.2189C15.5776 40.8876 12.7921 38.6055 12.7921 38.6055ZM2.73477 40.6459C2.12802 40.6459 1.69894 40.948 1.19634 41.5513C0.473174 42.4193 -0.223521 44.6041 0.734838 45.7167C1.05595 46.09 1.70451 46.5086 2.58342 46.443C3.54441 46.3703 3.80527 46.0149 4.55263 46.5086C4.90444 46.2355 5.44083 46.3393 5.74832 46.4096C4.86944 44.9523 3.18775 46.4645 1.80967 45.7943C1.33214 45.5617 1.00113 44.9785 0.989866 44.4455C0.978373 43.9064 1.11027 43.3065 1.31107 42.7937C1.26723 42.7138 1.23089 42.6244 1.2051 42.529C1.09913 42.1331 1.23247 41.7364 1.46839 41.647C1.48122 41.641 1.49503 41.6358 1.51005 41.6319C1.74851 41.564 1.97643 41.506 2.19527 41.4446C2.27193 41.3774 2.34944 41.3201 2.42683 41.2752C2.70247 41.1166 3.22941 41.1099 3.53714 41.3307C3.39423 41.4961 3.27107 41.7213 3.47332 41.9065C3.63136 42.0567 3.89162 41.9947 3.99868 41.8163C4.16351 41.5401 4.02896 41.2296 3.83373 41.0323C3.59915 40.8015 3.1657 40.6459 2.7348 40.6459H2.73477ZM15.2912 41.6824L15.1386 42.3763C15.2972 42.5624 15.4038 42.6816 15.4292 42.6924C15.6739 42.7997 15.8495 42.3227 15.755 42.1867C15.7235 42.1402 15.5431 41.947 15.2912 41.6824V41.6824ZM8.72752 41.7364L8.09365 41.9828L7.83799 43.0859C7.83799 43.0859 7.83569 42.9822 7.63078 42.9476C7.18013 42.8736 6.93017 43.1992 6.74657 43.5379C6.60936 43.7907 6.45676 44.2475 6.45676 44.5814C6.45676 44.5814 6.23465 44.8688 6.06244 44.8474C5.47119 44.771 6.45773 42.9893 6.45773 42.9893H5.32828L5.36352 42.8581H4.93044C4.81079 43.365 4.53685 44.3 4.2589 44.6852C4.10825 44.8939 3.93712 44.8354 3.93228 44.6911C3.92731 44.5432 4.3128 42.9285 4.3128 42.9285H3.76781L3.71622 43.1229C3.56339 43.0263 3.1647 42.8701 2.81082 43.2624C2.34807 43.774 2.27105 44.3178 2.40984 44.7269C2.42909 44.8044 1.981 45.0143 1.981 45.0143C1.981 45.0143 2.1652 45.1228 2.2696 45.3387C2.44133 45.3339 2.58605 45.1014 2.60458 45.1133C2.86908 45.3101 3.19292 45.3077 3.46153 45.0239C3.62527 45.1932 3.86991 45.2552 4.05399 45.2552C4.78826 45.2552 5.00929 43.9827 5.21517 43.3876H5.79951C5.71413 43.6178 5.54591 43.972 5.43425 44.3059C5.31714 44.6553 5.24593 45.0072 5.4638 45.1598C5.7983 45.3935 6.27074 45.1801 6.53669 44.9475C6.64835 45.1598 6.88112 45.2624 7.06775 45.2552C7.27351 45.2516 7.42865 45.1992 7.58124 45.0799C7.86584 45.4663 8.30026 45.1717 8.53956 44.9523C8.58123 45.1145 8.68453 45.254 8.88157 45.2552C9.1147 45.2564 9.36116 45.1288 9.5536 44.9475L9.46906 45.2552H10.0418L10.2937 44.3477C10.5711 43.2469 10.9141 43.5391 10.9414 43.5832C11.0048 43.6798 10.8999 43.8647 10.7848 44.2701C10.7047 44.5528 10.4915 45.2135 11.0022 45.2552C11.2946 45.2791 11.6779 45.1014 11.8753 44.8748C12.1666 45.3363 12.5166 45.3232 12.978 45.062C13.0785 45.1896 13.1536 45.2803 13.3401 45.2552C13.5545 45.2457 13.7664 45.0382 13.8827 44.9189C13.9481 45.1026 14.0837 45.2588 14.3078 45.2552C14.619 45.2504 14.8952 44.9642 15.0986 44.7543C15.3723 45.1038 15.6497 45.3339 16.1256 45.2552C16.4587 45.1992 16.5882 45.0584 16.9104 45.3268C16.9104 45.3268 16.9334 45.0584 17.3742 44.7722C17.132 44.653 16.8874 44.684 16.7505 44.7257C16.9043 44.4478 16.6984 44.0603 16.6246 43.7883C16.5592 43.5427 16.5156 43.3686 16.6076 43.1193C16.6488 43.0084 16.3182 42.8677 16.2637 42.8438C15.9815 42.9512 14.7728 44.5754 14.6469 44.6792C14.5888 44.7281 14.4507 44.8068 14.5343 44.449C14.5343 44.449 15.141 41.7393 15.1374 41.7364L14.4967 41.9828C14.424 42.5815 14.2339 44.2701 13.6514 44.6231C13.5981 44.6553 13.4213 44.7841 13.3692 44.6828C13.3401 44.6279 13.7458 42.9368 13.7495 42.919H13.2348L13.1948 43.0728C13.11 42.919 12.8957 42.919 12.7588 42.944C11.7831 43.1241 11.7676 44.5516 11.7349 44.6005C11.4521 44.9439 11.1975 44.8569 11.205 44.6458C11.218 44.2821 11.6632 43.3113 11.4665 43.0633C11.2499 42.7902 10.8039 42.9857 10.5806 43.2219L10.6494 42.9297H10.1088C10.031 43.2994 9.74931 44.3548 9.51642 44.6231C9.39373 44.7639 9.08152 44.8056 9.09508 44.6553C9.11059 44.4812 9.55142 42.9273 9.55142 42.9273H9.00498C9.00498 42.9273 8.72425 44.1616 8.49572 44.554C8.30014 44.8903 8.04932 44.7424 8.06385 44.5468C8.09086 44.1902 8.72752 41.7364 8.72752 41.7364V41.7364ZM9.51072 41.8254C9.33669 41.8254 9.19572 41.9649 9.19572 42.1354C9.19572 42.3072 9.33669 42.4455 9.51072 42.4455C9.68451 42.4455 9.82585 42.3072 9.82585 42.1354C9.82585 41.9649 9.68451 41.8254 9.51072 41.8254ZM15.0974 42.5695L14.9727 43.1348C15.1773 43.1289 15.3832 42.9535 15.2815 42.8033L15.0974 42.5695ZM16.2019 43.3542C16.0566 43.9303 16.5737 44.3918 16.2673 44.7627C16.145 44.8879 15.8543 44.9058 15.6896 44.7508C15.3554 44.4419 15.3614 44.3978 15.5419 44.1688C15.801 43.8372 15.9694 43.5594 16.2019 43.3542V43.3542ZM7.60922 43.3698C7.63804 43.3686 7.66759 43.3709 7.69763 43.3781C7.86512 43.4186 7.66093 43.9863 7.53231 44.5707C7.49247 44.7531 7.11716 44.8402 7.03154 44.6446C6.89723 44.3393 7.17711 43.3924 7.60922 43.3698ZM3.5147 43.3888C3.55951 43.3912 3.60735 43.402 3.65833 43.421C3.65833 43.421 3.54122 44.777 3.08683 44.777C2.94441 44.777 2.82136 44.5886 2.95325 44.0722C3.03608 43.7454 3.20127 43.3733 3.5147 43.3888V43.3888ZM12.9587 43.4008C13.0071 43.4043 13.0592 43.4163 13.1161 43.4377C13.1161 43.4377 12.978 44.7818 12.5118 44.7818C12.3701 44.7818 12.2465 44.5933 12.3785 44.0769C12.4609 43.7502 12.6183 43.3733 12.9587 43.4008V43.4008Z" fill="#B72126"/>
<path d="M6.12219 32.5222C5.68051 32.789 5.4819 33.2837 5.4819 33.2837C5.87053 33.2019 5.93145 33.0921 6.22719 33.1173C6.33268 33.1264 6.38257 33.1737 6.4665 33.2347C6.33801 33.206 6.23882 33.1997 6.13067 33.1972C5.98038 33.1938 5.68306 33.2977 5.53204 33.3125C5.53204 33.3125 6.02737 33.5225 6.1796 33.5447C6.1796 33.5447 6.49932 33.6685 6.59173 33.2698C6.64186 33.0535 6.47607 32.7405 6.26292 32.828C6.26074 32.8289 6.30107 32.6001 6.12219 32.5222V32.5222ZM14.9672 37.8918C14.9563 37.8912 14.9454 37.892 14.9357 37.8939C14.8327 37.9129 14.8291 38.0283 14.8291 38.0283C14.8291 38.0283 14.846 38.131 14.7286 38.2172C14.6704 38.2609 14.4936 38.3374 14.209 38.393L13.1142 38.6996L13.4473 38.9751L14.5711 38.6183C14.5711 38.6183 14.9865 38.5161 14.9865 38.3234C14.9865 38.0267 15.144 38.5913 15.0798 38.7033C15.0798 38.7033 15.1331 38.7535 15.2251 38.6879C15.3159 38.6224 15.299 38.4422 15.2082 38.1884C15.127 37.966 15.0422 37.8958 14.9672 37.8918V37.8918ZM11.15 39.2386L10.0039 39.547C9.99581 39.5497 9.98661 39.5526 9.9768 39.5558C10.1058 39.7118 10.1721 39.9627 9.99896 40.1291C10.1041 40.0918 10.2421 40.0424 10.2421 40.0424C10.7021 39.8793 11.257 39.6903 11.8915 39.4802C11.8915 39.4802 11.8944 39.4793 11.8984 39.4783C11.8846 39.4575 11.8766 39.4455 11.8766 39.4455C11.6532 39.3965 11.3965 39.3197 11.15 39.2386V39.2386ZM9.72623 39.6295C9.68263 39.6401 9.64593 39.6471 9.62438 39.6469C9.55535 39.6644 8.67841 39.8884 8.48379 39.9382C8.68713 40.1135 8.72116 40.472 8.48112 40.6769C8.9733 40.4962 9.53185 40.2959 9.83789 40.1865L9.89965 40.1645C9.97002 40.0378 9.96626 39.7858 9.83631 39.6814C9.80725 39.658 9.76595 39.6414 9.72623 39.6295V39.6295ZM8.14287 40.0286C8.13585 40.029 8.12822 40.0291 8.1195 40.0291C8.03157 40.0511 7.96 40.0685 7.96 40.0685C7.63495 40.1481 7.40811 40.2007 7.28616 40.2248C6.62309 40.356 5.61681 40.6088 4.02716 41.0438C4.19598 41.2682 4.29904 41.5878 4.12029 41.8876C4.04314 42.0164 3.90617 42.1059 3.75394 42.1261C3.61297 42.1452 3.47491 42.1023 3.37693 42.0093C3.26454 41.9067 3.12527 41.6954 3.32861 41.3747C3.24722 41.3403 3.15664 41.32 3.06399 41.3097L1.52387 41.7422C1.51611 41.7446 1.50836 41.7463 1.50073 41.7483C1.30321 41.8185 1.21407 42.1655 1.30248 42.4958C1.39343 42.8357 1.62596 43.0957 1.83681 43.0408C2.04717 42.986 2.12892 42.6449 2.03785 42.3062C2.00297 42.175 1.97439 42.0868 1.90681 41.9926C1.90681 41.9926 2.05117 42.1106 2.11923 42.4004C2.17736 42.6485 2.16828 42.8476 2.09767 42.9824C4.80612 42.082 6.64937 41.4219 7.57572 41.0216C7.68448 40.9745 7.93105 40.8798 8.30842 40.7405C8.30842 40.7405 8.34633 40.7266 8.3754 40.716C8.46175 40.5684 8.4787 40.214 8.29995 40.0897C8.25816 40.0604 8.19519 40.0409 8.14287 40.0286V40.0286Z" fill="#FEE60E"/>
<defs>
<clipPath id="clip0">
<rect width="176.439" height="60.4476" rx="9" fill="white"/>
</clipPath>
</defs>
</svg>
