<svg width="177" height="61" viewBox="0 0 177 61" fill="none" xmlns="http://www.w3.org/2000/svg">
<g clip-path="url(#clip0)">
<rect y="0.392578" width="176.439" height="60.4476" rx="9" fill="#242424"/>
</g>
<path d="M27.1273 23.4702V12.3362H23.3653V11.0062H32.4853V12.3362H28.7233V23.4702H27.1273ZM38.8639 23.6982C38.0786 23.6982 37.3566 23.5462 36.6979 23.2422C36.0519 22.9382 35.4946 22.5075 35.0259 21.9502C34.5572 21.3802 34.1899 20.6962 33.9239 19.8982C33.6706 19.0875 33.5439 18.1819 33.5439 17.1812C33.5439 16.1805 33.6706 15.2875 33.9239 14.5022C34.1899 13.7042 34.5572 13.0329 35.0259 12.4882C35.4946 11.9309 36.0519 11.5065 36.6979 11.2152C37.3566 10.9239 38.0786 10.7782 38.8639 10.7782C39.6492 10.7782 40.3649 10.9302 41.0109 11.2342C41.6696 11.5255 42.2332 11.9499 42.7019 12.5072C43.1832 13.0519 43.5506 13.7232 43.8039 14.5212C44.0699 15.3065 44.2029 16.1932 44.2029 17.1812C44.2029 18.1819 44.0699 19.0875 43.8039 19.8982C43.5506 20.6962 43.1832 21.3802 42.7019 21.9502C42.2332 22.5075 41.6696 22.9382 41.0109 23.2422C40.3649 23.5462 39.6492 23.6982 38.8639 23.6982ZM38.8639 22.3112C39.4212 22.3112 39.9216 22.1909 40.3649 21.9502C40.8209 21.7095 41.2072 21.3675 41.5239 20.9242C41.8532 20.4682 42.1066 19.9299 42.2839 19.3092C42.4612 18.6759 42.5499 17.9665 42.5499 17.1812C42.5499 16.4085 42.4612 15.7119 42.2839 15.0912C42.1066 14.4705 41.8532 13.9449 41.5239 13.5142C41.2072 13.0835 40.8209 12.7542 40.3649 12.5262C39.9216 12.2855 39.4212 12.1652 38.8639 12.1652C38.3066 12.1652 37.7999 12.2855 37.3439 12.5262C36.9006 12.7542 36.5142 13.0835 36.1849 13.5142C35.8682 13.9449 35.6212 14.4705 35.4439 15.0912C35.2666 15.7119 35.1779 16.4085 35.1779 17.1812C35.1779 17.9665 35.2666 18.6759 35.4439 19.3092C35.6212 19.9299 35.8682 20.4682 36.1849 20.9242C36.5142 21.3675 36.9006 21.7095 37.3439 21.9502C37.7999 22.1909 38.3066 22.3112 38.8639 22.3112ZM46.8831 23.4702V11.0062H50.7781C51.4114 11.0062 51.9941 11.0695 52.5261 11.1962C53.0708 11.3102 53.5331 11.5065 53.9131 11.7852C54.3058 12.0639 54.6098 12.4249 54.8251 12.8682C55.0404 13.3115 55.1481 13.8562 55.1481 14.5022C55.1481 15.4775 54.8948 16.2565 54.3881 16.8392C53.8814 17.4219 53.1974 17.8209 52.3361 18.0362L55.5091 23.4702H53.7231L50.7211 18.2072H48.4601V23.4702H46.8831ZM48.4601 16.9152H50.5501C51.5254 16.9152 52.2728 16.7189 52.7921 16.3262C53.3114 15.9209 53.5711 15.3129 53.5711 14.5022C53.5711 13.6789 53.3114 13.1025 52.7921 12.7732C52.2728 12.4439 51.5254 12.2792 50.5501 12.2792H48.4601V16.9152Z" fill="#DBDD83"/>
<path d="M126.382 21.593V20.641H128.426V14.061H126.802V13.319C127.212 13.2444 127.567 13.1557 127.866 13.053C128.174 12.941 128.449 12.8104 128.692 12.661H129.574V20.641H131.422V21.593H126.382ZM135.525 17.253C135.823 17.253 136.136 17.1597 136.463 16.973C136.799 16.7864 137.111 16.483 137.401 16.063C137.326 15.1857 137.121 14.523 136.785 14.075C136.449 13.627 135.996 13.403 135.427 13.403C135.212 13.403 135.007 13.4497 134.811 13.543C134.624 13.6364 134.461 13.7717 134.321 13.949C134.181 14.117 134.069 14.3224 133.985 14.565C133.91 14.8077 133.873 15.0737 133.873 15.363C133.873 15.951 134.008 16.413 134.279 16.749C134.549 17.085 134.965 17.253 135.525 17.253ZM135.105 21.761C134.629 21.761 134.209 21.6724 133.845 21.495C133.49 21.3177 133.191 21.0937 132.949 20.823L133.593 20.095C133.779 20.3097 133.999 20.4824 134.251 20.613C134.512 20.7437 134.783 20.809 135.063 20.809C135.38 20.809 135.679 20.7437 135.959 20.613C136.239 20.4824 136.486 20.2677 136.701 19.969C136.915 19.661 137.088 19.2644 137.219 18.779C137.349 18.2937 137.419 17.6917 137.429 16.973C137.149 17.3277 136.822 17.6077 136.449 17.813C136.075 18.0184 135.702 18.121 135.329 18.121C134.554 18.121 133.938 17.8924 133.481 17.435C133.023 16.9777 132.795 16.287 132.795 15.363C132.795 14.9337 132.865 14.5464 133.005 14.201C133.145 13.8464 133.331 13.543 133.565 13.291C133.807 13.039 134.087 12.843 134.405 12.703C134.731 12.563 135.072 12.493 135.427 12.493C135.865 12.493 136.271 12.5817 136.645 12.759C137.027 12.9364 137.354 13.207 137.625 13.571C137.905 13.9257 138.119 14.3737 138.269 14.915C138.427 15.447 138.507 16.0724 138.507 16.791C138.507 17.687 138.413 18.4524 138.227 19.087C138.04 19.7124 137.788 20.2257 137.471 20.627C137.153 21.019 136.789 21.3084 136.379 21.495C135.977 21.6724 135.553 21.761 135.105 21.761ZM140.944 16.707C140.71 16.707 140.51 16.6277 140.342 16.469C140.183 16.301 140.104 16.091 140.104 15.839C140.104 15.5684 140.183 15.3537 140.342 15.195C140.51 15.027 140.71 14.943 140.944 14.943C141.168 14.943 141.359 15.027 141.518 15.195C141.686 15.3537 141.77 15.5684 141.77 15.839C141.77 16.091 141.686 16.301 141.518 16.469C141.359 16.6277 141.168 16.707 140.944 16.707ZM140.944 21.761C140.71 21.761 140.51 21.6817 140.342 21.523C140.183 21.355 140.104 21.145 140.104 20.893C140.104 20.6224 140.183 20.4077 140.342 20.249C140.51 20.081 140.71 19.997 140.944 19.997C141.168 19.997 141.359 20.081 141.518 20.249C141.686 20.4077 141.77 20.6224 141.77 20.893C141.77 21.145 141.686 21.355 141.518 21.523C141.359 21.6817 141.168 21.761 140.944 21.761ZM143.786 21.593V20.641H145.83V14.061H144.206V13.319C144.617 13.2444 144.971 13.1557 145.27 13.053C145.578 12.941 145.853 12.8104 146.096 12.661H146.978V20.641H148.826V21.593H143.786ZM153.125 21.761C152.22 21.761 151.515 21.3597 151.011 20.557C150.507 19.7544 150.255 18.6017 150.255 17.099C150.255 15.5964 150.507 14.453 151.011 13.669C151.515 12.885 152.22 12.493 153.125 12.493C154.021 12.493 154.721 12.885 155.225 13.669C155.729 14.453 155.981 15.5964 155.981 17.099C155.981 18.6017 155.729 19.7544 155.225 20.557C154.721 21.3597 154.021 21.761 153.125 21.761ZM153.125 20.837C153.386 20.837 153.62 20.767 153.825 20.627C154.04 20.4777 154.222 20.2537 154.371 19.955C154.53 19.647 154.651 19.2597 154.735 18.793C154.819 18.317 154.861 17.7524 154.861 17.099C154.861 16.4457 154.819 15.8857 154.735 15.419C154.651 14.9524 154.53 14.5744 154.371 14.285C154.222 13.9864 154.04 13.767 153.825 13.627C153.62 13.487 153.386 13.417 153.125 13.417C152.864 13.417 152.626 13.487 152.411 13.627C152.196 13.767 152.01 13.9864 151.851 14.285C151.702 14.5744 151.585 14.9524 151.501 15.419C151.417 15.8857 151.375 16.4457 151.375 17.099C151.375 18.4057 151.534 19.3577 151.851 19.955C152.178 20.543 152.602 20.837 153.125 20.837Z" fill="white"/>
<path d="M28.0013 46.5395C27.1273 46.5395 26.3166 46.3749 25.5693 46.0455C24.8219 45.7162 24.1759 45.2665 23.6313 44.6965L24.5813 43.5945C25.0246 44.0632 25.5439 44.4432 26.1393 44.7345C26.7473 45.0132 27.3743 45.1525 28.0203 45.1525C28.8436 45.1525 29.4833 44.9689 29.9393 44.6015C30.3953 44.2215 30.6233 43.7275 30.6233 43.1195C30.6233 42.8029 30.5663 42.5369 30.4523 42.3215C30.3509 42.0935 30.2053 41.9035 30.0153 41.7515C29.8379 41.5869 29.6226 41.4412 29.3693 41.3145C29.1159 41.1879 28.8436 41.0549 28.5523 40.9155L26.7663 40.1365C26.4749 40.0099 26.1773 39.8579 25.8733 39.6805C25.5693 39.5032 25.2969 39.2879 25.0563 39.0345C24.8156 38.7812 24.6193 38.4835 24.4673 38.1415C24.3153 37.7869 24.2393 37.3815 24.2393 36.9255C24.2393 36.4569 24.3343 36.0199 24.5243 35.6145C24.7269 35.2092 24.9993 34.8609 25.3413 34.5695C25.6959 34.2655 26.1076 34.0312 26.5763 33.8665C27.0576 33.7019 27.5833 33.6195 28.1533 33.6195C28.9006 33.6195 29.5909 33.7652 30.2243 34.0565C30.8576 34.3352 31.3959 34.7025 31.8393 35.1585L30.9843 36.1845C30.6043 35.8172 30.1799 35.5322 29.7113 35.3295C29.2553 35.1142 28.7359 35.0065 28.1533 35.0065C27.4566 35.0065 26.8929 35.1712 26.4623 35.5005C26.0443 35.8172 25.8353 36.2605 25.8353 36.8305C25.8353 37.1345 25.8923 37.3942 26.0063 37.6095C26.1329 37.8122 26.2976 37.9959 26.5003 38.1605C26.7029 38.3125 26.9246 38.4519 27.1653 38.5785C27.4059 38.6925 27.6529 38.8002 27.9063 38.9015L29.6733 39.6615C30.0279 39.8135 30.3636 39.9909 30.6803 40.1935C30.9969 40.3835 31.2693 40.6115 31.4973 40.8775C31.7253 41.1309 31.9026 41.4349 32.0293 41.7895C32.1686 42.1315 32.2383 42.5305 32.2383 42.9865C32.2383 43.4805 32.1369 43.9429 31.9343 44.3735C31.7443 44.8042 31.4656 45.1842 31.0983 45.5135C30.7309 45.8302 30.2876 46.0835 29.7683 46.2735C29.2489 46.4509 28.6599 46.5395 28.0013 46.5395ZM36.9056 46.3115V35.1775H33.1436V33.8475H42.2636V35.1775H38.5016V46.3115H36.9056ZM44.5081 46.3115V33.8475H46.0851V44.9625H51.5381V46.3115H44.5081Z" fill="white"/>
<path d="M133.146 45.4727V36.2887H135.764C136.277 36.2887 136.744 36.3353 137.164 36.4287C137.593 36.522 137.957 36.676 138.256 36.8907C138.555 37.096 138.788 37.3713 138.956 37.7167C139.124 38.062 139.208 38.4867 139.208 38.9907C139.208 39.476 139.124 39.896 138.956 40.2507C138.797 40.6053 138.569 40.8993 138.27 41.1327C137.971 41.366 137.612 41.5433 137.192 41.6647C136.781 41.7767 136.324 41.8327 135.82 41.8327H134.308V45.4727H133.146ZM134.308 40.8807H135.68C136.483 40.8807 137.075 40.7313 137.458 40.4327C137.85 40.1247 138.046 39.644 138.046 38.9907C138.046 38.328 137.841 37.8707 137.43 37.6187C137.029 37.3573 136.427 37.2267 135.624 37.2267H134.308V40.8807ZM141.076 45.4727V36.2887H142.476L144.24 41.1887C144.352 41.506 144.459 41.828 144.562 42.1547C144.674 42.472 144.786 42.7893 144.898 43.1067H144.954C145.066 42.7893 145.168 42.472 145.262 42.1547C145.364 41.828 145.472 41.506 145.584 41.1887L147.32 36.2887H148.734V45.4727H147.642V40.4187C147.642 40.008 147.66 39.5553 147.698 39.0607C147.735 38.566 147.768 38.1133 147.796 37.7027H147.74L147.012 39.7887L145.276 44.5487H144.506L142.77 39.7887L142.042 37.7027H141.986C142.014 38.1133 142.042 38.566 142.07 39.0607C142.107 39.5553 142.126 40.008 142.126 40.4187V45.4727H141.076Z" fill="white"/>
<path d="M11.7002 7.69044C10.4867 7.48395 9.26558 7.51824 8.07202 7.79316C6.83626 8.07791 5.69226 8.60732 4.67075 9.36677C2.73263 10.8077 1.47964 12.905 1.14354 15.2739C0.807216 17.6423 1.42861 19.9981 2.89164 21.9068C4.28752 23.7284 6.31386 24.9462 8.59693 25.3351C9.8108 25.5416 11.0307 25.5071 12.2244 25.2317C13.4607 24.9482 14.6053 24.4189 15.6258 23.6594C17.5641 22.2193 18.8173 20.1214 19.1535 17.7521C19.4896 15.3836 18.8679 13.028 17.4054 11.1191C16.0091 9.29739 13.9828 8.08014 11.7001 7.69121" fill="#134A8E"/>
<path d="M18.8227 17.7063C18.4989 19.9881 17.2922 22.0093 15.4252 23.3964C14.4405 24.1286 13.3379 24.6382 12.1474 24.9125C12.0037 24.9456 11.8593 24.975 11.7152 25.0008C10.7039 25.1825 9.676 25.1862 8.65346 25.0123C7.0042 24.7307 5.49439 24.0008 4.27447 22.9131C3.86831 22.5501 3.49412 22.1482 3.15795 21.7095C2.01218 20.2159 1.40268 18.4369 1.3874 16.5986C1.38454 16.174 1.41277 15.7469 1.47385 15.3194C1.73802 13.4552 2.5914 11.7654 3.91407 10.452C4.20985 10.1579 4.52993 9.88248 4.87111 9.62868C5.53323 9.13603 6.24912 8.74522 7.00924 8.45785C7.37878 8.31837 7.75887 8.20264 8.14821 8.11347C9.29901 7.84841 10.4746 7.81516 11.6435 8.0141C13.8427 8.3882 15.7942 9.56065 17.1397 11.316C18.5489 13.1549 19.1475 15.4237 18.8236 17.7064" fill="white"/>
<path d="M18.1411 19.6601C18.3947 19.0323 18.5739 18.3708 18.6709 17.685C18.7698 16.9847 18.7818 16.2863 18.708 15.601V15.599C18.7057 15.5853 18.7038 15.5707 18.702 15.5559C18.5326 14.0629 17.9593 12.6369 17.0167 11.4065C15.9709 10.0426 14.552 9.03646 12.9349 8.49452C12.5087 8.351 12.0683 8.23931 11.6169 8.1628C11.5442 8.15067 11.4712 8.13888 11.3979 8.1278C10.9589 8.06483 10.5163 8.03652 10.0771 8.04039C9.83581 8.04232 9.59504 8.05534 9.35445 8.07732C9.25157 8.087 9.14743 8.0986 9.04563 8.11144C9.00348 8.11689 8.96061 8.12217 8.91846 8.12903C7.49444 8.332 6.12771 8.88375 4.96349 9.74906C4.36336 10.1953 3.83309 10.7076 3.37972 11.2745C2.44596 12.439 1.83973 13.8315 1.62557 15.34C1.52644 16.0406 1.51448 16.7399 1.58967 17.4261C1.67255 18.1956 1.86348 18.9485 2.15694 19.6654C2.43807 20.3533 2.81316 21.0099 3.27951 21.6175C3.81678 22.3184 4.45211 22.924 5.16212 23.4221C5.42093 23.6033 5.69064 23.7709 5.96819 23.9225C6.80374 24.3789 7.71769 24.6982 8.68004 24.8616V24.8626C8.89903 24.9001 9.11889 24.9279 9.3393 24.9481C9.70259 24.9819 10.067 24.9928 10.429 24.9801C10.5229 24.9769 10.616 24.9725 10.7101 24.9658C12.3714 24.8568 13.9875 24.2762 15.3322 23.2755C15.4653 23.1757 15.5957 23.073 15.7229 22.968C16.8032 22.0652 17.6267 20.9341 18.1407 19.66" fill="#134A8E"/>
<path d="M15.1317 23.0147C13.2864 24.3866 11.0152 24.9284 8.73612 24.5396C6.65986 24.186 4.81563 23.0785 3.54568 21.4209C2.21417 19.6841 1.64985 17.5406 1.95483 15.386C2.26115 13.2305 3.40074 11.3222 5.16392 10.0108C7.00918 8.63985 9.28144 8.09773 11.5603 8.48648C13.4102 8.80131 15.0745 9.71418 16.3134 11.0817C16.3184 11.087 16.3213 11.0899 16.3239 11.0931C16.4724 11.2569 16.6147 11.4278 16.7506 11.6049C18.0823 13.3411 18.6471 15.4856 18.3415 17.6402C18.0354 19.7954 16.8956 21.7038 15.1324 23.0147" fill="white"/>
<path d="M6.10828 14.3853C5.84537 14.4948 5.70997 14.6239 5.51207 14.9328C3.35727 15.2838 2.61941 15.6229 2.42491 15.8338C2.39687 15.8723 2.40904 15.8911 2.43601 15.8988C3.15242 15.8692 4.15616 15.8336 5.91319 15.892C6.05841 15.8939 6.20015 15.8974 6.33929 15.8999C6.42788 15.7845 6.5877 15.6827 6.89402 15.6827H6.92495H6.9839C7.55331 15.6899 7.65819 16.2654 8.26279 16.2654C8.86132 16.2654 8.96997 15.7 9.52649 15.6831C9.5456 15.6831 9.56429 15.6827 9.5818 15.6827H11.667L11.6381 15.3421H9.55184C8.97261 15.3421 8.87008 14.759 8.26187 14.759C7.66018 14.759 7.55545 15.3393 6.99118 15.3393H6.98554C6.39148 15.2987 6.15646 14.804 6.10824 14.3853L6.10828 14.3853ZM2.48233 15.9794C2.41035 15.9785 2.39083 16.0074 2.46996 16.0685C2.81218 16.3128 3.97232 16.755 5.39606 17.016C6.08068 17.1416 6.39278 17.3267 6.88416 17.6649C7.95374 18.4012 9.41185 20.4801 10.3012 23.0508C11.9876 19.8256 13.9468 18.2815 14.0998 18.1634L13.0971 18.2442L12.6159 18.2827L12.9248 17.917L13.0924 17.7178L12.4445 17.1669C12.0923 17.6972 11.7492 18.2718 11.586 18.7152L12.2984 18.7123C11.9324 19.1593 11.2269 19.8977 10.7514 20.7166C10.2773 19.5682 9.16525 18.0913 7.15688 17.2795C6.57515 17.0447 6.02546 16.7328 6.09616 16.2792C5.0876 16.1373 3.98188 16.0219 2.7302 15.9828C2.64018 15.9812 2.55706 15.9795 2.48222 15.9792L2.48233 15.9794Z" fill="#1D2D5C"/>
<path d="M8.03162 15.0232C7.90606 15.1062 7.81502 15.2606 7.82002 15.41H8.02286C8.01304 15.3364 7.99018 15.1917 8.03162 15.0232" fill="white"/>
<path d="M10.3613 8.97461L9.96013 8.99844C9.99085 9.03379 10.0008 9.07819 10.0071 9.14678L10.0451 9.78261L9.08209 9.04143L9.16232 10.3817C9.16536 10.4445 9.16054 10.5088 9.11338 10.5617L9.53694 10.5374C9.49639 10.4959 9.4926 10.4488 9.48563 10.3659V10.3632L9.44979 9.7507L10.4101 10.4931L10.3291 9.13444C10.3264 9.08009 10.3292 9.02089 10.3613 8.97463L10.3613 8.97461ZM11.1049 9.04287L10.9713 9.3718C11.0505 9.33821 11.1115 9.34018 11.1957 9.35478L11.4196 9.39903L11.2089 10.424C11.1927 10.5026 11.1639 10.5521 11.11 10.5828L11.569 10.6745C11.537 10.6266 11.5191 10.562 11.5342 10.4889L11.7451 9.46426L11.9933 9.51353C12.0815 9.53129 12.1462 9.58002 12.1885 9.61995L12.1945 9.2602L11.1049 9.04289L11.1049 9.04287ZM7.79723 9.40118C7.5435 9.391 7.28861 9.50139 7.12552 9.7174C6.86385 10.0646 6.93499 10.5542 7.28489 10.8093C7.63408 11.0647 8.13068 10.9908 8.39201 10.6438C8.65314 10.2968 8.58199 9.8074 8.23263 9.55286C8.10142 9.45677 7.9495 9.40723 7.79726 9.40112L7.79723 9.40118ZM13.2064 9.67591C12.9526 9.6657 12.6974 9.77575 12.5339 9.9923C12.273 10.3395 12.3443 10.8291 12.6937 11.0841C13.0427 11.3396 13.5402 11.2648 13.8014 10.9176C14.0623 10.5718 13.9904 10.0823 13.6418 9.82705C13.5105 9.73135 13.3587 9.68197 13.2064 9.67585L13.2064 9.67591ZM7.78195 9.71873C7.87332 9.72225 7.96405 9.75115 8.04121 9.80741C8.24661 9.95797 8.29073 10.2555 8.13855 10.4576C7.98655 10.6609 7.68333 10.7049 7.47793 10.5543C7.27289 10.4043 7.22787 10.1066 7.38005 9.90399C7.47572 9.77757 7.62967 9.71287 7.78195 9.71874V9.71873ZM13.1896 9.99355C13.2808 9.99712 13.3714 10.026 13.4485 10.0822C13.6537 10.2319 13.6988 10.5307 13.5464 10.7326C13.3937 10.9347 13.0914 10.979 12.8854 10.8291C12.6802 10.6784 12.6357 10.3805 12.7881 10.1788C12.8838 10.0522 13.0376 9.9876 13.1896 9.99355H13.1896ZM5.93269 10.3926C5.87024 10.3941 5.80355 10.4081 5.73656 10.4341C5.7187 10.4406 5.63177 10.4782 5.56336 10.5275L5.55844 10.5316L5.14108 10.8303C5.1943 10.8422 5.25503 10.8634 5.29754 10.9198V10.92L6.02366 11.9151C6.0417 11.9526 6.05351 11.9995 6.04476 12.0511L6.41646 11.7856C6.34483 11.7792 6.30479 11.7378 6.25817 11.6815L5.9436 11.2549L6.7594 11.5396L7.10836 11.2893C7.05121 11.2863 6.98155 11.2737 6.90368 11.2527L6.36572 11.0717L6.37579 11.0457C6.44071 10.883 6.4096 10.7642 6.40271 10.7422C6.38659 10.6889 6.36069 10.6381 6.32483 10.5913C6.27768 10.5266 6.21972 10.4769 6.15381 10.4446L6.14435 10.4397C6.09154 10.4154 6.0444 10.4017 5.99354 10.3952C5.9738 10.3929 5.95341 10.392 5.93259 10.3925L5.93269 10.3926ZM5.92087 10.709C5.95166 10.7093 5.98143 10.718 6.01184 10.7348C6.06685 10.765 6.08958 10.834 6.09262 10.851C6.09476 10.863 6.10835 10.972 5.97618 11.0673L5.86356 11.1481L5.6445 10.8539L5.74966 10.7776C5.8153 10.731 5.86955 10.7084 5.92086 10.709L5.92087 10.709ZM14.9004 11.0976C13.3162 12.9072 8.89857 12.8847 7.75494 13.2545C7.00406 13.4968 6.61886 13.8993 6.35291 14.2975C6.32665 14.7075 6.629 15.0989 6.98606 15.0989C6.98606 15.0989 6.8924 14.8662 7.01207 14.6297C7.05905 14.5384 7.14522 14.4543 7.26042 14.3853C8.14206 13.7903 10.0311 14.3943 10.0311 14.3943C9.58657 14.3547 9.22104 14.3626 8.91238 14.4032C9.43571 14.5628 9.99527 14.7808 10.3744 14.8712C10.8418 14.9832 11.1508 15.0408 11.6152 15.0672L11.6005 14.887L11.8581 14.9301L12.5467 15.0466L12.6479 14.7924L12.7598 14.5129L12.9783 14.7225C12.9831 14.7271 13.3216 15.0514 13.4988 15.2211C13.4677 14.9017 13.3878 14.0888 13.3869 14.0801L13.3545 13.752L13.6649 13.8753L14.004 14.0102L14.5113 13.1913L14.6845 12.9132L14.8577 13.1913L15.2678 13.8516C15.411 13.2786 15.5137 12.6718 15.8129 12.3898C15.5128 12.4008 15.3019 12.4845 14.9739 12.7102C15.1599 12.2154 15.4346 11.8481 15.8061 11.4281C15.445 11.4821 15.1006 11.5841 14.7624 11.7739C14.8915 11.4715 14.9003 11.0975 14.9003 11.0975L14.9004 11.0976ZM4.69182 11.6988C4.43787 11.6888 4.18237 11.799 4.01883 12.0154C3.75806 12.3623 3.83047 12.8508 4.1793 13.1072C4.52867 13.3624 5.0249 13.2874 5.28605 12.9407C5.54718 12.5937 5.47604 12.1047 5.12721 11.85C4.99606 11.7543 4.84421 11.7048 4.69184 11.6988L4.69182 11.6988ZM4.67508 12.0158C4.76635 12.0193 4.85679 12.0482 4.93362 12.1046C5.13991 12.2552 5.18386 12.5527 5.03186 12.7546C4.8795 12.9576 4.57666 13.0021 4.37161 12.8508C4.16602 12.7017 4.12118 12.4031 4.27318 12.2008C4.36885 12.0746 4.52297 12.0099 4.67509 12.0158L4.67508 12.0158ZM3.31152 13.1496L2.89122 14.1617L3.19359 14.3541C3.17573 14.2709 3.18869 14.2122 3.21869 14.1329L3.30457 13.9252L4.28798 14.3212C4.36746 14.353 4.4075 14.3965 4.42643 14.4505L4.60582 14.0198C4.55188 14.0422 4.48461 14.0473 4.41425 14.0188L3.43065 13.6219L3.52708 13.3912C3.56084 13.3095 3.62202 13.2555 3.66918 13.2228L3.31157 13.1496L3.31152 13.1496ZM4.55743 18.2677C4.55743 18.3584 4.51453 18.4454 4.39932 18.4961L3.01024 19.1445C2.88021 19.2029 2.77743 19.19 2.69348 19.1045L3.03261 19.8097C3.3066 20.3762 3.75812 20.3488 3.95995 20.2552V20.2543C4.11535 20.1822 4.22904 20.0592 4.26833 19.875C4.26833 19.875 4.41534 19.9427 4.63075 19.8424H4.63166V19.8421C4.94673 19.6945 5.05985 19.3054 4.88856 18.9545L4.55743 18.2676V18.2677ZM4.52941 18.6502L4.7159 19.0364C4.8345 19.2837 4.75755 19.5559 4.5416 19.657C4.41336 19.7172 4.28225 19.6956 4.14044 19.5922L4.12515 19.58L4.12734 19.5988C4.15431 19.7988 4.05739 19.9754 3.86735 20.0643C3.61265 20.1833 3.36605 20.0583 3.20655 19.7285L3.02551 19.3523L4.52946 18.6502L4.52941 18.6502ZM4.48666 18.7673L3.90227 19.0404L4.05019 19.3466C4.15254 19.5594 4.33943 19.6542 4.5034 19.578C4.67575 19.4977 4.73353 19.2758 4.63457 19.0739L4.48666 18.7673V18.7673ZM15.8279 18.8422L15.7803 18.848C15.579 18.8745 15.3545 19.0325 15.2448 19.2235C15.1627 19.3691 15.1245 19.5123 15.1326 19.6493C15.1428 19.8335 15.2299 19.9891 15.3849 20.0994C15.4067 20.1142 15.4298 20.1292 15.4548 20.1431C15.819 20.3448 16.0493 20.1419 16.2344 19.9786L16.2493 19.965C16.4002 19.8324 16.5066 19.7661 16.6086 19.8229C16.6715 19.8572 16.7015 19.9723 16.6479 20.0747C16.6038 20.1586 16.5395 20.1909 16.5193 20.2001C16.4127 20.256 16.2425 20.1834 16.2404 20.1834L16.2373 20.1813L16.3115 20.4351H16.3146C16.3823 20.4425 16.4986 20.4149 16.5002 20.4149H16.5009C16.6363 20.3853 16.7413 20.3074 16.8122 20.1823C16.8153 20.1774 16.8175 20.1724 16.8195 20.1689L16.8232 20.1626C16.9337 19.9648 16.8887 19.7436 16.7171 19.6472C16.5821 19.5721 16.4632 19.57 16.3523 19.6422C16.2571 19.7035 16.1409 19.8009 16.14 19.8027C15.9485 19.9685 15.7841 20.0869 15.5576 19.9648C15.4486 19.9064 15.3736 19.8188 15.3414 19.7115C15.3066 19.5893 15.3285 19.4504 15.4068 19.3193C15.4486 19.25 15.6054 19.0237 15.8967 19.0305H15.8985L15.8298 18.8431V18.8422H15.828L15.8279 18.8422ZM4.39723 19.0246L4.46036 19.1556C4.50752 19.2539 4.49467 19.3487 4.41215 19.3872C4.31017 19.4345 4.23109 19.34 4.20001 19.2769L4.13706 19.1454L4.39724 19.0246H4.39723ZM3.82085 19.0776L3.14458 19.394L3.28777 19.6905C3.36761 19.8573 3.54451 20.1182 3.82885 19.9849C4.1491 19.8356 4.03013 19.5122 3.96421 19.3745L3.82084 19.0776H3.82085ZM15.9297 19.1171C15.8429 19.1152 15.6266 19.1346 15.4796 19.3713C15.3542 19.5731 15.4067 19.7781 15.6066 19.8893C15.7968 19.9944 15.9371 19.8706 16.0613 19.7606L16.068 19.7554L16.124 19.7099C16.1349 19.7011 16.145 19.6924 16.1553 19.6836C16.2702 19.5869 16.3781 19.4954 16.5374 19.5008C16.5494 19.5008 16.6553 19.5072 16.7544 19.5671C16.8554 19.6266 16.9213 19.708 16.9493 19.8074C16.9875 19.9405 16.9665 20.0874 16.8907 20.2216C16.8095 20.3627 16.681 20.4591 16.5283 20.4946C16.4631 20.5094 16.4254 20.513 16.3391 20.5169H16.3373L16.3986 20.7268H16.4004C16.7967 20.7082 16.9895 20.4226 17.0385 20.335C17.0486 20.3181 17.0536 20.3071 17.0536 20.3071C17.1318 20.1693 17.1686 20.0221 17.1611 19.8814C17.1486 19.6728 17.0367 19.494 16.8536 19.3928C16.426 19.1554 16.1263 19.4342 15.9821 19.5684L15.9759 19.5741C15.8355 19.7043 15.7689 19.7368 15.7027 19.7058C15.6878 19.6989 15.6799 19.6935 15.6686 19.6863C15.596 19.6358 15.5874 19.5455 15.6508 19.4489C15.6644 19.428 15.7897 19.2498 16.0191 19.3634L16.0229 19.3652L15.9319 19.1171H15.9297L15.9297 19.1171ZM3.75564 19.3219L3.81477 19.4435C3.89283 19.6074 3.86691 19.6999 3.81368 19.7506C3.79296 19.7701 3.75379 19.7938 3.72271 19.797C3.63877 19.8068 3.55828 19.8129 3.46254 19.608L3.40341 19.4856L3.75564 19.3219L3.75564 19.3219ZM5.3329 19.8117C5.35897 19.895 5.34268 19.9836 5.24266 20.0745C5.24266 20.0749 5.23888 20.0786 5.23138 20.0845C5.22888 20.0873 4.21117 20.9803 4.09212 21.0844C3.988 21.17 3.89497 21.1713 3.78101 21.1319L4.64558 22.0879L4.81024 21.9859L4.16909 21.2768L5.55705 20.0597L5.33291 19.8116L5.3329 19.8117ZM14.8931 19.9595L14.6429 20.196L15.0832 21.4967L15.6325 22.0591L15.6343 22.058L15.8981 21.8081C15.7842 21.8475 15.6992 21.8276 15.6181 21.7604H15.6177L15.2613 21.3996L14.8731 20.2632C14.8629 20.2216 14.8313 20.1522 14.8931 19.9595L14.8931 19.9595ZM5.61608 20.1257L4.2963 21.2844L4.88687 21.937L5.16669 21.7667C5.16669 21.7667 4.98456 21.7573 4.83775 21.5984L4.83156 21.5913C4.83156 21.5913 4.66855 21.411 4.57139 21.3043C4.70338 21.1878 5.43513 20.5446 5.55675 20.4393C5.5571 20.4393 5.55713 20.4393 5.55802 20.4384C5.56035 20.4366 5.563 20.4342 5.56621 20.4316C5.56621 20.4316 5.73341 20.3091 5.84094 20.374L5.61788 20.1272L5.61606 20.1257L5.61608 20.1257ZM14.5711 20.2649L14.2589 20.5607C14.338 20.5252 14.3868 20.5306 14.4088 20.5367C14.4247 20.5457 14.455 20.5566 14.4928 20.66L14.673 21.1409L14.1946 20.9475C14.1202 20.9101 14.0897 20.8623 14.0897 20.8623C14.0598 20.8099 14.0858 20.7536 14.1004 20.7112L13.7926 21.002L13.7862 21.0086L14.976 21.4504L14.571 20.2649L14.5711 20.2649ZM6.25455 20.8641C6.30866 20.9585 6.31361 21.0265 6.24163 21.1409C6.24073 21.141 5.60521 22.1288 5.60521 22.1288C5.39016 22.4679 5.49511 22.8211 5.88448 23.066C6.26582 23.3057 6.66378 23.2632 6.88186 22.9255L7.51719 21.938C7.58649 21.8344 7.67176 21.7959 7.76536 21.8068L7.48262 21.6305L6.73412 22.7924C6.72359 22.8082 6.70556 22.8357 6.70556 22.8357C6.57481 23.0399 6.25771 23.0728 5.99855 22.9102C5.90907 22.8545 5.83844 22.7827 5.78932 22.704C5.78736 22.7011 5.78512 22.699 5.78387 22.6956C5.6942 22.5488 5.67936 22.3773 5.76312 22.2467C5.76312 22.2467 5.76898 22.2367 5.79023 22.2035L6.53891 21.0414L6.25454 20.8641L6.25455 20.8641ZM13.7155 21.0758L13.4713 21.3064C13.6074 21.2619 13.6584 21.271 13.7706 21.3037L14.9134 21.7299L15.2391 22.0664C15.341 22.1656 15.3369 22.2841 15.3038 22.3717L15.5691 22.1196L15.0198 21.5581L13.7155 21.0758L13.7155 21.0758ZM6.61393 21.0885L5.85416 22.2688C5.73627 22.4514 5.82329 22.7024 6.04155 22.8385C6.25946 22.9745 6.52376 22.9515 6.64486 22.7667L7.40646 21.5834L7.12227 21.4049C7.18532 21.5056 7.17329 21.5833 7.10917 21.6826C7.10917 21.6826 6.70492 22.3105 6.49076 22.6422C6.4236 22.7386 6.26868 22.7558 6.14562 22.6791C6.02363 22.603 5.97334 22.4562 6.03246 22.3556C6.10123 22.2483 6.63582 21.4178 6.63867 21.4146C6.64582 21.4023 6.64959 21.3962 6.64959 21.3962C6.70889 21.3054 6.78382 21.261 6.89921 21.267L6.61393 21.0885L6.61393 21.0885ZM12.7938 21.442L12.9092 23.4982C12.9065 23.694 12.8758 23.8059 12.8231 23.8771L13.1233 23.7216L12.9942 21.8149L14.5182 22.9987L14.8044 22.8497C14.6865 22.8465 14.5735 22.7767 14.4554 22.6988L12.7936 21.4421L12.7938 21.442ZM8.07604 21.9261C8.1482 21.9914 8.19202 22.0879 8.16683 22.195C7.80769 23.6831 7.81074 23.6702 7.80877 23.6788C7.78662 23.7578 7.72473 23.8667 7.57862 23.884L8.93333 24.2009L9.01066 24.0239L7.98561 23.7854L8.37023 22.1893L9.33957 22.4169L9.35285 22.225L8.07601 21.9262L8.07604 21.9261ZM13.0919 21.9994L13.1545 22.8966L13.8089 22.5578L13.0919 21.9994L13.0919 21.9994ZM12.011 22.0062L11.6851 22.0857L12.0224 23.4246C12.0224 23.4246 12.0893 23.6191 11.9855 23.7776C11.9112 23.8899 11.7954 23.9748 11.6373 24.014C11.4897 24.0498 11.313 24.0336 11.1812 23.9469C11.1231 23.9078 11.0949 23.884 11.0329 23.825L10.9177 24.0148C11.2617 24.3424 11.6862 24.1993 11.6862 24.1993C11.8434 24.1608 11.9797 24.0859 12.0796 23.9822C12.2123 23.8448 12.2647 23.6674 12.2386 23.4861C12.2386 23.4824 12.2272 23.4268 12.2228 23.4114L11.9355 22.2721C11.9026 22.1319 12.011 22.0062 12.011 22.0062L12.011 22.0062ZM11.5983 22.1076L11.2721 22.1866C11.3429 22.198 11.4382 22.2729 11.4663 22.3871L11.7504 23.5176C11.7763 23.6234 11.6904 23.7177 11.5841 23.7465C11.4779 23.7764 11.394 23.7436 11.3913 23.7429C11.2732 23.703 11.215 23.5226 11.215 23.5226L11.0771 23.7521C11.131 23.8131 11.2477 23.8881 11.2477 23.8881C11.4037 23.9821 11.5691 23.945 11.6209 23.9323C11.8245 23.8827 11.9998 23.7039 11.9446 23.481C11.9446 23.4791 11.5983 22.1075 11.5983 22.1075L11.5983 22.1076ZM8.43666 22.2959L8.28493 22.9233L9.06453 23.1053L9.13039 22.8337C9.13039 22.8337 9.03967 22.9319 8.87713 22.8948L8.51561 22.8099L8.58439 22.525L9.01958 22.6268C9.2566 22.6833 9.31359 22.809 9.31359 22.809L9.33469 22.5057L8.43665 22.2959L8.43666 22.2959ZM13.2863 22.3634L13.5006 22.5331L13.3074 22.6327L13.2863 22.3634L13.2863 22.3634ZM13.8828 22.6187L13.1644 22.9914L13.2091 23.6774L13.2155 23.6741L13.5506 23.5C13.4717 23.4886 13.4016 23.4193 13.3827 23.3115L13.3661 23.0707L13.8337 22.8285L14.0378 22.9847C14.0895 23.0264 14.1698 23.1078 14.0868 23.2219L14.4254 23.0466L14.4323 23.0437L13.8828 22.6187H13.8828ZM8.27312 23.0114L8.1021 23.7214L9.04741 23.9413L9.17895 23.6414C9.10286 23.6859 9.0169 23.734 8.83417 23.6965C8.83042 23.6965 8.34003 23.5819 8.34003 23.5819L8.42827 23.2151L8.77522 23.2961L8.7805 23.2974C8.94339 23.3414 8.97917 23.4601 8.97917 23.4601L9.04449 23.1917L8.27308 23.0114L8.27312 23.0114Z" fill="#134A8E"/>
<path d="M10.0986 11.1601C8.66605 11.1733 7.24101 11.7407 6.1841 12.8509C5.67059 13.3923 5.2917 14.0102 5.04755 14.6633C5.15829 14.6438 5.27094 14.6239 5.38632 14.6051C5.53153 14.2535 5.7179 13.914 5.94778 13.5944C5.94778 13.5956 5.94869 13.5971 5.94869 13.598C5.94976 13.5997 5.9518 13.6018 5.95305 13.6041C5.96199 13.5962 5.97124 13.588 5.98071 13.5795C6.00625 13.5575 6.03103 13.5349 6.05603 13.5125C6.05371 13.5083 6.05125 13.5035 6.04875 13.4987C6.04393 13.4908 6.04011 13.4826 6.03511 13.4747C6.07619 13.4228 6.11703 13.3702 6.15901 13.3194C6.16705 13.3287 6.17295 13.338 6.17902 13.3477C6.18903 13.3628 6.1979 13.3775 6.20522 13.3912C6.24202 13.3626 6.28014 13.3339 6.31712 13.3056C6.30033 13.2711 6.27937 13.2384 6.25508 13.2078C6.27526 13.1842 6.29731 13.1615 6.31839 13.1377C6.34518 13.1085 6.37147 13.0779 6.39844 13.049H6.39899C6.39971 13.049 6.39972 13.049 6.39972 13.0483C6.44098 13.0953 6.46791 13.1441 6.48559 13.1865C6.51882 13.1648 6.55171 13.1429 6.58476 13.1223C6.59172 13.1176 6.59781 13.1133 6.60513 13.1092C6.58602 13.0653 6.56202 13.0227 6.53308 12.9822C6.52256 12.9694 6.51287 12.956 6.50234 12.9439C6.54789 12.8987 6.59382 12.8549 6.6408 12.8118C6.65294 12.8013 6.66358 12.7901 6.67573 12.7792C6.75003 12.8508 6.78579 12.9278 6.80473 12.991C6.85099 12.9646 6.89805 12.94 6.94609 12.915C6.93181 12.8756 6.91311 12.8373 6.89097 12.7987C6.87275 12.7695 6.85196 12.7422 6.82856 12.7152C6.81767 12.7024 6.80596 12.6887 6.79381 12.6767C6.84793 12.6294 6.90383 12.584 6.95992 12.5406C6.97778 12.5566 6.99275 12.572 7.00686 12.5882C7.03919 12.6246 7.06412 12.6609 7.08091 12.6955C7.10199 12.7379 7.11304 12.7773 7.11912 12.8118C7.11983 12.8185 7.12113 12.8247 7.12203 12.8315C7.12399 12.8296 7.12625 12.8292 7.12803 12.8285C7.17697 12.8054 7.22722 12.7842 7.27795 12.7643C7.28027 12.7634 7.28217 12.7622 7.28414 12.7611C7.2811 12.7441 7.27731 12.7269 7.27231 12.709C7.24534 12.6089 7.1883 12.5094 7.10292 12.4332V12.4323C7.13829 12.4075 7.17327 12.383 7.20881 12.3584C7.24596 12.3321 7.28412 12.3074 7.32234 12.2824C7.3152 12.2975 7.30727 12.312 7.29924 12.3225C7.45641 12.4646 7.48438 12.6001 7.48027 12.6882C7.54028 12.668 7.60042 12.6492 7.66257 12.6325C7.66025 12.5751 7.64708 12.5162 7.62618 12.459C7.6035 12.3998 7.57059 12.3416 7.52629 12.2896C7.51629 12.2778 7.50533 12.2659 7.49336 12.2541C7.50015 12.2363 7.50823 12.2125 7.51538 12.184C7.51734 12.1756 7.52051 12.1676 7.52247 12.1582C7.62143 12.1004 7.72269 12.0458 7.8254 11.995C7.79754 12.0736 7.7655 12.1435 7.73352 12.1781C7.88951 12.3526 7.8936 12.4835 7.87253 12.5682L7.87089 12.5751V12.5778C7.93394 12.5636 7.99671 12.5515 8.06065 12.5406C8.07976 12.4086 8.03993 12.256 7.93384 12.1299C7.93581 12.1269 7.93697 12.1229 7.93894 12.1195C7.94108 12.116 7.94188 12.113 7.94367 12.1088C7.96671 12.059 7.99522 11.981 8.01844 11.9029C8.104 11.8648 8.19106 11.8303 8.27715 11.7969C8.30502 11.7856 8.33408 11.7741 8.36212 11.7643C8.32604 11.8677 8.27604 11.9838 8.22603 12.0472C8.21907 12.056 8.21171 12.0645 8.20493 12.0708C8.29906 12.1704 8.34108 12.2895 8.35412 12.3851V12.3917V12.3924C8.3593 12.4362 8.35823 12.4741 8.35412 12.5015C8.40931 12.4962 8.46599 12.4936 8.52332 12.4906C8.52904 12.49 8.53453 12.49 8.54024 12.4893C8.54917 12.4411 8.5516 12.388 8.54606 12.3347C8.54231 12.2895 8.53229 12.244 8.5155 12.2009C8.4921 12.1451 8.45711 12.0944 8.40906 12.054C8.45211 11.9812 8.521 11.8136 8.55243 11.6985C9.57124 11.3714 10.6768 11.3655 11.7027 11.6842C11.7073 11.6863 11.7117 11.6864 11.7165 11.6887C11.7254 11.6918 11.7347 11.6946 11.7436 11.6973C12.0228 11.787 12.2963 11.9014 12.5601 12.0391C12.6871 11.9995 12.8113 11.9593 12.9344 11.9151C12.0624 11.4015 11.0787 11.1511 10.0985 11.1601L10.0986 11.1601ZM8.96041 11.6937C8.89843 11.8196 8.80037 11.9953 8.72553 12.0472C8.85645 12.2283 8.86138 12.4045 8.82924 12.4888C8.88961 12.4914 8.95031 12.495 9.01336 12.4992C9.05462 12.3616 9.04562 12.1831 8.94149 12.0568C8.99436 11.9919 9.0823 11.8233 9.13053 11.7114C9.07337 11.7042 9.01632 11.6983 8.96041 11.6937L8.96041 11.6937ZM9.51459 11.7741C9.43886 11.8846 9.31944 12.0306 9.2446 12.0828C9.2596 12.1044 9.2734 12.126 9.2859 12.1484C9.37163 12.3021 9.37863 12.461 9.35576 12.5442C9.41471 12.5538 9.47365 12.5637 9.5317 12.5741C9.57082 12.4325 9.54588 12.2423 9.43782 12.1181C9.49087 12.0529 9.62401 11.9117 9.6858 11.8066C9.6299 11.796 9.57176 11.7854 9.5146 11.7741L9.51459 11.7741ZM10.0013 11.8755C9.93376 11.984 9.82691 12.1249 9.75511 12.1831C9.85478 12.3022 9.89702 12.4592 9.90685 12.5753C9.96704 12.5665 10.0292 12.5578 10.0911 12.5488C10.0838 12.4276 10.0449 12.3003 9.9627 12.2206C10.01 12.1515 10.1111 12.0194 10.1654 11.9151C10.1111 11.9021 10.057 11.8893 10.0013 11.8755V11.8755ZM10.5083 12.0058C10.4498 12.1062 10.3504 12.2313 10.2804 12.2953C10.3363 12.3544 10.371 12.4282 10.3941 12.5042C10.4505 12.495 10.5067 12.4865 10.5633 12.4775C10.5426 12.4293 10.5144 12.385 10.4783 12.3528C10.5214 12.2809 10.6186 12.1565 10.6686 12.0511C10.6154 12.0363 10.5623 12.0204 10.5083 12.0058L10.5083 12.0058ZM11.0185 12.1595C10.9746 12.2307 10.9083 12.3139 10.8455 12.3775C10.8248 12.3988 10.8033 12.4185 10.7845 12.4345C10.7845 12.4366 10.7873 12.4385 10.7885 12.4404C10.8777 12.4251 10.9674 12.4098 11.0567 12.3937C11.0994 12.3365 11.1455 12.2727 11.1746 12.2107C11.1235 12.1932 11.0707 12.1766 11.0185 12.1595V12.1595ZM14.6844 13.2965L14.2858 13.9382L14.0857 14.2582L13.5882 14.0606C13.59 14.0632 13.6975 15.1679 13.7125 15.3136C13.7146 15.3423 13.7145 15.368 13.7125 15.3908C13.7093 15.428 13.7014 15.4575 13.689 15.4792C13.669 15.5133 13.638 15.5297 13.6021 15.5297C13.5942 15.5297 13.5854 15.5284 13.5773 15.5266C13.5584 15.5237 13.54 15.5157 13.5207 15.506C13.499 15.4941 13.4782 15.4794 13.4582 15.4602C13.4551 15.4582 13.453 15.4556 13.4492 15.4527C13.351 15.3591 12.8365 14.8663 12.8365 14.8663L12.6747 15.2713L11.8236 15.1273L11.9011 16.0485L11.711 16.1129L11.5696 16.1603L13.376 17.6943L13.0807 18.0453L13.1837 18.0363L14.554 17.9269L14.6841 18.1725L14.7258 18.0938L14.8142 17.9269L15.078 17.9478L15.3773 17.9722L16.2881 18.0453L15.9922 17.6943L17.7989 16.1603L17.6328 16.1042L17.4678 16.0485H17.4682L17.5444 15.1273L16.6946 15.2713L16.5323 14.8663C16.5323 14.8663 16.017 15.3591 15.919 15.4526C15.9163 15.4556 15.9133 15.4582 15.911 15.4602C15.8635 15.5038 15.8112 15.5297 15.7661 15.5297C15.7572 15.5297 15.7489 15.5294 15.7409 15.5266C15.683 15.5127 15.6448 15.4468 15.6568 15.3136C15.6588 15.2883 15.6646 15.2336 15.6717 15.1628C15.7055 14.82 15.78 14.0632 15.78 14.0605L15.2826 14.2582L14.6845 13.2965L14.6844 13.2965ZM4.76556 17.2303C4.92703 18.4068 5.48532 19.5399 6.43355 20.4151C7.27302 21.1895 8.29519 21.6508 9.35182 21.8038C9.30449 21.6989 9.25463 21.5938 9.20427 21.4865C8.42516 21.3438 7.67061 21.0226 7.01081 20.5197C7.03189 20.4066 7.06004 20.3141 7.09487 20.2861C7.10397 20.2775 7.11325 20.275 7.12325 20.2764C7.02037 20.1208 7.02732 19.8977 7.05429 19.7905C7.04233 19.7853 7.03099 19.7797 7.02027 19.775C6.98241 19.7577 6.94517 19.741 6.90838 19.7237C6.86176 19.8611 6.87605 20.0605 6.95732 20.2032C6.91088 20.277 6.88719 20.3383 6.8729 20.411C6.85629 20.3967 6.83985 20.3826 6.82396 20.3692C6.76984 20.3247 6.71748 20.2793 6.66585 20.232C6.65567 20.223 6.64492 20.2141 6.63492 20.2046C6.63403 20.2042 6.63401 20.2042 6.63401 20.2032C6.63294 20.2024 6.63219 20.2024 6.63201 20.2015C6.6488 20.1583 6.66782 20.1204 6.68604 20.1008C6.68765 20.0987 6.6899 20.0976 6.69187 20.0951C6.69329 20.0939 6.695 20.0919 6.69696 20.0908C6.69768 20.0903 6.69844 20.0899 6.69987 20.089C6.70201 20.0878 6.70501 20.0872 6.70715 20.0862C6.71072 20.0852 6.71485 20.086 6.71788 20.0871C6.7027 20.0575 6.69099 20.0277 6.68277 19.9971C6.64919 19.887 6.65399 19.775 6.67167 19.6911C6.6781 19.6605 6.68603 19.6331 6.69496 19.6121C6.64745 19.5856 6.60078 19.5588 6.55578 19.531C6.48862 19.6611 6.47118 19.8391 6.55887 19.9927C6.55173 20.0041 6.54493 20.0171 6.5385 20.0301C6.53689 20.0331 6.53484 20.0359 6.53395 20.0396C6.52573 20.0544 6.51871 20.07 6.51157 20.0871C6.47692 20.0526 6.44273 20.018 6.40968 19.983C6.37557 19.9483 6.34286 19.9128 6.31071 19.8771C6.31392 19.8732 6.3175 19.8702 6.3209 19.8672C6.32893 19.8606 6.33667 19.8565 6.34364 19.8558C6.34739 19.8558 6.35044 19.8564 6.35455 19.8585C6.30079 19.7186 6.31987 19.5726 6.35255 19.472C6.3597 19.4514 6.3678 19.4314 6.37548 19.415C6.34565 19.3943 6.31652 19.3729 6.28669 19.352C6.27222 19.3414 6.25677 19.3314 6.24248 19.3215C6.18943 19.4111 6.15797 19.5214 6.1728 19.6358C6.1778 19.6743 6.18874 19.7119 6.20464 19.7499V19.7503C6.20428 19.7503 6.20355 19.7512 6.20355 19.7513C6.20283 19.7523 6.20281 19.7523 6.20245 19.7533C6.15637 19.6993 6.11124 19.6437 6.06855 19.5883C6.04836 19.5628 6.0276 19.5364 6.0076 19.5098C6.0067 19.4145 6.0298 19.3215 6.05927 19.2449C6.06623 19.2278 6.07341 19.2109 6.08056 19.1956C6.04055 19.1639 6.0016 19.131 5.96303 19.0979C5.92337 19.1695 5.89334 19.2518 5.88334 19.3362C5.84226 19.2773 5.80314 19.217 5.76598 19.156C5.77206 19.131 5.78016 19.1066 5.78927 19.0831C5.80213 19.0465 5.81649 19.0121 5.83239 18.9808C5.79435 18.9461 5.75822 18.9112 5.72214 18.876C5.70517 18.9059 5.69113 18.9382 5.67738 18.9707C5.67434 18.9787 5.67096 18.9858 5.66828 18.9937C5.65489 18.9705 5.64311 18.9472 5.63007 18.9236C5.61507 18.8972 5.60034 18.8701 5.58623 18.8437C5.59855 18.8212 5.61139 18.8004 5.62425 18.7816C5.59121 18.7422 5.55945 18.7038 5.52819 18.6642C5.52534 18.6675 5.52215 18.6711 5.52001 18.675C5.51608 18.6811 5.51231 18.6858 5.50909 18.6918C5.29369 18.2456 5.14799 17.7754 5.07189 17.2958C4.96794 17.2752 4.86571 17.2531 4.7655 17.2304L4.76556 17.2303ZM15.016 18.1442C14.9674 18.2828 14.9143 18.4199 14.8534 18.5559C14.7784 18.7244 14.6922 18.8895 14.5972 19.0513C14.5551 18.9639 14.5434 18.8773 14.5379 18.811C14.49 18.8128 14.4411 18.8154 14.3922 18.8187C14.4022 18.8958 14.4183 18.9669 14.4446 19.0337C14.4642 19.083 14.4884 19.131 14.5192 19.1787C14.3431 19.4573 14.137 19.7238 13.9 19.9727C13.2906 20.6133 12.5519 21.0615 11.7613 21.318C11.6813 21.4381 11.6005 21.5615 11.5192 21.689C12.4806 21.4437 13.3852 20.9366 14.1141 20.1696C14.6784 19.5776 15.0782 18.892 15.3173 18.1676L15.016 18.1443L15.016 18.1442ZM14.1831 18.8372C14.1349 18.8425 14.0858 18.8484 14.0368 18.8553C14.0608 19.0002 14.1179 19.0948 14.1899 19.217C14.1341 19.3134 14.0697 19.4545 14.0276 19.5646C14.0808 19.5549 14.1328 19.5462 14.1848 19.5393C14.233 19.4222 14.294 19.2909 14.3441 19.198C14.2289 19.0661 14.197 18.928 14.1831 18.8372V18.8372ZM13.7346 18.9126C13.6896 18.9555 13.6413 19.0032 13.5895 19.0554C13.6236 19.144 13.6782 19.2152 13.7647 19.2849C13.7539 19.3065 13.7424 19.3329 13.7297 19.3618C13.6933 19.4476 13.6515 19.5588 13.6213 19.6515C13.6824 19.6367 13.7436 19.6227 13.8036 19.609C13.8547 19.4785 13.9157 19.3314 13.9559 19.2487C13.7974 19.1495 13.7525 19.0039 13.7346 18.9126ZM13.3706 19.281C13.3406 19.3126 13.3096 19.3468 13.2772 19.3815C13.2876 19.3875 13.2986 19.3932 13.3096 19.3981C13.2718 19.5024 13.2235 19.6346 13.1915 19.7668C13.2485 19.751 13.3073 19.7343 13.3655 19.7178C13.4073 19.5807 13.4596 19.4288 13.5036 19.3462C13.4507 19.3314 13.4074 19.3087 13.3706 19.281L13.3706 19.281ZM7.3264 19.8967C7.28353 20.0527 7.29254 20.2862 7.42847 20.3925C7.37238 20.4776 7.35263 20.5718 7.34441 20.7357C7.39657 20.7521 7.44929 20.7672 7.50252 20.7805C7.52252 20.5675 7.55174 20.4358 7.61568 20.4459C7.47672 20.3472 7.47146 20.0762 7.49415 19.9508C7.43735 19.9343 7.38177 19.9166 7.3264 19.8967L7.3264 19.8967ZM7.76178 20.02C7.73766 20.16 7.7612 20.3603 7.87094 20.4704C7.88684 20.4861 7.90422 20.4997 7.92297 20.5118C7.87993 20.5966 7.87241 20.7128 7.88295 20.8635C7.93796 20.8725 7.99497 20.8806 8.05106 20.8862C8.04606 20.7019 8.05898 20.5367 8.12292 20.5385C7.95396 20.4212 7.92702 20.1728 7.93899 20.0544C7.87915 20.0437 7.81965 20.0321 7.76178 20.02L7.76178 20.02ZM8.25919 20.0927C8.25687 20.2565 8.32284 20.4891 8.48716 20.5591C8.46019 20.6662 8.46031 20.7887 8.48407 20.9298C8.54033 20.9287 8.59611 20.9276 8.65309 20.9249C8.63327 20.7621 8.62732 20.5581 8.68912 20.5521C8.51104 20.4534 8.44775 20.2222 8.44131 20.1028C8.38023 20.1008 8.31921 20.098 8.25919 20.0927L8.25919 20.0927Z" fill="#E8291C"/>
<path d="M3.61745 45.984C3.0395 46.0865 2.44207 46.1921 1.93118 45.9431C1.56668 45.7657 1.2737 45.2772 1.26433 44.8314C1.25612 44.4274 1.31054 44.0075 1.45879 43.5652C1.50077 43.6093 1.55214 43.6343 1.60328 43.6525C1.71727 43.6934 1.88193 43.6915 2.01914 43.6458C2.23166 43.5756 2.4383 43.5068 2.6405 43.4391C2.62877 43.4506 2.61751 43.4613 2.60602 43.474C2.17513 43.9507 1.9957 44.5143 2.10453 45.0347C2.04237 45.0719 1.95605 45.1186 1.86387 45.1618C1.86387 45.1618 1.62603 45.2733 1.61454 45.2793L1.55004 45.3175V45.3916C1.54981 45.466 1.54981 45.466 1.83761 45.6362C1.83855 45.6371 1.95724 45.7133 2.02245 45.8473L2.09915 46.0053L2.27695 46.0009C2.43951 45.997 2.5685 45.9101 2.6485 45.8408C2.92339 45.9593 3.21402 45.9316 3.46876 45.7623C3.68431 45.8887 3.90809 45.9136 4.02396 45.9171C3.88697 45.9367 3.75069 45.9607 3.61746 45.984L3.61745 45.984ZM13.7501 43.0402H13.0227L13.0166 43.063C12.9214 43.048 12.8172 43.0501 12.7091 43.07C12.3059 43.1446 11.9972 43.3848 11.784 43.7851C11.8079 43.5765 11.7835 43.4141 11.6834 43.2883C11.5672 43.1423 11.4038 43.0607 11.2102 43.0524C11.1396 43.0494 11.066 43.057 10.9907 43.0739L10.9961 43.0513H9.91313L9.91383 43.0492H9.76934C9.96542 42.9545 10.101 42.757 10.101 42.5279C10.101 42.2077 9.83642 41.9472 9.51132 41.9472C9.26315 41.9472 9.05088 42.099 8.96385 42.3131L9.12735 41.6827L7.85861 42.1754L7.65103 43.07C7.21076 43.0074 6.91334 43.2351 6.72592 43.4629C6.75923 43.4028 6.81177 43.3079 6.80731 43.3148L6.93609 43.1116L5.68541 43.1111L5.72036 42.9801H4.71293C4.71293 42.9801 4.52435 43.7257 4.43826 43.9904C4.48212 43.799 4.65991 43.0501 4.65991 43.0501H3.79251C5.64364 42.4189 6.94994 41.9398 7.68581 41.6215C8.02968 41.4728 9.75857 40.8538 10.3373 40.6484C10.7741 40.4937 11.3006 40.3142 11.902 40.1149C12.3001 40.7117 13.3195 42.2299 13.9306 43.0423C13.8926 43.0403 13.837 43.0403 13.7502 43.0403L13.7501 43.0402ZM9.64495 39.21L9.72212 39.2428L9.15308 39.7824C8.92555 39.7824 8.84792 40.0057 8.84792 40.0057L8.44073 40.1178C8.4222 40.0995 8.32345 40.0912 8.32345 40.0912L8.83339 39.6551C9.25138 39.5281 9.64496 39.21 9.64496 39.21H9.64495ZM10.1371 39.3948L10.6289 39.5581L9.94636 39.7279C9.94636 39.7279 9.89101 39.6914 9.81736 39.6856L10.1371 39.3948L10.1371 39.3948ZM17.4978 44.9225C17.366 44.8576 17.2253 44.8209 17.0775 44.8124C17.0641 44.6253 17.0024 44.4435 16.9494 44.2913C16.9269 44.2252 16.9051 44.1629 16.8912 44.1109C16.8249 43.8642 16.807 43.7637 16.8664 43.6037C16.993 43.2627 16.5521 43.0669 16.3778 42.9893C16.3778 42.9893 16.3238 42.9652 16.3241 42.9652C16.2727 42.9421 16.2432 42.9532 16.165 42.983C16.1017 43.0073 16.0288 43.0558 15.9326 43.1426C16.0126 43.0133 16.064 42.8507 16.0773 42.6784C16.1289 42.6414 16.177 42.5832 16.2159 42.5063C16.3475 42.2483 16.3532 41.8189 15.976 41.3879C15.8231 41.2128 14.7488 40.2965 13.8038 39.4992L13.8003 39.4962C14.1324 39.3906 14.6409 39.2294 14.6367 39.2305C14.708 39.2116 14.8227 39.1594 14.928 39.2532C15.0214 39.3423 15.2039 39.3749 15.3617 39.2654C15.6355 39.0758 15.4837 38.6589 15.4276 38.5034C15.3291 38.2302 15.19 38.1274 15.0906 38.089C14.9944 38.0519 14.8922 38.0498 14.8042 38.096C14.6672 38.1678 14.6339 38.2835 14.6182 38.3778C14.6006 38.4801 14.4345 38.5041 14.1392 38.5773C14.1392 38.5773 13.1268 38.8494 13.0548 38.8695L13.0494 38.8651L12.8043 38.66C12.7567 38.5822 12.6626 38.4434 12.5519 38.3547C12.5325 38.0428 12.2866 37.6717 12.0852 37.5201C12.0746 37.303 11.898 36.9889 11.7096 36.8743C10.864 35.4051 10.1087 34.4621 9.40178 33.9934L9.37855 33.9779C9.25189 33.8943 9.2411 33.8825 9.23641 33.8174C9.19278 33.2385 9.03539 32.6833 8.83555 32.3858C8.91459 32.2608 9.03398 32.0384 9.11632 31.7298C9.11632 31.7298 9.20568 31.397 9.20568 31.3972L9.10342 31.4637C9.12922 31.3799 9.15525 31.2796 9.18035 31.1581L9.1827 31.142C9.1902 31.0422 9.12171 31.0048 9.10037 30.9955C9.09169 30.9916 9.08325 30.9898 9.0748 30.9879C9.08231 30.8775 9.07105 30.7445 9.01288 30.5976L8.93453 30.3989L8.78981 30.5574C8.49379 30.8819 8.04344 31.051 7.6461 31.2004C7.55509 31.2346 7.46901 31.2672 7.38739 31.3002C6.7393 31.564 6.33843 31.8465 5.96056 32.6447C5.95165 32.6523 5.94179 32.6604 5.931 32.6694C5.7593 32.8115 5.4016 33.1074 5.19918 33.6936L5.16564 33.7908L5.25337 33.8465C5.46188 33.9777 5.68754 34.0703 5.97229 34.1685C4.9034 36.5214 6.93821 37.9175 8.64089 38.7726C8.54238 38.9511 8.46333 39.1183 8.44246 39.3151L7.67944 40.1069C7.60625 40.1258 7.46763 40.1707 7.38695 40.2552C7.3595 40.2838 7.33394 40.3229 7.31025 40.3707C7.28913 40.3753 7.2706 40.379 7.25442 40.3822C6.77756 40.4765 6.01548 40.6481 3.99315 41.2013C3.70066 40.937 3.21394 40.7677 2.73496 40.7677C1.97639 40.7677 1.48641 41.1692 0.984204 41.7718C0.259179 42.6417 -0.559916 45.0232 0.525404 46.2838C0.71094 46.4992 1.40876 47.1947 2.60482 47.1046C2.92475 47.0806 3.16449 47.0284 3.37582 46.9827C3.79334 46.8919 3.98403 46.8506 4.3999 47.1257L4.56597 47.2358L4.72312 47.1134C4.96002 46.9291 5.3623 46.991 5.68623 47.0651L6.31391 47.2093L5.98482 46.6637C5.54573 45.9359 4.92343 45.8315 4.29598 45.8853C4.64922 45.7883 4.88379 45.4793 5.05478 45.1131C5.03202 45.3543 5.07424 45.6107 5.30576 45.7726C5.67871 46.0336 6.14618 45.919 6.49193 45.7084C6.65542 45.8458 6.87496 45.9262 7.07715 45.9174C7.25283 45.9142 7.40365 45.88 7.54487 45.8123C7.63845 45.8774 7.74307 45.9162 7.85753 45.9273C8.04705 45.9453 8.2502 45.8851 8.462 45.7488C8.57224 45.8573 8.71673 45.9169 8.88115 45.9176C8.95785 45.9179 9.03783 45.9077 9.11876 45.8878L9.11055 45.9176H10.2524L10.4058 45.3649C10.4194 45.4739 10.4527 45.5785 10.517 45.67C10.5883 45.7712 10.7262 45.8959 10.9802 45.9167C11.2523 45.9389 11.5784 45.8382 11.8415 45.6562C12.1275 45.9333 12.4882 45.9786 12.917 45.7892C13.0017 45.861 13.1478 45.9458 13.3676 45.916C13.5182 45.9063 13.6697 45.843 13.8276 45.7257C13.9575 45.8525 14.125 45.9204 14.3126 45.9176C14.6213 45.913 14.8807 45.7312 15.0846 45.5441C15.309 45.7703 15.6494 46.0008 16.172 45.9139C16.2621 45.8987 16.3359 45.8793 16.4014 45.862C16.5743 45.8165 16.5963 45.8107 16.7342 45.9255L17.1421 46.2657L17.1846 45.7518C17.1926 45.7259 17.2493 45.57 17.5261 45.3903L17.9239 45.1321L17.498 44.9226L17.4978 44.9225Z" fill="white"/>
<path d="M9.96967 42.528C9.96967 42.2801 9.76489 42.0782 9.51322 42.0782C9.26154 42.0782 9.05652 42.2801 9.05652 42.528C9.05652 42.7758 9.26152 42.9774 9.51322 42.9774C9.76489 42.9774 9.96967 42.7758 9.96967 42.528V42.528ZM17.44 45.0398C17.2608 44.9516 17.0859 44.9349 16.9475 44.943C16.9639 44.7361 16.8891 44.519 16.825 44.3337C16.8016 44.2653 16.7793 44.2009 16.764 44.1443C16.6984 43.8995 16.6674 43.7625 16.7432 43.5588C16.8271 43.3322 16.4809 43.1784 16.3331 43.1123L16.2703 43.0846C16.27 43.0843 16.2147 43.1054 16.2147 43.1054C16.0219 43.1788 15.6281 43.6403 14.922 44.5227C14.8392 44.6264 14.7553 44.7315 14.688 44.8141C14.7316 44.6185 14.873 43.9854 14.941 43.6814C15.2131 43.7059 15.4228 43.5362 15.4737 43.2807C15.6996 43.3357 15.9501 43.0086 15.9501 42.5926C16.069 42.6005 16.4087 42.0815 15.8769 41.4733C15.7148 41.288 14.4222 40.1911 13.5374 39.4462L13.5344 39.4432L14.6038 39.1039C14.6699 39.0863 14.7914 39.0584 14.851 39.0632C14.8897 39.0665 14.9723 39.1219 15.0126 39.1656C15.0515 39.203 15.159 39.2499 15.2849 39.1596C15.4555 39.0374 15.3774 38.7517 15.3037 38.5472C15.2223 38.3209 15.1207 38.2232 15.0473 38.1948C14.9873 38.1717 14.9179 38.165 14.851 38.1989C14.6978 38.277 14.7687 38.4408 14.6847 38.5031C14.6847 38.5031 14.6603 38.5761 14.1837 38.6904L13.0885 38.997L13.0242 39.0147L13.0191 39.0104C12.8242 38.8471 12.7031 38.7461 12.7031 38.7461C12.6262 38.6165 12.5176 38.4754 12.4207 38.4225C12.4428 38.1054 12.1158 37.6647 11.9488 37.5882C11.9945 37.4489 11.8029 37.054 11.6143 36.9717C11.0122 35.9215 10.1957 34.6768 9.32899 34.1021C9.1906 34.0104 9.11578 33.9691 9.10522 33.827C9.05666 33.1784 8.86995 32.619 8.6755 32.3892C8.74704 32.2899 8.89411 32.052 8.98933 31.6967C8.98933 31.6967 8.87862 31.7688 8.79394 31.7953C8.83944 31.7441 8.95133 31.6184 9.05149 31.1322C9.05595 31.0735 9.00528 31.1835 8.88518 31.2516C8.90488 31.1664 9.00692 30.94 8.89058 30.6453C8.50261 31.0701 7.88149 31.2417 7.43981 31.4214C6.76921 31.6942 6.41855 31.9787 6.07021 32.7259C5.94683 32.8354 5.54174 33.114 5.32666 33.7358C5.54105 33.8709 5.77419 33.9633 6.10492 34.0746C6.10492 34.0746 6.1075 34.179 6.10938 34.1908C5.10429 36.3534 6.76145 37.701 8.82582 38.7168C8.69282 38.9521 8.58376 39.1395 8.5718 39.3727L7.7506 40.2253C7.7506 40.2253 7.56343 40.2632 7.48554 40.3449C7.45129 40.381 7.42361 40.4406 7.40649 40.4844C7.35817 40.4951 7.31619 40.5041 7.28217 40.5108C6.78209 40.6096 5.97708 40.7944 3.95581 41.3476C3.94901 41.3407 3.94244 41.3328 3.9354 41.3259C3.67175 41.0667 3.20123 40.8988 2.73656 40.8988C2.03006 40.8988 1.56681 41.2811 1.08859 41.8548C0.387483 42.6963 -0.410479 44.9922 0.628381 46.1988C0.803593 46.4023 1.46317 47.0592 2.59592 46.9739C2.90671 46.9504 3.14151 46.8996 3.34862 46.8545C3.77669 46.7614 4.01243 46.7104 4.47568 47.0169L4.56129 47.0735L4.64221 47.0104C4.92346 46.7915 5.36513 46.8564 5.71791 46.9374L6.0416 47.0116L5.87177 46.7305C5.32033 45.8165 4.4677 45.9673 3.64294 46.1133C3.04387 46.2193 2.4244 46.3288 1.87417 46.0609C1.46228 45.8604 1.14375 45.3328 1.13319 44.8342C1.1231 44.3429 1.23592 43.7973 1.40902 43.3279C1.54507 43.5005 1.71818 43.5936 1.87462 43.5529C1.89573 43.5474 1.91497 43.54 1.93373 43.5317C1.94874 43.5296 1.96399 43.5266 1.97853 43.5217C4.78262 42.5916 6.68552 41.9116 7.63395 41.5017C7.98133 41.3515 9.71427 40.7309 10.2939 40.5253C10.8074 40.3431 11.3898 40.1463 11.9588 39.9583C12.3011 40.4729 13.6507 42.4912 14.2372 43.2206C14.1215 43.8913 13.9205 44.69 13.5795 44.8966C13.5652 44.9056 13.5476 44.9167 13.5323 44.9259C13.6064 44.5344 13.8511 43.4994 13.8896 43.344L13.932 43.1714L13.1277 43.1711L13.1141 43.2233C13.0097 43.1822 12.8807 43.172 12.7353 43.1988C12.1128 43.3141 11.7349 43.8791 11.6127 44.878C11.6103 44.8958 11.6082 44.9142 11.6061 44.9288C11.4846 45.0662 11.3892 45.0928 11.3605 45.0822C11.3502 45.0785 11.3483 45.0561 11.349 45.0431C11.353 44.9251 11.4185 44.7024 11.482 44.4874C11.6429 43.94 11.737 43.566 11.5806 43.369C11.4891 43.254 11.3596 43.19 11.2062 43.1835C11.0716 43.1778 10.9332 43.217 10.8074 43.2789L10.8302 43.1824H9.99587L9.97242 43.2935C9.87766 43.7464 9.6011 44.7054 9.41136 44.9245C9.37383 44.9677 9.29994 44.9945 9.24857 45.0016C9.30088 44.7538 9.53733 43.8952 9.69001 43.3574L9.74021 43.1804H8.89415L8.86929 43.2892C8.86647 43.3012 8.59063 44.5072 8.37553 44.8767C8.31337 44.9829 8.25567 45.0123 8.23386 45.0056C8.21932 45.0012 8.20548 44.9785 8.20759 44.9494C8.2287 44.6669 8.69102 42.8425 8.86717 42.1631L8.93566 41.8989L7.97467 42.2722L7.75349 43.2266C7.72487 43.2171 7.69297 43.2088 7.65685 43.203C7.03855 43.1004 6.73737 43.6557 6.62407 43.8647C6.47888 44.1322 6.33252 44.5725 6.31891 44.9224C6.22931 45.0263 6.12001 45.1056 6.08318 45.1007C6.05221 45.0968 6.04424 45.0859 6.0372 45.0723C5.92016 44.8457 6.28677 43.9862 6.58467 43.4483L6.69843 43.2421L5.51461 43.2424L5.54956 43.1114H4.82055L4.79522 43.2193C4.64651 43.848 4.38027 44.6721 4.14619 44.9959C4.11804 45.0347 4.09365 45.0553 4.07699 45.0652C4.09154 44.9162 4.27802 44.0854 4.45299 43.3525L4.49403 43.1811H3.66087L3.62546 43.3144C3.35548 43.2162 3.00177 43.2354 2.70739 43.5613C2.27814 44.0364 2.11676 44.5908 2.25726 45.0938C2.19487 45.14 2.05742 45.2176 1.92278 45.2804L1.68516 45.3917L1.91082 45.5255C1.91151 45.5262 2.06094 45.6185 2.14443 45.7906L2.18408 45.8722L2.27555 45.8698C2.42826 45.8661 2.54764 45.7624 2.62505 45.6828C2.90465 45.8384 3.21099 45.8091 3.46666 45.6026C3.6977 45.7712 3.96932 45.7862 4.05635 45.7862C4.77105 45.7862 5.04455 44.8545 5.24393 44.1737C5.27067 44.0832 5.296 43.9968 5.32063 43.9187H5.59436C5.57747 43.9591 5.55988 44.001 5.54182 44.0439C5.46207 44.2322 5.372 44.4458 5.30233 44.6537C5.22516 44.8854 5.04384 45.4275 5.38443 45.6656C5.72008 45.9003 6.17583 45.7756 6.50891 45.5413C6.66724 45.7187 6.89922 45.7938 7.07631 45.7862C7.26209 45.7827 7.41665 45.7414 7.56091 45.6557C7.65051 45.7377 7.75465 45.7853 7.87217 45.7966C8.09172 45.8176 8.31173 45.7042 8.48837 45.5714C8.57703 45.7083 8.71355 45.7855 8.88336 45.7862C9.02386 45.7869 9.17234 45.7476 9.31683 45.676L9.28634 45.7862H10.1526L10.4329 44.7757C10.5952 44.1322 10.7575 44.0575 10.7887 44.0488C10.8025 44.0451 10.8138 44.0485 10.8215 44.0529C10.8208 44.095 10.7852 44.2024 10.7531 44.2989C10.724 44.3862 10.6878 44.4948 10.6508 44.6248L10.64 44.662C10.5675 44.9145 10.446 45.3369 10.628 45.5952C10.6829 45.6732 10.7906 45.7693 10.9928 45.7857C11.2703 45.8086 11.6153 45.6816 11.8588 45.4794C12.2059 45.8984 12.623 45.794 12.9455 45.6314C13.0346 45.7287 13.1547 45.8127 13.3602 45.785C13.5408 45.7733 13.7062 45.6658 13.8457 45.543C13.9567 45.7023 14.1195 45.789 14.312 45.7862C14.6247 45.7818 14.886 45.5612 15.0917 45.3559C15.3429 45.6434 15.6554 45.8668 16.1512 45.7843C16.2352 45.7703 16.3063 45.7518 16.3686 45.7354C16.5539 45.6864 16.6306 45.6661 16.8218 45.8252L17.032 46.0005L17.0545 45.7305C17.0542 45.7319 17.088 45.5185 17.4544 45.2806L17.6594 45.1478L17.4401 45.0397L17.44 45.0398ZM9.24363 39.8691C9.14558 39.8881 9.09797 39.9017 9.03136 39.9624C8.98445 40.0049 8.95278 40.0645 8.93566 40.1089C8.75082 40.1562 8.56013 40.2043 8.37505 40.2507C8.33283 40.2262 8.25191 40.1939 8.12665 40.2026C8.11492 40.2017 8.08185 40.196 8.08442 40.1618C8.08677 40.132 8.77568 39.5178 8.77568 39.5178C8.96825 39.479 9.67381 39.0753 9.67381 39.0753L9.88961 39.1621L9.87366 39.197L9.84293 39.2508L9.2842 39.8349C9.27224 39.8481 9.26074 39.8659 9.24362 39.8691L9.24363 39.8691ZM9.89006 39.862C9.84151 39.8266 9.78991 39.8061 9.74229 39.8068C9.56332 39.8098 9.62407 39.7455 9.66489 39.7L10.1439 39.2596C10.1439 39.2596 10.5215 39.4141 10.9749 39.5707C10.3181 39.7481 9.96158 39.843 9.89006 39.862L9.89006 39.862ZM3.08987 45.0303C3.088 45.0303 3.08542 45.0303 3.07885 45.0222C3.06947 45.0104 2.99159 44.897 3.09316 44.4986C3.16798 44.2048 3.278 44.0077 3.40254 43.944C3.42647 43.9317 3.46024 43.919 3.50809 43.9209C3.44406 44.4678 3.26744 45.0303 3.08988 45.0303L3.08987 45.0303ZM7.50273 44.4981C7.46684 44.6388 7.43002 44.7843 7.39694 44.9339C7.39225 44.9557 7.33502 45.0002 7.25574 45.0076C7.22712 45.0106 7.17552 45.0084 7.16426 44.9825C7.09272 44.8198 7.19123 44.296 7.42275 44.0255C7.49077 43.9458 7.55809 43.9052 7.6233 43.9029C7.62588 44.0137 7.55551 44.29 7.50274 44.4981L7.50273 44.4981ZM12.5151 45.0349C12.5132 45.0349 12.5104 45.0349 12.504 45.0263C12.4947 45.015 12.417 44.9014 12.5184 44.503C12.5951 44.2029 12.6966 44.0188 12.8209 43.9558C12.8629 43.9345 12.9108 43.9287 12.9636 43.935C12.8906 44.4863 12.7037 45.0349 12.5151 45.0349L12.5151 45.0349ZM16.1639 45.0615C16.1311 45.0929 16.0682 45.1139 16.0011 45.1153C15.9178 45.1171 15.8407 45.0908 15.7902 45.0427C15.5327 44.8048 15.5327 44.8048 15.6568 44.6462C15.737 44.5438 15.8071 44.4484 15.8754 44.356C15.9352 44.2743 15.9922 44.1981 16.0487 44.1262C16.0684 44.2683 16.1097 44.4002 16.1487 44.5237C16.2289 44.7785 16.269 44.9303 16.1639 45.0615" fill="#14264B"/>
<path d="M7.1892 33.2785C7.14534 33.3483 7.06418 33.3924 6.97505 33.3864C6.84769 33.3776 6.75174 33.2688 6.76043 33.1434C6.76958 33.0175 6.88006 32.9231 7.00766 32.9321C7.09187 32.9379 7.16271 32.9875 7.19811 33.057C7.03884 33.0402 7.00413 33.1917 7.00413 33.1917C6.90093 33.0672 7.03416 32.9954 7.03416 32.9954C6.94549 32.9838 6.86129 33.0506 6.85401 33.1506C6.84697 33.2511 6.92367 33.3379 7.02547 33.3449C7.09419 33.3497 7.1533 33.3275 7.18919 33.2786" fill="white"/>
<path d="M8.78965 30.9331C8.45116 31.2826 7.91465 31.3966 7.45577 31.5867C6.78339 31.8655 6.43411 32.2959 6.26008 32.7118C6.32536 32.8217 6.73349 32.8318 6.79465 32.7961C6.8988 32.735 7.04001 32.7044 7.15276 32.7685C7.23512 32.8154 7.27969 32.8621 7.31723 32.8868C7.4169 32.9287 7.55605 32.9633 7.65924 32.9393C7.20508 33.3878 7.15276 33.9766 7.19539 34.0762C6.66107 34.0762 6.12493 34.7885 6.02719 34.9806C5.45581 37.0998 8.71759 38.4965 9.04131 38.6448C8.85299 38.9412 8.69373 39.1784 8.70778 39.2886C8.71905 39.3766 8.76955 39.379 8.87358 39.3582C9.11192 39.2258 9.5324 39.0363 9.68076 38.867C9.77074 38.7644 9.67749 38.6152 9.63341 38.5667C9.58605 38.5141 9.6133 38.4681 9.7223 38.5337C9.82572 38.6198 9.84437 38.6676 9.87707 38.7431C9.9237 38.8523 9.79024 38.9687 9.79024 38.9687C10.1573 39.1321 11.4124 39.6183 11.801 39.694L11.3798 39.0224C10.6146 38.7216 9.53858 38.2675 8.92808 37.9691C7.98162 37.5059 6.41498 36.5416 7.19612 35.0642C7.42429 34.688 7.511 34.6805 7.54334 34.7685C7.54552 34.7774 7.53873 34.8027 7.52917 34.8076C7.51463 34.8221 7.41169 34.9197 7.31577 35.1202C6.58162 36.4637 8.10079 37.4267 8.99662 37.8545C10.2936 38.4734 11.4941 38.9502 12.2847 39.2115C12.4058 39.2515 12.516 39.2923 12.602 39.3163C12.8418 39.3858 12.533 38.5676 12.2302 38.4836C10.626 38.0193 9.08176 37.3269 8.65413 36.9112C8.39751 36.8811 7.71252 36.6756 7.6011 35.7619C7.59662 35.7372 7.59783 35.716 7.6292 35.7089C7.65827 35.7025 7.67014 35.7234 7.67268 35.736C7.86887 36.5654 8.4428 36.7865 8.68538 36.7923C8.81957 36.7954 9.0309 36.6637 8.97555 36.6319C8.55918 36.3939 8.3252 35.9149 8.30873 35.8653C8.29796 35.833 8.31019 35.8241 8.33078 35.8133C8.35003 35.8034 8.37232 35.8113 8.39327 35.8431C8.50069 36.0072 8.89586 36.6483 9.48105 36.6659C9.63583 36.6705 9.80611 36.6651 9.84062 36.5287C9.84062 36.5287 9.34566 36.304 9.10283 35.9088C9.09436 35.8962 9.08745 35.8721 9.1187 35.8534C9.15055 35.8345 9.17514 35.8668 9.18967 35.8802C9.66223 36.3576 10.0417 36.5515 10.2712 36.5275C10.3639 36.5217 10.4288 36.4563 10.4322 36.4103C10.4446 36.2369 10.2664 36.1307 10.2196 36.0994C10.2128 36.095 10.2092 36.0792 10.2169 36.0691C10.2239 36.0592 10.242 36.0541 10.2657 36.0654C10.3584 36.1088 10.5397 36.2371 10.5246 36.4394C10.5218 36.4753 10.5171 36.4991 10.4896 36.5287C10.7578 36.6675 11.2141 36.8462 11.4262 36.9109C10.7757 35.837 10.0567 34.708 9.11967 34.1456C9.09448 34.2257 9.17283 34.4082 9.07946 34.3641C9.01467 34.3335 8.95811 34.0677 8.95569 33.9479C8.94346 33.328 8.77088 32.811 8.54078 32.5136C8.41349 32.6117 8.18242 32.6614 8.18339 32.6629C8.64432 32.2602 8.70354 31.9777 8.70354 31.9777C8.56912 32.0801 8.24636 32.2211 8.07839 32.2499C8.07839 32.2499 8.60436 31.9473 8.81545 31.4076C8.81545 31.403 8.47986 31.7318 7.98901 31.8411C7.98877 31.8403 8.80467 31.4743 8.78965 30.9331V30.9331ZM9.9478 36.5671C9.9386 36.6255 9.92067 36.6811 9.82718 36.7226C10.6821 37.223 11.5947 37.496 11.7949 37.553C11.8361 37.5239 11.7317 37.1394 11.4453 37.0394C11.0179 36.8898 10.6619 36.7413 10.4092 36.5852C10.3201 36.6335 10.1877 36.662 9.9478 36.5671V36.5671ZM9.10405 36.6963C9.09412 36.7672 8.90555 36.8719 8.82065 36.8865C9.4354 37.4013 11.6007 38.1952 12.2193 38.3379C12.3186 38.3608 12.1745 37.9223 11.902 37.7426C11.7029 37.6104 10.4517 37.3255 9.65896 36.7636C9.52526 36.7851 9.35874 36.7901 9.10405 36.6963ZM12.7921 38.9981C12.8176 39.0526 12.8309 39.1232 12.843 39.1888C12.952 39.697 12.562 39.4155 11.5664 39.0854C12.3646 40.3266 13.5805 42.1598 14.2684 43.017C14.3072 42.7641 14.335 42.5423 14.352 42.398L14.3665 42.2752L14.5106 42.2203L12.6359 39.853H12.803C12.803 39.853 13.8712 41.2124 14.6463 42.1685L15.1828 41.9618C14.3968 41.143 13.0888 39.8126 13.0888 39.8126L13.2596 39.8171C13.2584 39.8036 15.7932 42.3956 15.7932 42.3956C15.9324 42.5495 16.1686 42.0284 15.7883 41.6115C15.5776 41.2802 12.7921 38.9981 12.7921 38.9981ZM2.73477 41.0385C2.12802 41.0385 1.69894 41.3406 1.19634 41.9439C0.473174 42.8118 -0.223521 44.9966 0.734838 46.1093C1.05595 46.4826 1.70451 46.9012 2.58342 46.8356C3.54441 46.7628 3.80527 46.4075 4.55263 46.9012C4.90444 46.6281 5.44083 46.7318 5.74832 46.8022C4.86944 45.3449 3.18775 46.8571 1.80967 46.1868C1.33214 45.9543 1.00113 45.3711 0.989866 44.838C0.978373 44.299 1.11027 43.6991 1.31107 43.1863C1.26723 43.1064 1.23089 43.017 1.2051 42.9216C1.09913 42.5256 1.23247 42.129 1.46839 42.0395C1.48122 42.0336 1.49503 42.0283 1.51005 42.0245C1.74851 41.9565 1.97643 41.8986 2.19527 41.8372C2.27193 41.77 2.34944 41.7127 2.42683 41.6678C2.70247 41.5092 3.22941 41.5025 3.53714 41.7233C3.39423 41.8887 3.27107 42.1138 3.47332 42.299C3.63136 42.4493 3.89162 42.3873 3.99868 42.2089C4.16351 41.9327 4.02896 41.6221 3.83373 41.4249C3.59915 41.1941 3.1657 41.0385 2.7348 41.0385H2.73477ZM15.2912 42.075L15.1386 42.7689C15.2972 42.955 15.4038 43.0742 15.4292 43.0849C15.6739 43.1923 15.8495 42.7153 15.755 42.5793C15.7235 42.5328 15.5431 42.3396 15.2912 42.075V42.075ZM8.72752 42.129L8.09365 42.3754L7.83799 43.4785C7.83799 43.4785 7.83569 43.3747 7.63078 43.3402C7.18013 43.2662 6.93017 43.5918 6.74657 43.9305C6.60936 44.1833 6.45676 44.6401 6.45676 44.974C6.45676 44.974 6.23465 45.2614 6.06244 45.2399C5.47119 45.1636 6.45773 43.3819 6.45773 43.3819H5.32828L5.36352 43.2507H4.93044C4.81079 43.7576 4.53685 44.6925 4.2589 45.0777C4.10825 45.2864 3.93712 45.228 3.93228 45.0837C3.92731 44.9358 4.3128 43.3211 4.3128 43.3211H3.76781L3.71622 43.5155C3.56339 43.4189 3.1647 43.2626 2.81082 43.655C2.34807 44.1666 2.27105 44.7104 2.40984 45.1195C2.42909 45.197 1.981 45.4069 1.981 45.4069C1.981 45.4069 2.1652 45.5154 2.2696 45.7313C2.44133 45.7265 2.58605 45.4939 2.60458 45.5059C2.86908 45.7026 3.19292 45.7003 3.46153 45.4164C3.62527 45.5858 3.86991 45.6478 4.05399 45.6478C4.78826 45.6478 5.00929 44.3753 5.21517 43.7802H5.79951C5.71413 44.0104 5.54591 44.3646 5.43425 44.6985C5.31714 45.0479 5.24593 45.3997 5.4638 45.5524C5.7983 45.7861 6.27074 45.5727 6.53669 45.3401C6.64835 45.5524 6.88112 45.6549 7.06775 45.6478C7.27351 45.6442 7.42865 45.5917 7.58124 45.4725C7.86584 45.8589 8.30026 45.5643 8.53956 45.3449C8.58123 45.5071 8.68453 45.6466 8.88157 45.6478C9.1147 45.649 9.36116 45.5214 9.5536 45.3401L9.46906 45.6478H10.0418L10.2937 44.7402C10.5711 43.6395 10.9141 43.9317 10.9414 43.9758C11.0048 44.0724 10.8999 44.2572 10.7848 44.6627C10.7047 44.9454 10.4915 45.606 11.0022 45.6478C11.2946 45.6716 11.6779 45.4939 11.8753 45.2674C12.1666 45.7289 12.5166 45.7158 12.978 45.4546C13.0785 45.5822 13.1536 45.6728 13.3401 45.6478C13.5545 45.6382 13.7664 45.4307 13.8827 45.3115C13.9481 45.4951 14.0837 45.6514 14.3078 45.6478C14.619 45.643 14.8952 45.3568 15.0986 45.1469C15.3723 45.4963 15.6497 45.7265 16.1256 45.6478C16.4587 45.5917 16.5882 45.451 16.9104 45.7193C16.9104 45.7193 16.9334 45.451 17.3742 45.1648C17.132 45.0455 16.8874 45.0765 16.7505 45.1183C16.9043 44.8404 16.6984 44.4528 16.6246 44.1809C16.5592 43.9353 16.5156 43.7611 16.6076 43.5119C16.6488 43.401 16.3182 43.2603 16.2637 43.2364C15.9815 43.3437 14.7728 44.968 14.6469 45.0718C14.5888 45.1207 14.4507 45.1994 14.5343 44.8416C14.5343 44.8416 15.141 42.1318 15.1374 42.129L14.4967 42.3754C14.424 42.974 14.2339 44.6627 13.6514 45.0157C13.5981 45.0479 13.4213 45.1767 13.3692 45.0754C13.3401 45.0205 13.7458 43.3294 13.7495 43.3115H13.2348L13.1948 43.4654C13.11 43.3115 12.8957 43.3115 12.7588 43.3366C11.7831 43.5167 11.7676 44.9442 11.7349 44.9931C11.4521 45.3365 11.1975 45.2495 11.205 45.0384C11.218 44.6746 11.6632 43.7039 11.4665 43.4558C11.2499 43.1827 10.8039 43.3783 10.5806 43.6145L10.6494 43.3223H10.1088C10.031 43.692 9.74931 44.7474 9.51642 45.0157C9.39373 45.1564 9.08152 45.1982 9.09508 45.0479C9.11059 44.8738 9.55142 43.3199 9.55142 43.3199H9.00498C9.00498 43.3199 8.72425 44.5542 8.49572 44.9466C8.30014 45.2829 8.04932 45.135 8.06385 44.9394C8.09086 44.5828 8.72752 42.129 8.72752 42.129V42.129ZM9.51072 42.2179C9.33669 42.2179 9.19572 42.3575 9.19572 42.528C9.19572 42.6997 9.33669 42.8381 9.51072 42.8381C9.68451 42.8381 9.82585 42.6997 9.82585 42.528C9.82585 42.3575 9.68451 42.2179 9.51072 42.2179ZM15.0974 42.9621L14.9727 43.5274C15.1773 43.5214 15.3832 43.3461 15.2815 43.1959L15.0974 42.9621ZM16.2019 43.7468C16.0566 44.3228 16.5737 44.7844 16.2673 45.1553C16.145 45.2805 15.8543 45.2984 15.6896 45.1433C15.3554 44.8345 15.3614 44.7903 15.5419 44.5614C15.801 44.2298 15.9694 43.9519 16.2019 43.7468V43.7468ZM7.60922 43.7623C7.63804 43.7611 7.66759 43.7635 7.69763 43.7707C7.86512 43.8112 7.66093 44.3789 7.53231 44.9633C7.49247 45.1457 7.11716 45.2328 7.03154 45.0372C6.89723 44.7319 7.17711 43.785 7.60922 43.7623ZM3.5147 43.7814C3.55951 43.7838 3.60735 43.7945 3.65833 43.8136C3.65833 43.8136 3.54122 45.1696 3.08683 45.1696C2.94441 45.1696 2.82136 44.9811 2.95325 44.4648C3.03608 44.138 3.20127 43.7659 3.5147 43.7814V43.7814ZM12.9587 43.7933C13.0071 43.7969 13.0592 43.8088 13.1161 43.8303C13.1161 43.8303 12.978 45.1743 12.5118 45.1743C12.3701 45.1743 12.2465 44.9859 12.3785 44.4695C12.4609 44.1428 12.6183 43.7659 12.9587 43.7933V43.7933Z" fill="#B72126"/>
<path d="M6.12219 32.9148C5.68051 33.1816 5.4819 33.6763 5.4819 33.6763C5.87053 33.5944 5.93145 33.4847 6.22719 33.5099C6.33268 33.519 6.38257 33.5663 6.4665 33.6272C6.33801 33.5986 6.23882 33.5923 6.13067 33.5898C5.98038 33.5863 5.68306 33.6903 5.53204 33.7051C5.53204 33.7051 6.02737 33.9151 6.1796 33.9373C6.1796 33.9373 6.49932 34.0611 6.59173 33.6624C6.64186 33.4461 6.47607 33.133 6.26292 33.2206C6.26074 33.2215 6.30107 32.9927 6.12219 32.9148V32.9148ZM14.9672 38.2844C14.9563 38.2838 14.9454 38.2846 14.9357 38.2865C14.8327 38.3055 14.8291 38.4209 14.8291 38.4209C14.8291 38.4209 14.846 38.5236 14.7286 38.6098C14.6704 38.6535 14.4936 38.73 14.209 38.7856L13.1142 39.0922L13.4473 39.3677L14.5711 39.0109C14.5711 39.0109 14.9865 38.9087 14.9865 38.716C14.9865 38.4192 15.144 38.9839 15.0798 39.0959C15.0798 39.0959 15.1331 39.1461 15.2251 39.0805C15.3159 39.0149 15.299 38.8347 15.2082 38.581C15.127 38.3585 15.0422 38.2884 14.9672 38.2844V38.2844ZM11.15 39.6311L10.0039 39.9395C9.99581 39.9423 9.98661 39.9451 9.9768 39.9484C10.1058 40.1043 10.1721 40.3553 9.99896 40.5216C10.1041 40.4844 10.2421 40.4349 10.2421 40.4349C10.7021 40.2719 11.257 40.0829 11.8915 39.8727C11.8915 39.8727 11.8944 39.8719 11.8984 39.8708C11.8846 39.8501 11.8766 39.838 11.8766 39.838C11.6532 39.789 11.3965 39.7122 11.15 39.6311V39.6311ZM9.72623 40.0221C9.68263 40.0327 9.64593 40.0397 9.62438 40.0395C9.55535 40.057 8.67841 40.281 8.48379 40.3308C8.68713 40.5061 8.72116 40.8646 8.48112 41.0695C8.9733 40.8888 9.53185 40.6885 9.83789 40.5791L9.89965 40.557C9.97002 40.4304 9.96626 40.1784 9.83631 40.0739C9.80725 40.0506 9.76595 40.034 9.72623 40.0221V40.0221ZM8.14287 40.4212C8.13585 40.4216 8.12822 40.4217 8.1195 40.4217C8.03157 40.4436 7.96 40.461 7.96 40.461C7.63495 40.5407 7.40811 40.5933 7.28616 40.6174C6.62309 40.7486 5.61681 41.0014 4.02716 41.4363C4.19598 41.6608 4.29904 41.9804 4.12029 42.2802C4.04314 42.409 3.90617 42.4984 3.75394 42.5187C3.61297 42.5378 3.47491 42.4949 3.37693 42.4018C3.26454 42.2993 3.12527 42.088 3.32861 41.7673C3.24722 41.7329 3.15664 41.7125 3.06399 41.7023L1.52387 42.1348C1.51611 42.1372 1.50836 42.1389 1.50073 42.1409C1.30321 42.211 1.21407 42.5581 1.30248 42.8884C1.39343 43.2283 1.62596 43.4883 1.83681 43.4334C2.04717 43.3786 2.12892 43.0375 2.03785 42.6988C2.00297 42.5676 1.97439 42.4794 1.90681 42.3851C1.90681 42.3851 2.05117 42.5032 2.11923 42.793C2.17736 43.0411 2.16828 43.2402 2.09767 43.375C4.80612 42.4746 6.64937 41.8145 7.57572 41.4142C7.68448 41.367 7.93105 41.2724 8.30842 41.1331C8.30842 41.1331 8.34633 41.1192 8.3754 41.1086C8.46175 40.961 8.4787 40.6065 8.29995 40.4823C8.25816 40.4529 8.19519 40.4335 8.14287 40.4212V40.4212Z" fill="#FEE60E"/>
<defs>
<clipPath id="clip0">
<rect y="0.392578" width="176.439" height="60.4476" rx="9" fill="white"/>
</clipPath>
</defs>
</svg>
