<svg width="149" height="143" viewBox="0 0 149 143" fill="none" xmlns="http://www.w3.org/2000/svg">
<path d="M29.9147 131.643C25.1424 132.502 20.2094 133.388 15.9909 131.3C12.9812 129.812 10.5621 125.716 10.4847 121.978C10.4169 118.59 10.8662 115.069 12.0903 111.36C12.437 111.73 12.8612 111.94 13.2834 112.093C14.2247 112.435 15.5843 112.42 16.7173 112.036C18.472 111.448 20.1783 110.87 21.8479 110.303C21.751 110.4 21.6581 110.489 21.5632 110.595C18.0053 114.593 16.5237 119.319 17.4223 123.683C16.909 123.995 16.1963 124.386 15.4352 124.748C15.4352 124.748 13.4713 125.684 13.3764 125.734L12.8438 126.054V126.675C12.8419 127.299 12.8419 127.299 15.2183 128.726C15.2261 128.734 16.2061 129.373 16.7446 130.497L17.3779 131.821L18.846 131.785C20.1883 131.752 21.2534 131.023 21.9139 130.442C24.1838 131.436 26.5835 131.203 28.6869 129.784C30.4668 130.843 32.3145 131.052 33.2713 131.081C32.1402 131.246 31.0149 131.447 29.9148 131.643L29.9147 131.643ZM113.581 106.958H107.575L107.525 107.15C106.738 107.024 105.878 107.041 104.986 107.208C101.656 107.833 99.1074 109.848 97.3468 113.204C97.5443 111.455 97.3429 110.094 96.5159 109.038C95.5572 107.814 94.2073 107.131 92.6094 107.061C92.0264 107.036 91.4183 107.1 90.7965 107.241L90.8411 107.051H81.8989L81.9047 107.034H80.7116C82.3307 106.24 83.4502 104.584 83.4502 102.662C83.4502 99.978 81.2655 97.7932 78.5811 97.7932C76.532 97.7932 74.7793 99.0657 74.0606 100.861L75.4106 95.5756L64.9345 99.7067L63.2205 107.208C59.5851 106.683 57.1292 108.593 55.5817 110.502C55.8568 109.999 56.2906 109.203 56.2538 109.261L57.3171 107.557L46.9901 107.553L47.2787 106.455H38.9602C38.9602 106.455 37.4031 112.707 36.6922 114.926C37.0544 113.321 38.5224 107.041 38.5224 107.041H31.3602C46.6452 101.748 57.4315 97.7313 63.5077 95.0625C66.3471 93.8152 80.6227 88.6246 85.4015 86.9027C89.0077 85.6051 93.3558 84.1002 98.3214 82.4287C101.608 87.4333 110.025 100.164 115.071 106.976C114.758 106.959 114.299 106.959 113.582 106.959L113.581 106.958ZM79.6846 74.8414L80.3218 75.1163L75.6232 79.6407C73.7444 79.6407 73.1034 81.5136 73.1034 81.5136L69.7411 82.4529C69.5882 82.2999 68.7728 82.2302 68.7728 82.2302L72.9834 78.5736C76.4347 77.5084 79.6846 74.8414 79.6846 74.8414H79.6846ZM83.748 76.3908L87.8095 77.7601L82.1734 79.1836C82.1734 79.1836 81.7163 78.8776 81.1081 78.8292L83.748 76.3908L83.748 76.3908ZM144.527 122.742C143.438 122.198 142.276 121.89 141.056 121.818C140.946 120.249 140.436 118.725 139.999 117.449C139.813 116.895 139.632 116.372 139.518 115.936C138.97 113.868 138.823 113.025 139.313 111.683C140.359 108.824 136.718 107.182 135.279 106.531C135.279 106.531 134.833 106.33 134.835 106.33C134.411 106.136 134.167 106.229 133.522 106.479C132.999 106.682 132.397 107.089 131.602 107.817C132.263 106.733 132.687 105.369 132.798 103.924C133.224 103.614 133.621 103.126 133.942 102.481C135.029 100.318 135.075 96.7175 131.961 93.1033C130.698 91.6352 121.828 83.9519 114.025 77.2658L113.996 77.2407C116.738 76.3556 120.937 75.0037 120.902 75.0134C121.491 74.8546 122.438 74.4169 123.308 75.2032C124.078 75.9509 125.585 76.224 126.889 75.3059C129.149 73.7158 127.896 70.2199 127.433 68.9164C126.62 66.6252 125.471 65.7632 124.65 65.4417C123.856 65.1299 123.011 65.1125 122.285 65.4999C121.154 66.1022 120.879 67.0725 120.749 67.8627C120.604 68.7207 119.233 68.9222 116.794 69.5361C116.794 69.5361 108.435 71.8176 107.84 71.9861L107.796 71.9494L105.772 70.2295C105.379 69.5768 104.602 68.4127 103.688 67.669C103.527 65.0544 101.497 61.9419 99.8336 60.6714C99.7465 58.8508 98.2881 56.2168 96.7329 55.2561C89.7508 42.9361 83.5141 35.0286 77.6766 31.0986L77.4849 30.9689C76.439 30.2677 76.3499 30.169 76.3112 29.6228C75.9509 24.7692 74.6513 20.1132 73.0012 17.6186C73.6539 16.5708 74.6397 14.7056 75.3196 12.1181C75.3196 12.1181 76.0575 9.32724 76.0575 9.32912L75.213 9.8869C75.4261 9.18385 75.6411 8.34328 75.8483 7.32452L75.8677 7.18895C75.9296 6.35225 75.3641 6.03851 75.1879 5.96104C75.1162 5.92816 75.0465 5.91264 74.9768 5.89714C75.0387 4.97136 74.9458 3.85577 74.4654 2.62402L73.8186 0.958405L72.6236 2.28703C70.1793 5.00829 66.4607 6.4259 63.1798 7.67903C62.4283 7.96568 61.7176 8.23874 61.0436 8.5157C55.6922 10.7276 52.3822 13.0962 49.2621 19.7899C49.1884 19.8537 49.1071 19.9216 49.018 19.9971C47.6003 21.1882 44.6466 23.6692 42.9753 28.5848L42.6983 29.4002L43.4227 29.867C45.1444 30.9671 47.0077 31.7438 49.3589 32.5669C40.5329 52.2969 57.3347 64.0031 71.3939 71.1731C70.5805 72.6702 69.9278 74.0725 69.7554 75.7226L63.455 82.362C62.8508 82.5208 61.7062 82.8966 61.0399 83.6054C60.8133 83.8456 60.6022 84.1729 60.4066 84.5738C60.2323 84.6125 60.0793 84.6436 59.9456 84.6707C56.0081 85.4609 49.7155 86.8999 33.0169 91.5385C30.6017 89.3228 26.5829 87.9032 22.6279 87.9032C16.3642 87.9032 12.3184 91.2693 8.17162 96.3224C2.185 103.616 -4.57838 123.586 4.38325 134.156C5.91525 135.963 11.6772 141.795 21.5532 141.04C24.195 140.838 26.1745 140.4 27.9195 140.017C31.367 139.256 32.9416 138.909 36.3755 141.216L37.7467 142.14L39.0444 141.113C41.0005 139.568 44.3221 140.087 46.9969 140.708L52.1797 141.917L49.4624 137.342C45.8368 131.239 40.6984 130.364 35.5174 130.815C38.4341 130.002 40.371 127.41 41.7829 124.34C41.595 126.362 41.9436 128.512 43.8553 129.87C46.9347 132.059 50.7948 131.098 53.6496 129.331C54.9996 130.484 56.8124 131.158 58.4819 131.084C59.9325 131.057 61.1779 130.77 62.3439 130.203C63.1167 130.749 63.9805 131.075 64.9256 131.168C66.4905 131.319 68.1679 130.813 69.9167 129.67C70.827 130.581 72.0201 131.08 73.3777 131.086C74.0111 131.089 74.6715 131.003 75.3398 130.836L75.272 131.086H84.7003L85.967 126.451C86.0793 127.366 86.3543 128.243 86.885 129.01C87.4738 129.858 88.6126 130.904 90.7101 131.078C92.9568 131.264 95.649 130.42 97.822 128.894C100.183 131.218 103.162 131.597 106.702 130.009C107.401 130.612 108.608 131.322 110.423 131.073C111.666 130.991 112.917 130.461 114.221 129.477C115.294 130.54 116.677 131.109 118.226 131.086C120.775 131.047 122.917 129.523 124.6 127.954C126.454 129.851 129.264 131.783 133.579 131.055C134.323 130.927 134.933 130.765 135.473 130.619C136.901 130.238 137.083 130.189 138.222 131.152L141.59 134.005L141.94 129.696C142.006 129.479 142.475 128.171 144.76 126.664L148.045 124.499L144.528 122.742L144.527 122.742Z" fill="white"/>
<path d="M82.3498 102.668C82.3498 100.589 80.6589 98.8965 78.5808 98.8965C76.5027 98.8965 74.8098 100.589 74.8098 102.668C74.8098 104.746 76.5025 106.437 78.5808 106.437C80.6589 106.437 82.3498 104.746 82.3498 102.668ZM144.034 123.73C142.554 122.99 141.109 122.851 139.966 122.919C140.102 121.183 139.484 119.363 138.955 117.809C138.762 117.236 138.578 116.696 138.452 116.221C137.909 114.168 137.654 113.02 138.279 111.311C138.973 109.411 136.114 108.122 134.894 107.568L134.375 107.335C134.372 107.333 133.916 107.509 133.916 107.509C132.324 108.125 129.072 111.995 123.242 119.394C122.558 120.263 121.865 121.144 121.309 121.838C121.67 120.197 122.837 114.889 123.399 112.34C125.646 112.545 127.377 111.122 127.798 108.979C129.663 109.44 131.731 106.698 131.731 103.21C132.713 103.276 135.518 98.9235 131.127 93.8239C129.788 92.2706 119.115 83.0728 111.809 76.8264L111.784 76.8012L120.614 73.956C121.16 73.8088 122.164 73.5745 122.655 73.6152C122.975 73.6423 123.657 74.1071 123.99 74.4732C124.312 74.7869 125.199 75.1801 126.239 74.4228C127.647 73.3982 127.002 71.0024 126.394 69.2883C125.722 67.3903 124.883 66.571 124.277 66.3328C123.781 66.1391 123.208 66.0829 122.656 66.3676C121.391 67.0223 121.976 68.3954 121.282 68.9184C121.282 68.9184 121.081 69.5304 117.145 70.4892L108.102 73.0593L107.572 73.2084L107.529 73.1717C105.92 71.8024 104.92 70.9559 104.92 70.9559C104.285 69.8694 103.388 68.686 102.588 68.2424C102.77 65.5832 100.071 61.8878 98.6915 61.2466C99.0692 60.0788 97.4868 56.7669 95.9296 56.0774C90.9579 47.2708 84.2159 36.8337 77.0596 32.0149C75.9169 31.246 75.2991 30.8993 75.2119 29.7082C74.811 24.2697 73.2693 19.5788 71.6636 17.6517C72.2544 16.8188 73.4688 14.8239 74.255 11.8452C74.255 11.8452 73.3409 12.4494 72.6416 12.6722C73.0174 12.2422 73.9413 11.1885 74.7683 7.11166C74.8051 6.61974 74.3867 7.54164 73.395 8.11299C73.5577 7.39832 74.4002 5.50024 73.4396 3.02887C70.2361 6.59062 65.1074 8.0296 61.4604 9.53648C55.9232 11.8239 53.0277 14.21 50.1514 20.4755C49.1327 21.3935 45.7878 23.7293 44.0118 28.9431C45.7821 30.0762 47.7072 30.8509 50.4381 31.7844C50.4381 31.7844 50.4594 32.6598 50.4749 32.7586C42.1757 50.8923 55.8591 62.1923 72.9049 70.7098C71.8067 72.6835 70.9061 74.2542 70.8074 76.2103L64.0266 83.3591C64.0266 83.3591 62.4811 83.6767 61.838 84.3623C61.5552 84.6645 61.3267 85.1642 61.1853 85.5322C60.7863 85.6213 60.4396 85.6968 60.1588 85.7529C56.0295 86.5819 49.3824 88.1313 32.6925 92.77C32.6364 92.7118 32.5821 92.646 32.524 92.5879C30.347 90.4148 26.4619 89.0068 22.625 89.0068C16.7914 89.0068 12.9663 92.2122 9.01755 97.0232C3.22842 104.079 -3.36046 123.331 5.21754 133.448C6.66429 135.154 12.1105 140.663 21.4638 139.948C24.03 139.75 25.9688 139.324 27.6789 138.947C31.2135 138.166 33.16 137.738 36.9852 140.308L37.6921 140.783L38.3603 140.254C40.6825 138.418 44.3295 138.962 47.2424 139.642L49.9152 140.264L48.5129 137.907C43.9595 130.243 36.9193 131.508 30.1092 132.732C25.1625 133.621 20.0475 134.539 15.5042 132.292C12.1032 130.611 9.47305 126.187 9.38579 122.006C9.30251 117.886 10.2341 113.311 11.6634 109.376C12.7868 110.822 14.2162 111.603 15.5079 111.262C15.6822 111.216 15.841 111.154 15.996 111.084C16.1199 111.067 16.2458 111.041 16.3659 111.001C39.5197 103.201 55.2322 97.4994 63.0634 94.0619C65.9318 92.8031 80.2409 87.5988 85.0272 85.8751C89.2668 84.3469 94.0759 82.6968 98.7747 81.1202C101.6 85.4354 112.745 102.359 117.587 108.475C116.632 114.1 114.973 120.797 112.156 122.529C112.038 122.604 111.893 122.697 111.767 122.775C112.379 119.492 114.399 110.813 114.717 109.51L115.067 108.063L108.426 108.061L108.314 108.498C107.452 108.154 106.387 108.068 105.186 108.293C100.046 109.26 96.9256 113.997 95.9164 122.373C95.8971 122.522 95.8796 122.677 95.8622 122.799C94.859 123.952 94.0707 124.174 93.8343 124.085C93.7491 124.054 93.7336 123.866 93.7394 123.758C93.7724 122.768 94.3127 120.901 94.8376 119.098C96.1662 114.508 96.9429 111.372 95.6511 109.72C94.8957 108.755 93.8266 108.219 92.5599 108.165C91.4482 108.116 90.3055 108.446 89.2674 108.965L89.4553 108.155H82.5662L82.3725 109.087C81.59 112.885 79.3065 120.926 77.7397 122.763C77.4299 123.125 76.8198 123.35 76.3956 123.41C76.8275 121.332 78.7799 114.133 80.0406 109.622L80.4551 108.139H73.4691L73.2638 109.051C73.2406 109.152 70.9629 119.264 69.1868 122.362C68.6735 123.253 68.1971 123.499 68.017 123.443C67.8969 123.406 67.7826 123.216 67.8 122.972C67.9744 120.603 71.7918 105.305 73.2463 99.6084L73.8119 97.3927L65.8768 100.523L64.0505 108.525C63.8142 108.446 63.5508 108.376 63.2525 108.328C58.1471 107.468 55.6603 112.124 54.7248 113.877C53.5259 116.12 52.3174 119.811 52.205 122.745C51.4652 123.617 50.5626 124.281 50.2585 124.241C50.0029 124.208 49.937 124.117 49.8789 124.002C48.9124 122.102 51.9396 114.896 54.3994 110.385L55.3387 108.655L45.5637 108.658L45.8523 107.56H39.8328L39.6237 108.464C38.3957 113.736 36.1974 120.647 34.2645 123.362C34.0321 123.687 33.8307 123.859 33.6932 123.943C33.8133 122.694 35.3531 115.727 36.7978 109.582L37.1367 108.144H30.2572L29.9648 109.262C27.7355 108.439 24.8149 108.6 22.3842 111.332C18.8398 115.316 17.5073 119.965 18.6674 124.182C18.1522 124.57 17.0173 125.221 15.9055 125.747L13.9435 126.681L15.8068 127.802C15.8125 127.808 17.0463 128.583 17.7358 130.026L18.0631 130.709L18.8185 130.69C20.0793 130.659 21.0651 129.789 21.7043 129.121C24.013 130.427 26.5425 130.181 28.6536 128.449C30.5613 129.863 32.8041 129.989 33.5227 129.989C39.4241 129.989 41.6825 122.176 43.3287 116.468C43.5495 115.709 43.7587 114.984 43.9621 114.329H46.2223C46.0829 114.668 45.9376 115.019 45.7885 115.379C45.13 116.958 44.3862 118.749 43.811 120.492C43.1738 122.435 41.6766 126.981 44.4888 128.977C47.2603 130.945 51.0236 129.899 53.7738 127.935C55.0812 129.423 56.9967 130.052 58.459 129.988C59.993 129.959 61.2692 129.613 62.4603 128.894C63.2002 129.582 64.0601 129.981 65.0305 130.076C66.8433 130.252 68.66 129.301 70.1185 128.187C70.8506 129.336 71.9778 129.983 73.38 129.989C74.5401 129.995 75.7661 129.665 76.9592 129.065L76.7074 129.989H83.8601L86.1746 121.515C87.5148 116.119 88.8551 115.493 89.1127 115.42C89.227 115.389 89.3199 115.417 89.3838 115.455C89.3781 115.807 89.0836 116.708 88.8183 117.517C88.5781 118.25 88.2799 119.16 87.9738 120.25L87.8848 120.562C87.2863 122.679 86.283 126.221 87.786 128.387C88.2392 129.041 89.1282 129.847 90.7977 129.985C93.089 130.176 95.938 129.111 97.9484 127.416C100.815 130.93 104.258 130.054 106.921 128.691C107.657 129.506 108.649 130.211 110.346 129.979C111.837 129.88 113.202 128.979 114.355 127.949C115.271 129.285 116.615 130.012 118.205 129.989C120.787 129.952 122.945 128.102 124.643 126.38C126.717 128.792 129.297 130.665 133.392 129.973C134.085 129.855 134.672 129.7 135.187 129.562C136.717 129.152 137.35 128.981 138.929 130.316L140.664 131.786L140.85 129.522C140.848 129.533 141.127 127.744 144.152 125.749L145.845 124.635L144.034 123.729L144.034 123.73ZM76.3548 80.3725C75.5452 80.5313 75.152 80.6456 74.602 81.155C74.2147 81.5114 73.9532 82.0111 73.8118 82.3829C72.2856 82.78 70.7111 83.1828 69.1828 83.5721C68.8342 83.3668 68.166 83.0957 67.1317 83.1693C67.0349 83.1618 66.7618 83.1132 66.7831 82.8265C66.8024 82.5766 72.4908 77.4267 72.4908 77.4267C74.081 77.1013 79.9068 73.7158 79.9068 73.7158L81.6887 74.444L81.557 74.7365L81.3033 75.1878L76.6898 80.0859C76.591 80.1963 76.4961 80.3454 76.3547 80.3725L76.3548 80.3725ZM81.6925 80.3125C81.2916 80.0162 80.8655 79.8439 80.4723 79.8497C78.9945 79.8748 79.4961 79.3364 79.8332 78.9549L83.788 75.2614C83.788 75.2614 86.9063 76.5571 90.65 77.8702C85.227 79.3577 82.283 80.1538 81.6924 80.3125L81.6925 80.3125ZM25.5424 123.65C25.5269 123.65 25.5056 123.65 25.4514 123.582C25.3739 123.483 24.7309 122.532 25.5695 119.191C26.1874 116.728 27.0958 115.076 28.1242 114.541C28.3217 114.439 28.6006 114.332 28.9957 114.348C28.467 118.934 27.0086 123.65 25.5425 123.65L25.5424 123.65ZM61.98 119.188C61.6836 120.367 61.3796 121.587 61.1065 122.842C61.0677 123.024 60.5951 123.398 59.9405 123.46C59.7042 123.485 59.2781 123.466 59.1852 123.249C58.5944 121.886 59.4079 117.493 61.3195 115.225C61.8812 114.557 62.4371 114.216 62.9755 114.196C62.9968 115.126 62.4158 117.443 61.98 119.188L61.98 119.188ZM103.368 123.689C103.352 123.689 103.329 123.689 103.276 123.617C103.199 123.522 102.558 122.569 103.395 119.228C104.028 116.712 104.867 115.169 105.893 114.64C106.24 114.462 106.635 114.414 107.071 114.466C106.468 119.089 104.925 123.689 103.368 123.689L103.368 123.689ZM133.496 123.911C133.225 124.175 132.706 124.351 132.152 124.363C131.465 124.378 130.827 124.157 130.411 123.755C128.284 121.76 128.284 121.76 129.309 120.429C129.971 119.571 130.551 118.771 131.114 117.997C131.608 117.311 132.079 116.672 132.545 116.069C132.708 117.261 133.049 118.366 133.37 119.403C134.033 121.539 134.364 122.811 133.496 123.911" fill="#14264B"/>
<path d="M59.4072 25.1051C59.045 25.69 58.3749 26.0599 57.6389 26.0096C56.5873 25.936 55.7951 25.0237 55.8668 23.9721C55.9424 22.9165 56.8546 22.1243 57.9082 22.2C58.6035 22.2483 59.1884 22.6648 59.4808 23.2478C58.1657 23.1064 57.8791 24.3769 57.8791 24.3769C57.0269 23.333 58.127 22.7307 58.127 22.7307C57.3949 22.6338 56.6996 23.1936 56.6395 24.0322C56.5814 24.8747 57.2147 25.6029 58.0552 25.661C58.6227 25.7017 59.1108 25.5158 59.4071 25.1052" fill="white"/>
<path d="M72.622 5.4386C69.827 8.369 65.397 9.3251 61.608 10.919C56.056 13.257 53.172 16.866 51.735 20.353C52.274 21.275 55.644 21.36 56.149 21.06C57.009 20.548 58.175 20.291 59.106 20.829C59.786 21.222 60.154 21.614 60.464 21.821C61.287 22.172 62.436 22.462 63.288 22.261C59.538 26.022 59.106 30.959 59.458 31.794C55.046 31.794 50.619 37.767 49.812 39.378C45.094 57.148 72.027 68.859 74.7 70.103C73.145 72.588 71.83 74.577 71.946 75.501C72.039 76.239 72.456 76.259 73.315 76.085C75.283 74.975 78.755 73.386 79.98 71.966C80.723 71.106 79.953 69.855 79.589 69.448C79.198 69.007 79.423 68.621 80.323 69.171C81.177 69.893 81.331 70.294 81.601 70.927C81.986 71.843 80.884 72.819 80.884 72.819C83.915 74.189 94.278 78.266 97.487 78.901L94.009 73.269C87.691 70.747 78.806 66.939 73.765 64.437C65.95 60.553 53.014 52.467 59.464 40.079C61.348 36.924 62.064 36.861 62.331 37.599C62.349 37.674 62.293 37.886 62.214 37.927C62.094 38.049 61.244 38.867 60.452 40.548C54.39 51.814 66.934 59.889 74.331 63.476C85.04 68.666 94.953 72.664 101.481 74.855C102.481 75.19 103.391 75.532 104.101 75.734C106.081 76.316 103.531 69.456 101.031 68.751C87.785 64.858 75.034 59.052 71.503 55.566C69.384 55.314 63.728 53.591 62.808 45.929C62.771 45.722 62.781 45.544 63.04 45.485C63.28 45.431 63.378 45.606 63.399 45.712C65.019 52.667 69.758 54.521 71.761 54.569C72.869 54.595 74.614 53.491 74.157 53.224C70.719 51.229 68.787 47.212 68.651 46.796C68.562 46.525 68.663 46.451 68.833 46.36C68.992 46.277 69.176 46.343 69.349 46.61C70.236 47.986 73.499 53.362 78.331 53.509C79.609 53.548 81.015 53.503 81.3 52.359C81.3 52.359 77.213 50.475 75.208 47.161C75.138 47.055 75.081 46.853 75.339 46.696C75.602 46.538 75.805 46.809 75.925 46.921C79.827 50.924 82.96 52.55 84.855 52.349C85.621 52.3 86.157 51.752 86.185 51.366C86.287 49.912 84.816 49.022 84.429 48.759C84.373 48.722 84.343 48.59 84.407 48.505C84.465 48.422 84.614 48.379 84.81 48.474C85.575 48.838 87.072 49.914 86.948 51.61C86.925 51.911 86.886 52.111 86.659 52.359C88.873 53.523 92.641 55.021 94.392 55.564C89.021 46.559 83.084 37.092 75.347 32.376C75.139 33.048 75.786 34.578 75.015 34.208C74.48 33.952 74.013 31.723 73.993 30.718C73.892 25.52 72.467 21.185 70.567 18.691C69.516 19.514 67.608 19.931 67.616 19.943C71.422 16.567 71.911 14.198 71.911 14.198C70.801 15.056 68.136 16.239 66.749 16.48C66.749 16.48 71.092 13.943 72.835 9.4171C72.835 9.3784 70.064 12.136 66.011 13.052C66.009 13.046 72.746 9.9765 72.622 5.4386ZM82.185 52.6806C82.109 53.1706 81.961 53.6366 81.189 53.9846C88.248 58.1806 95.784 60.4696 97.437 60.9476C97.777 60.7036 96.915 57.4796 94.55 56.6416C91.021 55.3866 88.081 54.1416 85.995 52.8326C85.259 53.2376 84.166 53.4766 82.185 52.6806ZM75.218 53.7646C75.136 54.3586 73.579 55.2366 72.878 55.3596C77.954 59.6756 95.833 66.3326 100.941 67.5296C101.761 67.7216 100.571 64.0446 98.321 62.5376C96.677 61.4296 86.346 59.0406 79.8 54.3286C78.696 54.5086 77.321 54.5506 75.218 53.7646ZM105.671 73.0656C105.881 73.5226 105.991 74.1146 106.091 74.6646C106.991 78.9256 103.771 76.5656 95.55 73.7976C102.141 84.2056 112.181 99.5766 117.861 106.765C118.181 104.645 118.411 102.785 118.551 101.575L118.671 100.545L119.861 100.085L104.381 80.2336H105.761C105.761 80.2336 114.581 91.6326 120.981 99.6496L125.411 97.9166C118.921 91.0506 108.121 79.8956 108.121 79.8956L109.531 79.9326C109.521 79.8196 130.451 101.555 130.451 101.555C131.601 102.845 133.551 98.4756 130.411 94.9796C128.671 92.2016 105.671 73.0656 105.671 73.0656ZM22.626 90.1746C17.616 90.1746 14.073 92.7076 9.92299 97.7666C3.95169 105.045 -1.80101 123.365 6.11229 132.695C8.76379 135.825 14.119 139.335 21.3763 138.785C29.3113 138.175 31.4653 135.195 37.6363 139.335C40.5413 137.045 44.9703 137.915 47.5093 138.505C40.2523 126.285 26.3663 138.965 14.9873 133.345C11.0443 131.395 8.31109 126.505 8.21809 122.035C8.12319 117.515 9.21229 112.485 10.8703 108.185C10.5083 107.515 10.2083 106.765 9.99529 105.965C9.12029 102.645 10.2213 99.3186 12.1693 98.5686C12.2753 98.5186 12.3893 98.4746 12.5133 98.4426C14.4823 97.8726 16.3643 97.3866 18.1713 96.8716C18.8043 96.3086 19.4443 95.8276 20.0833 95.4516C22.3593 94.1216 26.7103 94.0656 29.2513 95.9166C28.0713 97.3036 27.0543 99.1916 28.7243 100.745C30.0293 102.005 32.1783 101.485 33.0623 99.9886C34.4233 97.6726 33.3123 95.0686 31.7003 93.4146C29.7633 91.4796 26.1843 90.1746 22.6263 90.1746H22.626ZM126.306 98.8656L125.046 104.685C126.356 106.245 127.236 107.245 127.446 107.335C129.466 108.235 130.916 104.235 130.136 103.095C129.876 102.705 128.386 101.085 126.306 98.8656ZM72.109 99.3186L66.875 101.385L64.764 110.635C64.764 110.635 64.745 109.765 63.053 109.475C59.332 108.855 57.268 111.585 55.752 114.425C54.619 116.545 53.359 120.375 53.359 123.175C53.359 123.175 51.525 125.585 50.103 125.405C45.221 124.765 53.367 109.825 53.367 109.825H44.041L44.332 108.725H40.756C39.768 112.975 37.506 120.815 35.211 124.045C33.967 125.795 32.554 125.305 32.514 124.095C32.473 122.855 35.656 109.315 35.656 109.315H31.156L30.73 110.945C29.468 110.135 26.176 108.825 23.254 112.115C19.433 116.405 18.797 120.965 19.943 124.395C20.102 125.045 16.402 126.805 16.402 126.805C16.402 126.805 17.923 127.715 18.785 129.525C20.203 129.485 21.398 127.535 21.551 127.635C23.735 129.285 26.409 129.265 28.627 126.885C29.979 128.305 31.999 128.825 33.519 128.825C39.582 128.825 41.407 118.155 43.107 113.165H47.932C47.227 115.095 45.838 118.065 44.916 120.865C43.949 123.795 43.361 126.745 45.16 128.025C47.922 129.985 51.823 128.195 54.019 126.245C54.941 128.025 56.863 128.885 58.404 128.825C60.103 128.795 61.384 128.355 62.644 127.355C64.994 130.595 68.581 128.125 70.557 126.285C70.901 127.645 71.754 128.815 73.381 128.825C75.306 128.835 77.341 127.765 78.93 126.245L78.232 128.825H82.961L85.041 121.215C87.332 111.985 90.164 114.435 90.389 114.805C90.913 115.615 90.047 117.165 89.096 120.565C88.435 122.935 86.674 128.475 90.891 128.825C93.306 129.025 96.471 127.535 98.101 125.635C100.506 129.505 103.396 129.395 107.206 127.205C108.036 128.275 108.656 129.035 110.196 128.825C111.966 128.745 113.716 127.005 114.676 126.005C115.216 127.545 116.336 128.855 118.186 128.825C120.756 128.785 123.036 126.385 124.716 124.625C126.976 127.555 129.266 129.485 133.196 128.825C135.946 128.355 137.016 127.175 139.676 129.425C139.676 129.425 139.866 127.175 143.506 124.775C141.506 123.775 139.486 124.035 138.356 124.385C139.626 122.055 137.926 118.805 137.316 116.525C136.776 114.465 136.416 113.005 137.176 110.915C137.516 109.985 134.786 108.805 134.336 108.605C132.006 109.505 122.026 123.125 120.986 123.995C120.506 124.405 119.366 125.065 120.056 122.065C120.056 122.065 125.066 99.3426 125.036 99.3186L119.746 101.385C119.146 106.405 117.576 120.565 112.766 123.525C112.326 123.795 110.866 124.875 110.436 124.025C110.196 123.565 113.546 109.385 113.576 109.235H109.326L108.996 110.525C108.296 109.235 106.526 109.235 105.396 109.445C97.339 110.955 97.211 122.925 96.941 123.335C94.606 126.215 92.504 125.485 92.566 123.715C92.673 120.665 96.349 112.525 94.725 110.445C92.937 108.155 89.254 109.795 87.41 111.775L87.978 109.325H83.514C82.872 112.425 80.546 121.275 78.623 123.525C77.61 124.705 75.032 125.055 75.144 123.795C75.272 122.335 78.912 109.305 78.912 109.305H74.4C74.4 109.305 72.082 119.655 70.195 122.945C68.58 125.765 66.509 124.525 66.629 122.885C66.852 119.895 72.109 99.3186 72.109 99.3186ZM78.576 100.065C77.139 100.065 75.975 101.235 75.975 102.665C75.975 104.105 77.139 105.265 78.576 105.265C80.011 105.265 81.178 104.105 81.178 102.665C81.178 101.235 80.011 100.065 78.576 100.065ZM124.706 106.305L123.676 111.045C125.366 110.995 127.066 109.525 126.226 108.265L124.706 106.305ZM133.826 112.885C132.626 117.715 136.896 121.585 134.366 124.695C133.356 125.745 130.956 125.895 129.596 124.595C126.836 122.005 126.886 121.635 128.376 119.715C130.516 116.935 131.906 114.605 133.826 112.885ZM62.875 113.015C63.113 113.005 63.357 113.025 63.605 113.085C64.988 113.425 63.302 118.185 62.24 123.085C61.911 124.615 58.812 125.345 58.105 123.705C56.996 121.145 59.307 113.205 62.875 113.015ZM29.066 113.175C29.436 113.195 29.831 113.285 30.252 113.445C30.252 113.445 29.285 124.815 25.533 124.815C24.357 124.815 23.341 123.235 24.43 118.905C25.114 116.165 26.478 113.045 29.066 113.175ZM107.046 113.275C107.446 113.305 107.876 113.405 108.346 113.585C108.346 113.585 107.206 124.855 103.356 124.855C102.186 124.855 101.166 123.275 102.256 118.945C102.936 116.205 104.236 113.045 107.046 113.275Z" fill="#B72126"/>
<path d="M50.597 22.0541C46.95 24.2911 45.31 28.4391 45.31 28.4391C48.519 27.7531 49.022 26.8331 51.464 27.0441C52.335 27.1201 52.747 27.5171 53.44 28.0281C52.379 27.7881 51.56 27.7351 50.667 27.7141C49.426 27.6851 46.971 28.5571 45.724 28.6811C45.724 28.6811 49.814 30.4421 51.071 30.6281C51.071 30.6281 53.711 31.6661 54.474 28.3231C54.888 26.5091 53.519 23.8841 51.759 24.6181C51.741 24.6261 52.074 22.7071 50.597 22.0541ZM123.631 67.0791C123.541 67.0741 123.451 67.0811 123.371 67.0971C122.521 67.2561 122.491 68.2241 122.491 68.2241C122.491 68.2241 122.631 69.0851 121.661 69.8081C121.181 70.1741 119.721 70.8161 117.371 71.2821L108.331 73.8531L111.081 76.1631L120.361 73.1711C120.361 73.1711 123.791 72.3141 123.791 70.6981C123.791 68.2101 125.091 72.9451 124.561 73.8841C124.561 73.8841 125.001 74.3051 125.761 73.7551C126.511 73.2051 126.371 71.6941 125.621 69.5661C124.951 67.7011 124.251 67.1131 123.631 67.0791ZM92.112 78.3721L82.649 80.9581C82.582 80.9811 82.506 81.0051 82.425 81.0321C83.49 82.3401 84.038 84.4441 82.608 85.8391C83.476 85.5271 84.616 85.1121 84.616 85.1121C88.414 83.7451 92.996 82.1601 98.235 80.3981C98.235 80.3981 98.259 80.3911 98.292 80.3821C98.178 80.2081 98.112 80.1071 98.112 80.1071C96.267 79.6961 94.148 79.0521 92.112 78.3721ZM80.356 81.6501C79.996 81.7391 79.693 81.7981 79.515 81.7961C78.945 81.9431 71.704 83.8211 70.097 84.2391C71.776 85.7091 72.057 88.7151 70.075 90.4331C74.139 88.9181 78.751 87.2381 81.278 86.3211L81.788 86.1361C82.369 85.0741 82.338 82.9611 81.265 82.0851C81.025 81.8891 80.684 81.7501 80.356 81.6501ZM67.282 84.9971C67.224 85.0001 67.161 85.0011 67.089 85.0011C66.363 85.1851 65.772 85.3311 65.772 85.3311C63.088 85.9991 61.215 86.4401 60.208 86.6421C54.733 87.7421 46.424 89.8621 33.298 93.5091C34.692 95.3911 35.543 98.0711 34.067 100.585C33.43 101.665 32.299 102.415 31.042 102.585C29.878 102.745 28.738 102.385 27.929 101.605C27.001 100.745 25.851 98.9731 27.53 96.2841C26.858 95.9961 26.11 95.8251 25.345 95.7391L12.628 99.3661C12.564 99.3861 12.5 99.4001 12.437 99.4171C10.806 100.005 10.07 102.915 10.8 105.685C11.551 108.535 13.471 110.715 15.212 110.255C16.949 109.795 17.624 106.935 16.872 104.095C16.584 102.995 16.348 102.255 15.79 101.465C15.79 101.465 16.982 102.455 17.544 104.885C18.024 106.965 17.949 108.635 17.366 109.765C39.73 102.215 54.95 96.6801 62.599 93.3231C63.497 92.9281 65.533 92.1341 68.649 90.9661C68.649 90.9661 68.962 90.8501 69.202 90.7611C69.915 89.5231 70.055 86.5511 68.579 85.5091C68.234 85.2631 67.714 85.1001 67.282 84.9971Z" fill="#FEE60E"/>
</svg>
