<svg width="196" height="196" viewBox="0 0 196 196" fill="none" xmlns="http://www.w3.org/2000/svg">
<path d="M114.285 1.44795C101.258 -0.803054 88.1488 -0.429242 75.3358 2.56776C62.0698 5.67206 49.7888 11.4435 38.8228 19.7228C18.0168 35.4308 4.56579 58.2957 0.957793 84.1197C-2.65271 109.94 4.018 135.622 19.7238 156.43C34.7088 176.289 56.4618 189.565 80.9708 193.804C94.0018 196.055 107.098 195.679 119.912 192.676C133.184 189.586 145.471 183.816 156.427 175.536C177.235 159.836 190.688 136.966 194.297 111.136C197.905 85.3163 191.231 59.6364 175.531 38.8264C160.542 18.9664 138.789 5.69634 114.284 1.45634" fill="#134A8E"/>
<path d="M190.746 110.638C187.27 135.513 174.316 157.548 154.273 172.67C143.702 180.652 131.866 186.207 119.086 189.198C117.542 189.558 115.993 189.879 114.446 190.16C103.59 192.141 92.5546 192.181 81.5776 190.285C63.8726 187.215 47.6646 179.258 34.5686 167.401C30.2084 163.443 26.1914 159.062 22.5826 154.28C10.2826 137.997 3.7396 118.603 3.5756 98.5621C3.5449 93.9334 3.84788 89.2779 4.50364 84.6171C7.33954 64.2941 16.5006 45.8721 30.6996 31.5541C33.8748 28.3482 37.3109 25.3455 40.9736 22.5787C48.0815 17.208 55.7666 12.9475 63.9266 9.81469C67.8937 8.29419 71.974 7.03249 76.1536 6.06039C88.5076 3.17079 101.128 2.80837 113.676 4.97707C137.285 9.05547 158.235 21.8371 172.679 40.9731C187.807 61.0201 194.233 85.7541 190.756 110.639" fill="white"/>
<path d="M183.429 131.938C186.151 125.095 188.075 117.883 189.116 110.407C190.178 102.772 190.306 95.1579 189.515 87.6869V87.6658C189.49 87.5163 189.469 87.3571 189.449 87.1961C187.632 70.9191 181.477 55.3741 171.358 41.9601C160.131 27.0921 144.899 16.123 127.539 10.215C122.964 8.65044 118.236 7.43287 113.39 6.59877C112.61 6.46647 111.826 6.33798 111.04 6.21718C106.327 5.53075 101.575 5.22205 96.8606 5.26424C94.2702 5.28534 91.6855 5.42721 89.1027 5.66688C87.9983 5.77234 86.8804 5.89889 85.7875 6.03886C85.335 6.09826 84.8748 6.15583 84.4223 6.23061C69.1353 8.44331 54.4633 14.4583 41.9653 23.8916C35.5228 28.7561 29.8303 34.3416 24.9633 40.5216C14.9393 53.2166 8.43131 68.3966 6.13231 84.8426C5.06811 92.4797 4.93971 100.104 5.7469 107.584C6.63659 115.972 8.68629 124.181 11.8366 131.997C14.8546 139.496 18.8812 146.654 23.8876 153.278C29.6552 160.919 36.4756 167.521 44.0976 172.951C46.8759 174.926 49.7713 176.753 52.7509 178.406C61.7206 183.381 71.5319 186.862 81.8629 188.643V188.654C84.2137 189.063 86.574 189.366 88.9401 189.586C92.8401 189.954 96.7517 190.073 100.638 189.935C101.647 189.901 102.646 189.853 103.656 189.78C121.49 188.591 138.839 182.262 153.275 171.352C154.704 170.265 156.103 169.145 157.468 168C169.065 158.158 177.906 145.827 183.424 131.937" fill="#134A8E"/>
<path d="M151.123 168.508C131.314 183.464 106.932 189.371 82.4658 185.132C60.1768 181.278 40.3788 169.204 26.7458 151.134C12.4518 132.199 6.39378 108.832 9.66778 85.3429C12.9562 61.8449 25.1898 41.0409 44.1178 26.7449C63.9268 11.7989 88.3198 5.88889 112.784 10.1269C132.643 13.5591 150.509 23.5109 163.809 38.4189C163.862 38.4764 163.893 38.509 163.922 38.5435C165.515 40.3286 167.044 42.1923 168.503 44.1232C182.799 63.0502 188.862 86.4292 185.581 109.917C182.294 133.413 170.059 154.217 151.131 168.508" fill="white"/>
<path d="M54.2559 74.4327C51.4335 75.6273 49.98 77.0345 47.8555 80.4015C24.7235 84.2287 16.8025 87.9248 14.7145 90.2238C14.4134 90.6438 14.5441 90.8485 14.8336 90.9328C22.5244 90.6107 33.2996 90.2221 52.1616 90.8586C53.7205 90.8797 55.2421 90.9176 56.7358 90.9445C57.6868 89.6867 59.4025 88.5773 62.6909 88.5773H63.0229H63.6557C69.7684 88.6559 70.8943 94.9289 77.3847 94.9289C83.81 94.9289 84.9764 88.7653 90.9507 88.5812C91.1559 88.5812 91.3566 88.5773 91.5445 88.5773H113.929L113.619 84.8644H91.2229C85.0047 84.8644 83.9042 78.507 77.375 78.507C70.9158 78.507 69.7915 84.8332 63.734 84.8332H63.6734C57.2961 84.3903 54.7731 78.9982 54.2554 74.4332L54.2559 74.4327ZM15.3309 91.8117C14.5581 91.8017 14.3486 92.1171 15.1981 92.7824C18.8719 95.4457 31.326 100.267 46.6101 103.112C53.9596 104.481 57.31 106.499 62.585 110.187C74.067 118.213 89.7201 140.877 99.2671 168.902C117.371 133.742 138.403 116.909 140.046 115.621L129.282 116.502L124.116 116.921L127.432 112.935L129.231 110.763L122.276 104.757C118.495 110.538 114.812 116.802 113.059 121.636L120.708 121.605C116.779 126.477 109.205 134.527 104.101 143.455C99.0107 130.935 87.0728 114.835 65.5128 105.985C59.2678 103.425 53.3668 100.025 54.1258 95.0801C43.2988 93.5331 31.4288 92.2751 17.9918 91.8481C17.0254 91.8308 16.1331 91.813 15.3297 91.8091L15.3309 91.8117Z" fill="#1D2D5C"/>
<path d="M74.9026 81.3878C73.5547 82.2928 72.5773 83.9762 72.631 85.6041H74.8086C74.7032 84.8026 74.4577 83.2247 74.9026 81.3878" fill="white"/>
<path d="M99.9116 15.4479L95.605 15.7076C95.9348 16.093 96.0418 16.577 96.1089 17.3248L96.5171 24.2564L86.1791 16.1763L87.0405 30.7873C87.0731 31.4719 87.0213 32.1731 86.5151 32.7502L91.062 32.4846C90.6267 32.0321 90.586 31.5186 90.5112 30.6155V30.5862L90.1264 23.9085L100.435 32.0023L99.5663 17.1903C99.5375 16.5978 99.5669 15.9524 99.912 15.4481L99.9116 15.4479ZM107.894 16.192L106.46 19.7779C107.31 19.4117 107.966 19.4332 108.869 19.5924L111.273 20.0748L109.011 31.2488C108.837 32.1059 108.528 32.6456 107.949 32.9793L112.876 33.9793C112.533 33.4577 112.34 32.7535 112.503 31.9559L114.767 20.7859L117.431 21.323C118.378 21.5166 119.072 22.0479 119.527 22.4832L119.591 18.5613L107.894 16.1922L107.894 16.192ZM72.386 20.0982C69.6622 19.9872 66.9259 21.1906 65.1751 23.5455C62.3661 27.3305 63.1298 32.6676 66.886 35.4495C70.6346 38.2336 75.9656 37.4279 78.771 33.6448C81.5743 29.8617 80.8105 24.5267 77.0601 21.7518C75.6515 20.7042 74.0206 20.1641 72.3863 20.0975L72.386 20.0982ZM130.454 23.0932C127.729 22.9819 124.99 24.1816 123.235 26.5424C120.434 30.3274 121.2 35.6645 124.95 38.4444C128.697 41.2304 134.037 40.4149 136.841 36.6299C139.642 32.8603 138.871 27.5234 135.128 24.7409C133.719 23.6976 132.089 23.1593 130.454 23.0925L130.454 23.0932ZM72.222 23.56C73.2029 23.5984 74.1768 23.9135 75.0052 24.5268C77.2102 26.1681 77.6838 29.4116 76.0501 31.6147C74.4184 33.8312 71.1633 34.3107 68.9583 32.6694C66.7571 31.0338 66.2739 27.7884 67.9075 25.5796C68.9345 24.2015 70.5872 23.4961 72.222 23.5601V23.56ZM130.274 26.556C131.253 26.5949 132.226 26.9102 133.053 27.5228C135.256 29.1545 135.74 32.4114 134.104 34.6126C132.465 36.8157 129.219 37.299 127.008 35.6653C124.805 34.0221 124.328 30.7747 125.964 28.5755C126.991 27.195 128.642 26.4911 130.274 26.556H130.274ZM52.37 30.906C51.6995 30.9224 50.9836 31.0758 50.2645 31.3591C50.0728 31.43 49.1395 31.8398 48.4051 32.3767L48.3524 32.4217L43.8719 35.6776C44.4433 35.8079 45.0952 36.0386 45.5516 36.6541V36.6561L53.3465 47.5041C53.5401 47.9125 53.667 48.4247 53.5731 48.9865L57.5632 46.092C56.7944 46.023 56.3645 45.5708 55.8641 44.9572L52.4871 40.3068L61.2449 43.4103L64.991 40.6818C64.3774 40.6492 63.6297 40.5115 62.7937 40.2834L57.0186 38.3094L57.1266 38.0264C57.8236 36.2524 57.4896 34.9574 57.4156 34.7174C57.2426 34.1364 56.9647 33.5824 56.5797 33.0724C56.0735 32.3668 55.4513 31.8256 54.7438 31.4728L54.6422 31.42C54.0752 31.155 53.5692 31.006 53.0232 30.935C52.8113 30.9096 52.5924 30.9003 52.3689 30.9057L52.37 30.906ZM52.2431 34.3552C52.5736 34.3587 52.8932 34.4538 53.2196 34.6365C53.8102 34.9663 54.0542 35.7181 54.0868 35.9041C54.1098 36.0345 54.2557 37.2223 52.8368 38.2615L51.6278 39.1423L49.2762 35.9353L50.4051 35.1033C51.1098 34.5952 51.6921 34.3494 52.243 34.3552L52.2431 34.3552ZM148.639 38.5915C131.633 58.3195 84.2091 58.0745 71.9321 62.1055C63.8713 64.7477 59.7361 69.1356 56.8811 73.4765C56.5992 77.946 59.845 82.2128 63.678 82.2128C63.678 82.2128 62.6726 79.6765 63.9573 77.0976C64.4616 76.1025 65.3866 75.1852 66.6233 74.4335C76.0879 67.9469 96.3673 74.5312 96.3673 74.5312C91.5948 74.0998 87.6708 74.1859 84.3573 74.6288C89.9753 76.3679 95.9823 78.7448 100.052 79.7304C105.07 80.9518 108.387 81.5795 113.372 81.8671L113.214 79.9023L115.98 80.373L123.372 81.6425L124.458 78.871L125.659 75.8241L128.005 78.1093C128.057 78.1592 131.691 81.6945 133.593 83.5448C133.259 80.0628 132.401 71.2008 132.392 71.1058L132.044 67.5296L135.376 68.8734L139.017 70.3441L144.462 61.4164L146.321 58.3852L148.181 61.4164L152.583 68.6156C154.121 62.3686 155.223 55.7536 158.435 52.6796C155.214 52.7985 152.949 53.7117 149.429 56.1718C151.425 50.7781 154.374 46.774 158.363 42.1948C154.486 42.7835 150.789 43.8954 147.158 45.9643C148.544 42.6683 148.638 38.5913 148.638 38.5913L148.639 38.5915ZM39.0491 45.1465C36.3229 45.0367 33.5801 46.238 31.8245 48.5977C29.0251 52.3789 29.8024 57.7044 33.5472 60.4997C37.2977 63.2819 42.6248 62.4645 45.4282 58.6852C48.2315 54.9021 47.4678 49.571 43.7231 46.7942C42.3152 45.7509 40.685 45.2116 39.0493 45.1458L39.0491 45.1465ZM38.8694 48.6016C39.8491 48.6401 40.8201 48.9556 41.6448 49.5704C43.8594 51.2117 44.3312 54.4551 42.6995 56.6563C41.0639 58.869 37.8128 59.3541 35.6116 57.7051C33.4046 56.0791 32.9232 52.8242 34.555 50.6192C35.582 49.2434 37.2365 48.5375 38.8695 48.6016L38.8694 48.6016ZM24.2314 60.9626L19.7194 71.9956L22.9654 74.0936C22.7736 73.1867 22.9128 72.5463 23.2349 71.6815L24.1568 69.4178L34.7138 73.7342C35.567 74.0813 35.9969 74.5557 36.2001 75.1444L38.1259 70.4491C37.5468 70.6926 36.8247 70.7484 36.0693 70.4374L25.5103 66.1112L26.5455 63.5956C26.9079 62.7059 27.5647 62.1163 28.0709 61.7597L24.2319 60.9627L24.2314 60.9626ZM37.6064 116.758C37.6064 117.747 37.1458 118.696 35.9091 119.248L20.9971 126.316C19.6012 126.953 18.4979 126.813 17.5967 125.881L21.2373 133.568C24.1786 139.744 29.0257 139.446 31.1924 138.426V138.416C32.8606 137.629 34.0811 136.288 34.5029 134.281C34.5029 134.281 36.0811 135.018 38.3935 133.925H38.4033V133.921C41.7856 132.313 42.9999 128.071 41.1611 124.245L37.6064 116.757V116.758ZM37.3056 120.928L39.3076 125.138C40.5808 127.834 39.7547 130.802 37.4365 131.904C36.0598 132.56 34.6523 132.324 33.1299 131.197L32.9658 131.064L32.9893 131.269C33.2788 133.449 32.2384 135.375 30.1983 136.343C27.4641 137.642 24.8168 136.278 23.1045 132.683L21.1611 128.582L37.3061 120.927L37.3056 120.928ZM36.8466 122.205L30.5732 125.182L32.1611 128.519C33.2598 130.84 35.2661 131.873 37.0263 131.043C38.8766 130.167 39.4968 127.748 38.4345 125.547L36.8466 122.205V122.205ZM158.597 123.021L158.085 123.084C155.924 123.373 153.514 125.095 152.337 127.178C151.455 128.765 151.046 130.327 151.132 131.82C151.241 133.828 152.177 135.524 153.841 136.726C154.075 136.887 154.322 137.052 154.591 137.203C158.5 139.402 160.973 137.189 162.96 135.41L163.12 135.262C164.74 133.816 165.883 133.093 166.977 133.713C167.652 134.087 167.975 135.341 167.399 136.457C166.926 137.371 166.235 137.724 166.018 137.824C164.874 138.434 163.047 137.642 163.024 137.642L162.991 137.619L163.788 140.387H163.821C164.548 140.467 165.796 140.166 165.813 140.166H165.821C167.275 139.844 168.402 138.994 169.163 137.631C169.196 137.577 169.22 137.523 169.241 137.484L169.28 137.416C170.467 135.259 169.984 132.847 168.142 131.797C166.692 130.978 165.416 130.956 164.226 131.742C163.204 132.411 161.956 133.473 161.946 133.492C159.891 135.3 158.126 136.59 155.694 135.26C154.525 134.623 153.719 133.667 153.374 132.498C153 131.165 153.235 129.651 154.075 128.222C154.524 127.467 156.208 124.999 159.335 125.074H159.355L158.616 123.031V123.021H158.597L158.597 123.021ZM35.8866 125.01L36.5644 126.437C37.0706 127.509 36.9326 128.543 36.0468 128.963C34.952 129.479 34.1031 128.448 33.7695 127.76L33.0937 126.326L35.8867 125.01H35.8866ZM29.6991 125.588L22.4393 129.037L23.9764 132.269C24.8335 134.087 26.7325 136.932 29.785 135.478C33.2229 133.85 31.9457 130.325 31.2381 128.824L29.699 125.588H29.6991ZM159.689 126.018C158.757 125.997 156.435 126.208 154.857 128.789C153.511 130.989 154.075 133.224 156.22 134.436C158.263 135.582 159.769 134.232 161.101 133.033L161.174 132.977L161.775 132.481C161.892 132.385 162 132.289 162.111 132.194C163.344 131.139 164.502 130.142 166.213 130.201C166.341 130.201 167.479 130.27 168.543 130.924C169.626 131.572 170.334 132.46 170.635 133.543C171.045 134.995 170.819 136.596 170.006 138.059C169.133 139.597 167.755 140.648 166.115 141.035C165.415 141.196 165.01 141.235 164.084 141.277H164.064L164.723 143.567H164.742C168.997 143.363 171.066 140.25 171.592 139.295C171.701 139.111 171.754 138.99 171.754 138.99C172.594 137.489 172.989 135.884 172.908 134.35C172.774 132.076 171.573 130.126 169.607 129.024C165.017 126.435 161.799 129.475 160.252 130.938L160.185 131C158.678 132.419 157.963 132.773 157.252 132.436C157.093 132.361 157.007 132.302 156.887 132.223C156.106 131.673 156.015 130.688 156.695 129.635C156.841 129.407 158.186 127.465 160.648 128.703L160.689 128.723L159.713 126.018H159.689L159.689 126.018ZM28.9991 128.25L29.6339 129.576C30.4718 131.363 30.1936 132.372 29.6222 132.924C29.3997 133.137 28.9792 133.395 28.6456 133.43C27.7444 133.537 26.8804 133.603 25.8526 131.369L25.2178 130.035L28.999 128.25L28.9991 128.25ZM45.9311 133.59C46.2111 134.499 46.0361 135.464 44.9624 136.455C44.9624 136.459 44.9218 136.499 44.8413 136.565C44.8144 136.595 33.8893 146.33 32.6113 147.465C31.4935 148.398 30.4948 148.412 29.2715 147.982L38.5527 158.404L40.3203 157.293L33.4375 149.562L48.3375 136.294L45.9313 133.589L45.9311 133.59ZM148.561 135.201L145.876 137.779L150.602 151.959L156.499 158.09L156.518 158.079L159.35 155.354C158.127 155.783 157.215 155.567 156.344 154.834H156.34L152.514 150.901L148.346 138.512C148.237 138.059 147.897 137.303 148.561 135.201L148.561 135.201ZM48.9711 137.014L34.8031 149.645L41.1429 156.76L44.1468 154.903C44.1468 154.903 42.1917 154.8 40.6156 153.069L40.5492 152.99C40.5492 152.99 38.7993 151.025 37.7562 149.862C39.1732 148.592 47.0286 141.58 48.3342 140.432C48.338 140.432 48.3383 140.432 48.3479 140.422C48.3728 140.403 48.4013 140.376 48.4358 140.348C48.4358 140.348 50.2307 139.013 51.385 139.721L48.9905 137.029L48.9709 137.014L48.9711 137.014ZM145.104 138.531L141.753 141.756C142.602 141.369 143.126 141.427 143.362 141.494C143.533 141.592 143.858 141.711 144.264 142.838L146.198 148.08L141.063 145.973C140.263 145.564 139.936 145.043 139.936 145.043C139.616 144.472 139.894 143.859 140.051 143.397L136.747 146.567L136.678 146.639L149.451 151.455L145.104 138.531L145.104 138.531ZM55.8251 145.063C56.4061 146.092 56.4592 146.834 55.6864 148.08C55.6768 148.082 48.8544 158.85 48.8544 158.85C46.5458 162.547 47.6725 166.398 51.8524 169.067C55.9461 171.681 60.2183 171.217 62.5594 167.536L69.3798 156.77C70.1237 155.641 71.0391 155.221 72.0439 155.34L69.0087 153.418L60.9734 166.084C60.8603 166.257 60.6668 166.557 60.6668 166.557C59.2632 168.783 55.8591 169.141 53.077 167.369C52.1164 166.762 51.3582 165.978 50.8309 165.121C50.8098 165.089 50.7857 165.066 50.7723 165.03C49.8098 163.429 49.6504 161.56 50.5497 160.135C50.5497 160.135 50.6125 160.027 50.8407 159.664L58.8778 146.996L55.8251 145.063L55.8251 145.063ZM135.919 147.371L133.298 149.885C134.759 149.4 135.307 149.499 136.511 149.856L148.779 154.502L152.275 158.17C153.37 159.251 153.325 160.543 152.97 161.498L155.818 158.75L149.922 152.629L135.92 147.371L135.919 147.371ZM59.6831 147.51L51.5269 160.377C50.2614 162.367 51.1955 165.104 53.5386 166.588C55.8779 168.07 58.7152 167.82 60.0152 165.805L68.191 152.905L65.1402 150.959C65.8171 152.056 65.688 152.903 64.9996 153.987C64.9996 153.987 60.6599 160.831 58.3609 164.448C57.64 165.498 55.9769 165.686 54.6558 164.85C53.3462 164.02 52.8063 162.419 53.441 161.323C54.1792 160.153 59.9181 151.1 59.9488 151.065C60.0255 150.93 60.066 150.863 60.066 150.863C60.7026 149.874 61.507 149.39 62.7457 149.455L59.6832 147.51L59.6831 147.51ZM126.025 151.363L127.263 173.779C127.235 175.913 126.905 177.134 126.34 177.91L129.562 176.215L128.176 155.428L144.537 168.334L147.609 166.709C146.343 166.674 145.13 165.914 143.863 165.064L126.023 151.364L126.025 151.363ZM75.3791 156.641C76.1538 157.352 76.6241 158.405 76.3537 159.572C72.4983 175.795 72.531 175.654 72.5099 175.748C72.2722 176.609 71.6077 177.797 70.0392 177.985L84.5822 181.44L85.4123 179.51L74.4083 176.91L78.5372 159.51L88.9432 161.991L89.0858 159.899L75.3788 156.641L75.3791 156.641ZM129.225 157.44L129.897 167.221L136.922 163.527L129.225 157.439L129.225 157.44ZM117.621 157.514L114.123 158.381L117.744 172.977C117.744 172.977 118.462 175.097 117.348 176.825C116.55 178.05 115.306 178.975 113.609 179.403C112.026 179.792 110.128 179.616 108.713 178.67C108.09 178.245 107.786 177.985 107.121 177.342L105.885 179.411C109.578 182.983 114.135 181.422 114.135 181.422C115.822 181.002 117.286 180.186 118.358 179.055C119.782 177.558 120.345 175.624 120.065 173.647C120.065 173.607 119.943 173.001 119.895 172.832L116.811 160.412C116.458 158.884 117.621 157.514 117.621 157.514L117.621 157.514ZM113.191 158.619L109.689 159.481C110.449 159.605 111.472 160.422 111.773 161.666L114.824 173.99C115.102 175.144 114.18 176.172 113.039 176.486C111.898 176.812 110.997 176.455 110.969 176.447C109.701 176.012 109.076 174.045 109.076 174.045L107.596 176.547C108.175 177.212 109.428 178.029 109.428 178.029C111.102 179.055 112.877 178.65 113.434 178.512C115.619 177.971 117.501 176.021 116.908 173.592C116.908 173.571 113.191 158.619 113.191 158.619L113.191 158.619ZM79.2504 160.672L77.6215 167.512L85.9906 169.496L86.6977 166.535C86.6977 166.535 85.7238 167.606 83.9789 167.201L80.098 166.275L80.8362 163.17L85.5081 164.279C88.0525 164.895 88.6643 166.266 88.6643 166.266L88.8909 162.959L79.2503 160.672L79.2504 160.672ZM131.311 161.408L133.612 163.258L131.538 164.344L131.311 161.408L131.311 161.408ZM137.716 164.191L130.003 168.254L130.483 175.732L130.552 175.697L134.149 173.799C133.302 173.674 132.55 172.92 132.347 171.744L132.169 169.119L137.188 166.479L139.38 168.182C139.934 168.636 140.797 169.523 139.905 170.768L143.54 168.855L143.614 168.824L137.716 164.191H137.716ZM77.4947 168.473L75.6588 176.213L85.8068 178.609L87.2189 175.34C86.4021 175.825 85.4793 176.35 83.5177 175.941C83.4775 175.941 78.213 174.691 78.213 174.691L79.1603 170.693L82.8849 171.576L82.9415 171.59C84.6902 172.069 85.0743 173.363 85.0743 173.363L85.7755 170.438L77.4943 168.473L77.4947 168.473Z" fill="#134A8E"/>
<path d="M97.0917 39.2728C81.7127 39.4163 66.4147 45.6014 55.0687 57.7048C49.5561 63.6066 45.4886 70.3428 42.8677 77.4628C44.0565 77.25 45.2658 77.0332 46.5044 76.8281C48.0633 72.9952 50.064 69.2945 52.5317 65.8101C52.5317 65.8235 52.5415 65.8395 52.5415 65.8491C52.553 65.8683 52.5749 65.8906 52.5884 65.9155C52.6842 65.8292 52.7836 65.74 52.8852 65.6479C53.1594 65.4083 53.4254 65.161 53.6938 64.9175C53.6689 64.8715 53.6425 64.8188 53.6157 64.7671C53.5639 64.6808 53.5229 64.5916 53.4692 64.5054C53.9102 63.9397 54.3487 63.3662 54.7993 62.812C54.8856 62.9136 54.949 63.0151 55.0142 63.1206C55.1215 63.2855 55.2168 63.4456 55.2954 63.5952C55.6904 63.2826 56.0997 62.9703 56.4966 62.6616C56.3164 62.2858 56.0914 61.9288 55.8306 61.5952C56.0473 61.3382 56.284 61.0904 56.5103 60.8315C56.7979 60.5132 57.0801 60.1792 57.3697 59.8647H57.3756C57.3833 59.8647 57.3834 59.8649 57.3834 59.8569C57.8263 60.3689 58.1154 60.9007 58.3052 61.3628C58.6619 61.127 59.015 60.8879 59.3697 60.6636C59.4445 60.6118 59.5099 60.5651 59.5885 60.521C59.3833 60.0417 59.1257 59.5772 58.815 59.1362C58.702 58.9962 58.598 58.8502 58.485 58.7182C58.974 58.2254 59.4671 57.7485 59.9713 57.2787C60.1017 57.1637 60.216 57.0421 60.3463 56.9232C61.144 57.7036 61.5278 58.5434 61.7311 59.2318C62.2278 58.9442 62.7329 58.676 63.2487 58.4037C63.0954 57.9742 62.8947 57.5561 62.6569 57.1361C62.4614 56.8178 62.2382 56.5193 61.987 56.226C61.8701 56.086 61.7444 55.9364 61.614 55.806C62.195 55.2902 62.7951 54.7952 63.3972 54.3216C63.5889 54.4961 63.7496 54.6648 63.9011 54.8412C64.2481 55.2381 64.5158 55.6333 64.696 56.0111C64.9223 56.4732 65.041 56.9028 65.1062 57.2787C65.1139 57.3516 65.1278 57.4187 65.1374 57.4935C65.1585 57.4724 65.1827 57.468 65.2019 57.4603C65.7272 57.2091 66.2667 56.9778 66.8113 56.7611C66.8362 56.7511 66.8566 56.7374 66.8777 56.7259C66.8451 56.5399 66.8044 56.3531 66.7507 56.1576C66.4612 55.0666 65.8489 53.982 64.9323 53.1517V53.1419C65.312 52.8715 65.6875 52.6037 66.069 52.3352C66.4678 52.0495 66.8774 51.7794 67.2878 51.5071C67.2111 51.672 67.1261 51.8295 67.0398 51.9446C68.7271 53.4939 69.0273 54.9703 68.9832 55.9309C69.6274 55.7104 70.273 55.5056 70.9402 55.3235C70.9152 54.6984 70.7739 54.056 70.5496 53.4329C70.306 52.7867 69.9528 52.1528 69.4772 51.5852C69.3699 51.4567 69.2522 51.3269 69.1237 51.1985C69.1966 51.0048 69.2834 50.7454 69.3601 50.4348C69.3812 50.3428 69.4151 50.2552 69.4362 50.1535C70.4985 49.5227 71.5856 48.9283 72.6882 48.3742C72.3891 49.2313 72.0451 49.9926 71.7019 50.3703C73.3764 52.2724 73.4203 53.7 73.1941 54.6223L73.1765 54.6985V54.7278C73.8534 54.5725 74.5272 54.4404 75.2136 54.3216C75.4188 52.8835 74.9912 51.2198 73.8523 49.845C73.8734 49.8124 73.8859 49.7681 73.907 49.7317C73.93 49.6934 73.9386 49.6606 73.9578 49.6145C74.2051 49.0719 74.5113 48.2217 74.7605 47.3704C75.679 46.9543 76.6136 46.5784 77.5378 46.2142C77.8369 46.0915 78.1489 45.9661 78.4499 45.8587C78.0626 46.9861 77.5259 48.2524 76.989 48.9427C76.9142 49.0386 76.8353 49.1315 76.7625 49.2005C77.773 50.2858 78.2241 51.5851 78.3641 52.6263V52.6986V52.7064C78.4197 53.1838 78.4082 53.5967 78.3641 53.8959C78.9566 53.8384 79.565 53.8093 80.1805 53.7768C80.2418 53.7708 80.3008 53.7705 80.3621 53.7631C80.458 53.2377 80.4841 52.6585 80.4246 52.0776C80.3843 51.5848 80.2767 51.0884 80.0965 50.6186C79.8453 50.0108 79.4697 49.458 78.9539 49.017C79.416 48.2232 80.1555 46.396 80.493 45.142C91.43 41.5756 103.298 41.5114 114.311 44.9857C114.361 45.0087 114.408 45.0097 114.459 45.0346C114.555 45.0691 114.655 45.0995 114.75 45.1283C117.747 46.1062 120.684 47.3535 123.516 48.8549C124.879 48.4235 126.213 47.9846 127.534 47.5033C118.173 41.9042 107.613 39.1747 97.0906 39.2728L97.0917 39.2728ZM84.8727 45.0892C84.2073 46.4621 83.1546 48.3771 82.3512 48.9427C83.7567 50.9177 83.8096 52.8387 83.4645 53.7572C84.1126 53.786 84.7642 53.8245 85.4411 53.8705C85.884 52.3711 85.7875 50.4249 84.6696 49.0482C85.2372 48.3407 86.1812 46.5021 86.6989 45.2826C86.0853 45.204 85.4729 45.1391 84.8727 45.0892L84.8727 45.0892ZM90.8219 45.9662C90.0089 47.1703 88.7269 48.762 87.9235 49.3314C88.0845 49.5672 88.2326 49.8027 88.3668 50.0462C89.2872 51.722 89.3623 53.4537 89.1168 54.3607C89.7496 54.4662 90.3823 54.5738 91.0055 54.6869C91.4255 53.1434 91.1578 51.0699 89.9977 49.7162C90.5672 49.0048 91.9964 47.4663 92.6598 46.3197C92.0597 46.2046 91.4355 46.0889 90.8219 45.9662L90.8219 45.9662ZM96.0465 47.0717C95.3217 48.2547 94.1747 49.7905 93.4039 50.4252C94.4738 51.7233 94.9273 53.4351 95.0328 54.7006C95.679 54.6047 96.346 54.5093 97.0113 54.4115C96.9327 53.0904 96.5144 51.702 95.6324 50.8334C96.1405 50.0799 97.2253 48.6404 97.8082 47.5033C97.2253 47.3614 96.6447 47.2212 96.0465 47.0717V47.0717ZM101.49 48.4916C100.861 49.5864 99.7943 50.9499 99.0426 51.6478C99.6427 52.292 100.016 53.0968 100.263 53.9251C100.869 53.8254 101.472 53.7319 102.08 53.6341C101.857 53.1087 101.555 52.6256 101.168 52.2747C101.63 51.4904 102.674 50.1342 103.211 48.9856C102.639 48.8245 102.069 48.6506 101.49 48.4914L101.49 48.4916ZM106.966 50.1674C106.495 50.9439 105.784 51.8503 105.109 52.5444C104.887 52.7764 104.656 52.991 104.455 53.1655C104.455 53.1885 104.484 53.2088 104.498 53.2299C105.455 53.0631 106.418 52.8965 107.377 52.7201C107.835 52.097 108.33 51.4009 108.642 50.726C108.094 50.5343 107.526 50.3534 106.966 50.1675V50.1674ZM146.32 62.5624L142.041 69.5585L139.893 73.0468L134.553 70.8925C134.572 70.9213 135.726 82.9635 135.887 84.5525C135.91 84.865 135.908 85.145 135.887 85.3943C135.852 85.7989 135.767 86.1213 135.635 86.3572C135.42 86.7292 135.087 86.9079 134.701 86.9079C134.617 86.9079 134.522 86.8939 134.436 86.8747C134.233 86.8421 134.035 86.7556 133.828 86.6501C133.594 86.5198 133.371 86.3591 133.157 86.1501C133.124 86.129 133.101 86.1007 133.061 86.0681C132.006 85.048 126.483 79.6755 126.483 79.6755L124.746 84.0915L115.61 82.5212L116.442 92.5642L114.401 93.2654L112.883 93.783L132.274 110.506L129.104 114.332L130.21 114.234L144.921 113.041L146.317 115.719L146.765 114.861L147.714 113.041L150.546 113.27L153.759 113.535L163.536 114.332L160.36 110.506L179.755 93.7828L177.972 93.1715L176.2 92.5641H176.204L177.023 82.5211L167.9 84.0914L166.158 79.6754C166.158 79.6754 160.626 85.0479 159.574 86.068C159.545 86.1006 159.513 86.1289 159.488 86.15C158.978 86.6255 158.416 86.9078 157.933 86.9078C157.837 86.9078 157.748 86.9051 157.662 86.8746C157.04 86.7232 156.631 86.0038 156.759 84.5523C156.78 84.2762 156.843 83.6805 156.919 82.9078C157.282 79.1708 158.081 70.9208 158.081 70.8918L152.742 73.0461L146.322 62.5621L146.32 62.5624ZM39.8405 105.447C41.5739 118.273 47.5672 130.625 57.7465 140.166C66.7584 148.609 77.7315 153.638 89.0745 155.305C88.5664 154.163 88.0312 153.016 87.4905 151.846C79.1267 150.291 71.0265 146.789 63.9435 141.307C64.1697 140.074 64.4719 139.065 64.8458 138.76C64.9436 138.666 65.0431 138.64 65.1505 138.655C64.0461 136.958 64.1207 134.526 64.4103 133.358C64.2818 133.301 64.1601 133.24 64.0451 133.188C63.6386 133 63.2389 132.817 62.8438 132.63C62.3434 134.127 62.4968 136.301 63.3692 137.856C62.8707 138.662 62.6164 139.33 62.463 140.122C62.2847 139.966 62.1082 139.812 61.9376 139.667C61.3566 139.182 60.7945 138.686 60.2403 138.171C60.131 138.073 60.0156 137.975 59.9083 137.872C59.8987 137.868 59.8985 137.868 59.8985 137.856C59.887 137.848 59.8789 137.848 59.877 137.839C60.0572 137.367 60.2615 136.954 60.4571 136.741C60.4743 136.718 60.4985 136.705 60.5196 136.678C60.5349 136.665 60.5532 136.643 60.5743 136.631C60.582 136.625 60.5902 136.621 60.6055 136.612C60.6285 136.599 60.6606 136.592 60.6836 136.581C60.722 136.571 60.7663 136.579 60.7989 136.591C60.6359 136.269 60.5101 135.944 60.4219 135.61C60.0615 134.41 60.113 133.189 60.3028 132.274C60.3718 131.941 60.4569 131.641 60.5528 131.413C60.0428 131.124 59.5418 130.831 59.0587 130.528C58.3377 131.947 58.1504 133.888 59.0919 135.562C59.0152 135.686 58.9422 135.828 58.8731 135.97C58.8559 136.002 58.8339 136.033 58.8243 136.073C58.7361 136.234 58.6608 136.405 58.5841 136.591C58.2121 136.215 57.8451 135.838 57.4903 135.456C57.1241 135.078 56.7729 134.691 56.4278 134.302C56.4623 134.26 56.5007 134.227 56.5372 134.194C56.6234 134.121 56.7065 134.077 56.7813 134.069C56.8216 134.069 56.8544 134.076 56.8985 134.099C56.3214 132.574 56.5261 130.983 56.877 129.886C56.9537 129.661 57.0407 129.443 57.1231 129.265C56.8029 129.038 56.4902 128.805 56.17 128.577C56.0147 128.462 55.8488 128.352 55.6954 128.245C55.1259 129.221 54.7882 130.424 54.9473 131.671C55.001 132.091 55.1185 132.501 55.2891 132.915V132.919C55.2853 132.919 55.2774 132.929 55.2774 132.931C55.2697 132.941 55.2695 132.941 55.2657 132.952C54.771 132.364 54.2864 131.757 53.8282 131.153C53.6115 130.875 53.3886 130.587 53.1739 130.298C53.1643 129.259 53.4122 128.245 53.7286 127.409C53.8034 127.223 53.8804 127.039 53.9571 126.872C53.5276 126.527 53.1095 126.168 52.6954 125.808C52.2697 126.588 51.9473 127.485 51.8399 128.405C51.3989 127.763 50.979 127.106 50.5801 126.44C50.6453 126.168 50.7323 125.903 50.8301 125.646C50.9682 125.247 51.1224 124.872 51.293 124.53C50.8846 124.153 50.4967 123.771 50.1094 123.388C49.9273 123.714 49.7766 124.066 49.6289 124.421C49.5963 124.507 49.56 124.585 49.5313 124.671C49.3875 124.418 49.2611 124.164 49.1211 123.907C48.9601 123.62 48.8019 123.324 48.6504 123.036C48.7827 122.791 48.9206 122.564 49.0586 122.358C48.7039 121.929 48.3629 121.511 48.0274 121.079C47.9967 121.116 47.9625 121.154 47.9395 121.196C47.8974 121.263 47.8569 121.315 47.8223 121.38C45.5099 116.515 43.9458 111.39 43.1289 106.161C42.013 105.937 40.9155 105.695 39.8398 105.448L39.8405 105.447ZM149.88 115.41C149.359 116.921 148.788 118.416 148.134 119.899C147.329 121.735 146.404 123.535 145.384 125.299C144.932 124.346 144.807 123.403 144.748 122.68C144.234 122.699 143.709 122.727 143.183 122.764C143.291 123.604 143.464 124.379 143.746 125.108C143.957 125.645 144.217 126.168 144.547 126.688C142.656 129.725 140.444 132.631 137.9 135.344C131.358 142.327 123.428 147.214 114.941 150.01C114.082 151.32 113.214 152.665 112.341 154.055C122.662 151.38 132.373 145.852 140.198 137.491C146.256 131.037 150.547 123.563 153.114 115.665L149.88 115.411L149.88 115.41ZM140.939 122.965C140.421 123.022 139.894 123.087 139.369 123.162C139.626 124.742 140.239 125.773 141.011 127.106C140.413 128.156 139.722 129.694 139.269 130.895C139.841 130.789 140.399 130.694 140.957 130.619C141.474 129.342 142.129 127.911 142.668 126.899C141.431 125.461 141.089 123.954 140.939 122.965V122.965ZM136.125 123.787C135.641 124.255 135.122 124.774 134.566 125.344C134.932 126.31 135.519 127.086 136.447 127.846C136.332 128.082 136.208 128.369 136.072 128.684C135.681 129.619 135.232 130.831 134.908 131.842C135.564 131.681 136.221 131.529 136.865 131.379C137.413 129.956 138.068 128.353 138.5 127.451C136.799 126.37 136.316 124.782 136.125 123.787ZM132.216 127.803C131.894 128.148 131.561 128.521 131.214 128.899C131.326 128.964 131.443 129.026 131.562 129.08C131.156 130.217 130.638 131.658 130.294 133.1C130.906 132.927 131.537 132.745 132.162 132.565C132.61 131.071 133.172 129.415 133.644 128.514C133.076 128.353 132.611 128.106 132.216 127.803L132.216 127.803ZM67.3314 134.516C66.8712 136.217 66.9679 138.762 68.4271 139.92C67.825 140.848 67.6129 141.875 67.5247 143.662C68.0846 143.841 68.6506 144.005 69.222 144.151C69.4368 141.829 69.7505 140.393 70.4368 140.502C68.945 139.426 68.8886 136.473 69.1321 135.106C68.5224 134.925 67.9257 134.732 67.3313 134.516L67.3314 134.516ZM72.0052 135.86C71.7463 137.386 71.999 139.569 73.1771 140.77C73.3477 140.94 73.5343 141.089 73.7357 141.221C73.2736 142.145 73.1929 143.412 73.306 145.055C73.8966 145.153 74.5086 145.242 75.1107 145.303C75.057 143.293 75.1957 141.493 75.8822 141.512C74.0683 140.233 73.7791 137.525 73.9076 136.235C73.2652 136.118 72.6265 135.992 72.0053 135.86L72.0052 135.86ZM77.345 136.653C77.3201 138.438 78.0282 140.973 79.7923 141.737C79.5028 142.904 79.5041 144.24 79.7591 145.778C80.3631 145.766 80.9619 145.754 81.5736 145.725C81.3608 143.949 81.2969 141.726 81.9603 141.66C80.0486 140.585 79.3692 138.064 79.3001 136.762C78.6443 136.741 77.9893 136.71 77.345 136.653L77.345 136.653Z" fill="#E8291C"/>
</svg>
